<svg xmlns="http://www.w3.org/2000/svg"  width="600" height="600">
<path d="M0 0 L20 0 M20 20 L0 20 L0 0 " fill="none" stroke="black" stroke-width="3"  />
<path d="M20 0 L40 0 M40 20 L20 20 M20 0 " fill="none" stroke="black" stroke-width="3"  />
<path d="M40 0 L60 0 L60 20 M40 20 M40 0 " fill="none" stroke="black" stroke-width="3"  />
<path d="M60 0 L80 0 M80 20 M60 20 L60 0 " fill="none" stroke="black" stroke-width="3"  />
<path d="M80 0 L100 0 L100 20 M80 20 M80 0 " fill="none" stroke="black" stroke-width="3"  />
<path d="M100 0 L120 0 M120 20 M100 20 L100 0 " fill="none" stroke="black" stroke-width="3"  />
<path d="M120 0 L140 0 M140 20 L120 20 M120 0 " fill="none" stroke="black" stroke-width="3"  />
<path d="M140 0 L160 0 M160 20 L140 20 M140 0 " fill="none" stroke="black" stroke-width="3"  />
<path d="M160 0 L180 0 M180 20 L160 20 M160 0 " fill="none" stroke="black" stroke-width="3"  />
<path d="M180 0 L200 0 M200 20 L180 20 M180 0 " fill="none" stroke="black" stroke-width="3"  />
<path d="M200 0 L220 0 M220 20 L200 20 M200 0 " fill="none" stroke="black" stroke-width="3"  />
<path d="M220 0 L240 0 L240 20 M220 20 M220 0 " fill="none" stroke="black" stroke-width="3"  />
<path d="M240 0 L260 0 M260 20 M240 20 L240 0 " fill="none" stroke="black" stroke-width="3"  />
<path d="M260 0 L280 0 L280 20 M260 20 M260 0 " fill="none" stroke="black" stroke-width="3"  />
<path d="M280 0 L300 0 M300 20 L280 20 L280 0 " fill="none" stroke="black" stroke-width="3"  />
<path d="M300 0 L320 0 M320 20 M300 20 M300 0 " fill="none" stroke="black" stroke-width="3"  />
<path d="M320 0 L340 0 M340 20 L320 20 M320 0 " fill="none" stroke="black" stroke-width="3"  />
<path d="M340 0 L360 0 M360 20 L340 20 M340 0 " fill="none" stroke="black" stroke-width="3"  />
<path d="M360 0 L380 0 L380 20 M360 20 M360 0 " fill="none" stroke="black" stroke-width="3"  />
<path d="M380 0 L400 0 M400 20 L380 20 L380 0 " fill="none" stroke="black" stroke-width="3"  />
<path d="M400 0 L420 0 M420 20 M400 20 M400 0 " fill="none" stroke="black" stroke-width="3"  />
<path d="M420 0 L440 0 M440 20 M420 20 M420 0 " fill="none" stroke="black" stroke-width="3"  />
<path d="M440 0 L460 0 L460 20 M440 20 M440 0 " fill="none" stroke="black" stroke-width="3"  />
<path d="M460 0 L480 0 M480 20 M460 20 L460 0 " fill="none" stroke="black" stroke-width="3"  />
<path d="M480 0 L500 0 M500 20 L480 20 M480 0 " fill="none" stroke="black" stroke-width="3"  />
<path d="M500 0 L520 0 L520 20 M500 20 M500 0 " fill="none" stroke="black" stroke-width="3"  />
<path d="M520 0 L540 0 M540 20 M520 20 L520 0 " fill="none" stroke="black" stroke-width="3"  />
<path d="M540 0 L560 0 M560 20 L540 20 M540 0 " fill="none" stroke="black" stroke-width="3"  />
<path d="M560 0 L580 0 L580 20 M560 20 M560 0 " fill="none" stroke="black" stroke-width="3"  />
<path d="M580 0 L600 0 L600 20 M580 20 L580 0 " fill="none" stroke="black" stroke-width="3"  />
<path d="M0 20 L20 20 M20 40 M0 40 L0 20 " fill="none" stroke="black" stroke-width="3"  />
<path d="M20 20 L40 20 L40 40 L20 40 M20 20 " fill="none" stroke="black" stroke-width="3"  />
<path d="M40 20 M60 20 M60 40 L40 40 L40 20 " fill="none" stroke="black" stroke-width="3"  />
<path d="M60 20 M80 20 L80 40 L60 40 M60 20 " fill="none" stroke="black" stroke-width="3"  />
<path d="M80 20 M100 20 L100 40 M80 40 L80 20 " fill="none" stroke="black" stroke-width="3"  />
<path d="M100 20 M120 20 L120 40 M100 40 L100 20 " fill="none" stroke="black" stroke-width="3"  />
<path d="M120 20 L140 20 M140 40 M120 40 L120 20 " fill="none" stroke="black" stroke-width="3"  />
<path d="M140 20 L160 20 M160 40 L140 40 M140 20 " fill="none" stroke="black" stroke-width="3"  />
<path d="M160 20 L180 20 L180 40 M160 40 M160 20 " fill="none" stroke="black" stroke-width="3"  />
<path d="M180 20 L200 20 M200 40 M180 40 L180 20 " fill="none" stroke="black" stroke-width="3"  />
<path d="M200 20 L220 20 L220 40 M200 40 M200 20 " fill="none" stroke="black" stroke-width="3"  />
<path d="M220 20 M240 20 L240 40 M220 40 L220 20 " fill="none" stroke="black" stroke-width="3"  />
<path d="M240 20 M260 20 L260 40 M240 40 L240 20 " fill="none" stroke="black" stroke-width="3"  />
<path d="M260 20 M280 20 M280 40 M260 40 L260 20 " fill="none" stroke="black" stroke-width="3"  />
<path d="M280 20 L300 20 M300 40 L280 40 M280 20 " fill="none" stroke="black" stroke-width="3"  />
<path d="M300 20 M320 20 L320 40 L300 40 M300 20 " fill="none" stroke="black" stroke-width="3"  />
<path d="M320 20 L340 20 M340 40 M320 40 L320 20 " fill="none" stroke="black" stroke-width="3"  />
<path d="M340 20 L360 20 L360 40 M340 40 M340 20 " fill="none" stroke="black" stroke-width="3"  />
<path d="M360 20 M380 20 M380 40 L360 40 L360 20 " fill="none" stroke="black" stroke-width="3"  />
<path d="M380 20 L400 20 L400 40 M380 40 M380 20 " fill="none" stroke="black" stroke-width="3"  />
<path d="M400 20 M420 20 L420 40 M400 40 L400 20 " fill="none" stroke="black" stroke-width="3"  />
<path d="M420 20 M440 20 L440 40 M420 40 L420 20 " fill="none" stroke="black" stroke-width="3"  />
<path d="M440 20 M460 20 M460 40 L440 40 L440 20 " fill="none" stroke="black" stroke-width="3"  />
<path d="M460 20 M480 20 L480 40 L460 40 M460 20 " fill="none" stroke="black" stroke-width="3"  />
<path d="M480 20 L500 20 M500 40 M480 40 L480 20 " fill="none" stroke="black" stroke-width="3"  />
<path d="M500 20 M520 20 L520 40 L500 40 M500 20 " fill="none" stroke="black" stroke-width="3"  />
<path d="M520 20 M540 20 L540 40 M520 40 L520 20 " fill="none" stroke="black" stroke-width="3"  />
<path d="M540 20 L560 20 M560 40 M540 40 L540 20 " fill="none" stroke="black" stroke-width="3"  />
<path d="M560 20 M580 20 L580 40 L560 40 M560 20 " fill="none" stroke="black" stroke-width="3"  />
<path d="M580 20 M600 20 L600 40 M580 40 L580 20 " fill="none" stroke="black" stroke-width="3"  />
<path d="M0 40 M20 40 M20 60 M0 60 L0 40 " fill="none" stroke="black" stroke-width="3"  />
<path d="M20 40 L40 40 M40 60 M20 60 M20 40 " fill="none" stroke="black" stroke-width="3"  />
<path d="M40 40 L60 40 M60 60 L40 60 M40 40 " fill="none" stroke="black" stroke-width="3"  />
<path d="M60 40 L80 40 L80 60 L60 60 M60 40 " fill="none" stroke="black" stroke-width="3"  />
<path d="M80 40 M100 40 M100 60 L80 60 L80 40 " fill="none" stroke="black" stroke-width="3"  />
<path d="M100 40 M120 40 L120 60 L100 60 M100 40 " fill="none" stroke="black" stroke-width="3"  />
<path d="M120 40 M140 40 L140 60 M120 60 L120 40 " fill="none" stroke="black" stroke-width="3"  />
<path d="M140 40 L160 40 L160 60 M140 60 L140 40 " fill="none" stroke="black" stroke-width="3"  />
<path d="M160 40 M180 40 M180 60 L160 60 L160 40 " fill="none" stroke="black" stroke-width="3"  />
<path d="M180 40 M200 40 L200 60 L180 60 M180 40 " fill="none" stroke="black" stroke-width="3"  />
<path d="M200 40 M220 40 L220 60 M200 60 L200 40 " fill="none" stroke="black" stroke-width="3"  />
<path d="M220 40 M240 40 L240 60 M220 60 L220 40 " fill="none" stroke="black" stroke-width="3"  />
<path d="M240 40 M260 40 L260 60 M240 60 L240 40 " fill="none" stroke="black" stroke-width="3"  />
<path d="M260 40 M280 40 L280 60 L260 60 L260 40 " fill="none" stroke="black" stroke-width="3"  />
<path d="M280 40 L300 40 M300 60 M280 60 L280 40 " fill="none" stroke="black" stroke-width="3"  />
<path d="M300 40 L320 40 L320 60 M300 60 M300 40 " fill="none" stroke="black" stroke-width="3"  />
<path d="M320 40 M340 40 L340 60 L320 60 L320 40 " fill="none" stroke="black" stroke-width="3"  />
<path d="M340 40 M360 40 M360 60 L340 60 L340 40 " fill="none" stroke="black" stroke-width="3"  />
<path d="M360 40 L380 40 M380 60 L360 60 M360 40 " fill="none" stroke="black" stroke-width="3"  />
<path d="M380 40 M400 40 L400 60 M380 60 M380 40 " fill="none" stroke="black" stroke-width="3"  />
<path d="M400 40 M420 40 L420 60 L400 60 L400 40 " fill="none" stroke="black" stroke-width="3"  />
<path d="M420 40 M440 40 M440 60 M420 60 L420 40 " fill="none" stroke="black" stroke-width="3"  />
<path d="M440 40 L460 40 L460 60 M440 60 M440 40 " fill="none" stroke="black" stroke-width="3"  />
<path d="M460 40 L480 40 M480 60 L460 60 L460 40 " fill="none" stroke="black" stroke-width="3"  />
<path d="M480 40 M500 40 M500 60 L480 60 M480 40 " fill="none" stroke="black" stroke-width="3"  />
<path d="M500 40 L520 40 M520 60 L500 60 M500 40 " fill="none" stroke="black" stroke-width="3"  />
<path d="M520 40 M540 40 L540 60 L520 60 M520 40 " fill="none" stroke="black" stroke-width="3"  />
<path d="M540 40 M560 40 L560 60 M540 60 L540 40 " fill="none" stroke="black" stroke-width="3"  />
<path d="M560 40 L580 40 M580 60 L560 60 L560 40 " fill="none" stroke="black" stroke-width="3"  />
<path d="M580 40 M600 40 L600 60 M580 60 M580 40 " fill="none" stroke="black" stroke-width="3"  />
<path d="M0 60 M20 60 L20 80 M0 80 L0 60 " fill="none" stroke="black" stroke-width="3"  />
<path d="M20 60 M40 60 M40 80 L20 80 L20 60 " fill="none" stroke="black" stroke-width="3"  />
<path d="M40 60 L60 60 M60 80 L40 80 M40 60 " fill="none" stroke="black" stroke-width="3"  />
<path d="M60 60 L80 60 M80 80 L60 80 M60 60 " fill="none" stroke="black" stroke-width="3"  />
<path d="M80 60 L100 60 M100 80 L80 80 M80 60 " fill="none" stroke="black" stroke-width="3"  />
<path d="M100 60 L120 60 M120 80 M100 80 M100 60 " fill="none" stroke="black" stroke-width="3"  />
<path d="M120 60 M140 60 L140 80 L120 80 M120 60 " fill="none" stroke="black" stroke-width="3"  />
<path d="M140 60 M160 60 M160 80 L140 80 L140 60 " fill="none" stroke="black" stroke-width="3"  />
<path d="M160 60 L180 60 M180 80 M160 80 M160 60 " fill="none" stroke="black" stroke-width="3"  />
<path d="M180 60 L200 60 L200 80 L180 80 M180 60 " fill="none" stroke="black" stroke-width="3"  />
<path d="M200 60 M220 60 L220 80 M200 80 L200 60 " fill="none" stroke="black" stroke-width="3"  />
<path d="M220 60 M240 60 L240 80 M220 80 L220 60 " fill="none" stroke="black" stroke-width="3"  />
<path d="M240 60 M260 60 M260 80 M240 80 L240 60 " fill="none" stroke="black" stroke-width="3"  />
<path d="M260 60 L280 60 M280 80 L260 80 M260 60 " fill="none" stroke="black" stroke-width="3"  />
<path d="M280 60 M300 60 L300 80 L280 80 M280 60 " fill="none" stroke="black" stroke-width="3"  />
<path d="M300 60 M320 60 M320 80 L300 80 L300 60 " fill="none" stroke="black" stroke-width="3"  />
<path d="M320 60 L340 60 M340 80 L320 80 M320 60 " fill="none" stroke="black" stroke-width="3"  />
<path d="M340 60 L360 60 M360 80 L340 80 M340 60 " fill="none" stroke="black" stroke-width="3"  />
<path d="M360 60 L380 60 L380 80 M360 80 M360 60 " fill="none" stroke="black" stroke-width="3"  />
<path d="M380 60 M400 60 M400 80 L380 80 L380 60 " fill="none" stroke="black" stroke-width="3"  />
<path d="M400 60 L420 60 L420 80 M400 80 M400 60 " fill="none" stroke="black" stroke-width="3"  />
<path d="M420 60 M440 60 L440 80 L420 80 L420 60 " fill="none" stroke="black" stroke-width="3"  />
<path d="M440 60 M460 60 M460 80 L440 80 L440 60 " fill="none" stroke="black" stroke-width="3"  />
<path d="M460 60 L480 60 M480 80 L460 80 M460 60 " fill="none" stroke="black" stroke-width="3"  />
<path d="M480 60 L500 60 M500 80 L480 80 M480 60 " fill="none" stroke="black" stroke-width="3"  />
<path d="M500 60 L520 60 L520 80 M500 80 M500 60 " fill="none" stroke="black" stroke-width="3"  />
<path d="M520 60 L540 60 M540 80 M520 80 L520 60 " fill="none" stroke="black" stroke-width="3"  />
<path d="M540 60 M560 60 L560 80 L540 80 M540 60 " fill="none" stroke="black" stroke-width="3"  />
<path d="M560 60 L580 60 M580 80 M560 80 L560 60 " fill="none" stroke="black" stroke-width="3"  />
<path d="M580 60 M600 60 L600 80 M580 80 M580 60 " fill="none" stroke="black" stroke-width="3"  />
<path d="M0 80 M20 80 M20 100 L0 100 L0 80 " fill="none" stroke="black" stroke-width="3"  />
<path d="M20 80 L40 80 M40 100 L20 100 M20 80 " fill="none" stroke="black" stroke-width="3"  />
<path d="M40 80 L60 80 M60 100 L40 100 M40 80 " fill="none" stroke="black" stroke-width="3"  />
<path d="M60 80 L80 80 M80 100 L60 100 M60 80 " fill="none" stroke="black" stroke-width="3"  />
<path d="M80 80 L100 80 L100 100 M80 100 M80 80 " fill="none" stroke="black" stroke-width="3"  />
<path d="M100 80 M120 80 L120 100 M100 100 L100 80 " fill="none" stroke="black" stroke-width="3"  />
<path d="M120 80 L140 80 M140 100 M120 100 L120 80 " fill="none" stroke="black" stroke-width="3"  />
<path d="M140 80 L160 80 L160 100 M140 100 M140 80 " fill="none" stroke="black" stroke-width="3"  />
<path d="M160 80 M180 80 M180 100 M160 100 L160 80 " fill="none" stroke="black" stroke-width="3"  />
<path d="M180 80 L200 80 M200 100 L180 100 M180 80 " fill="none" stroke="black" stroke-width="3"  />
<path d="M200 80 M220 80 L220 100 L200 100 M200 80 " fill="none" stroke="black" stroke-width="3"  />
<path d="M220 80 M240 80 L240 100 M220 100 L220 80 " fill="none" stroke="black" stroke-width="3"  />
<path d="M240 80 M260 80 L260 100 M240 100 L240 80 " fill="none" stroke="black" stroke-width="3"  />
<path d="M260 80 L280 80 L280 100 M260 100 L260 80 " fill="none" stroke="black" stroke-width="3"  />
<path d="M280 80 L300 80 M300 100 M280 100 L280 80 " fill="none" stroke="black" stroke-width="3"  />
<path d="M300 80 L320 80 M320 100 L300 100 M300 80 " fill="none" stroke="black" stroke-width="3"  />
<path d="M320 80 L340 80 L340 100 M320 100 M320 80 " fill="none" stroke="black" stroke-width="3"  />
<path d="M340 80 L360 80 M360 100 M340 100 L340 80 " fill="none" stroke="black" stroke-width="3"  />
<path d="M360 80 M380 80 L380 100 L360 100 M360 80 " fill="none" stroke="black" stroke-width="3"  />
<path d="M380 80 L400 80 M400 100 L380 100 L380 80 " fill="none" stroke="black" stroke-width="3"  />
<path d="M400 80 M420 80 L420 100 M400 100 M400 80 " fill="none" stroke="black" stroke-width="3"  />
<path d="M420 80 L440 80 M440 100 M420 100 L420 80 " fill="none" stroke="black" stroke-width="3"  />
<path d="M440 80 L460 80 M460 100 L440 100 M440 80 " fill="none" stroke="black" stroke-width="3"  />
<path d="M460 80 L480 80 M480 100 L460 100 M460 80 " fill="none" stroke="black" stroke-width="3"  />
<path d="M480 80 L500 80 L500 100 M480 100 M480 80 " fill="none" stroke="black" stroke-width="3"  />
<path d="M500 80 M520 80 L520 100 M500 100 L500 80 " fill="none" stroke="black" stroke-width="3"  />
<path d="M520 80 M540 80 L540 100 M520 100 L520 80 " fill="none" stroke="black" stroke-width="3"  />
<path d="M540 80 L560 80 M560 100 L540 100 L540 80 " fill="none" stroke="black" stroke-width="3"  />
<path d="M560 80 M580 80 L580 100 M560 100 M560 80 " fill="none" stroke="black" stroke-width="3"  />
<path d="M580 80 M600 80 L600 100 M580 100 L580 80 " fill="none" stroke="black" stroke-width="3"  />
<path d="M0 100 L20 100 M20 120 M0 120 L0 100 " fill="none" stroke="black" stroke-width="3"  />
<path d="M20 100 L40 100 M40 120 L20 120 M20 100 " fill="none" stroke="black" stroke-width="3"  />
<path d="M40 100 L60 100 M60 120 L40 120 M40 100 " fill="none" stroke="black" stroke-width="3"  />
<path d="M60 100 L80 100 L80 120 M60 120 M60 100 " fill="none" stroke="black" stroke-width="3"  />
<path d="M80 100 M100 100 L100 120 L80 120 L80 100 " fill="none" stroke="black" stroke-width="3"  />
<path d="M100 100 M120 100 M120 120 L100 120 L100 100 " fill="none" stroke="black" stroke-width="3"  />
<path d="M120 100 M140 100 L140 120 L120 120 M120 100 " fill="none" stroke="black" stroke-width="3"  />
<path d="M140 100 M160 100 L160 120 M140 120 L140 100 " fill="none" stroke="black" stroke-width="3"  />
<path d="M160 100 M180 100 L180 120 M160 120 L160 100 " fill="none" stroke="black" stroke-width="3"  />
<path d="M180 100 L200 100 L200 120 M180 120 L180 100 " fill="none" stroke="black" stroke-width="3"  />
<path d="M200 100 L220 100 M220 120 M200 120 L200 100 " fill="none" stroke="black" stroke-width="3"  />
<path d="M220 100 M240 100 L240 120 L220 120 M220 100 " fill="none" stroke="black" stroke-width="3"  />
<path d="M240 100 M260 100 L260 120 M240 120 L240 100 " fill="none" stroke="black" stroke-width="3"  />
<path d="M260 100 M280 100 M280 120 L260 120 L260 100 " fill="none" stroke="black" stroke-width="3"  />
<path d="M280 100 M300 100 L300 120 L280 120 M280 100 " fill="none" stroke="black" stroke-width="3"  />
<path d="M300 100 L320 100 M320 120 M300 120 L300 100 " fill="none" stroke="black" stroke-width="3"  />
<path d="M320 100 M340 100 L340 120 L320 120 M320 100 " fill="none" stroke="black" stroke-width="3"  />
<path d="M340 100 M360 100 M360 120 L340 120 L340 100 " fill="none" stroke="black" stroke-width="3"  />
<path d="M360 100 L380 100 M380 120 L360 120 M360 100 " fill="none" stroke="black" stroke-width="3"  />
<path d="M380 100 L400 100 L400 120 M380 120 M380 100 " fill="none" stroke="black" stroke-width="3"  />
<path d="M400 100 M420 100 L420 120 M400 120 L400 100 " fill="none" stroke="black" stroke-width="3"  />
<path d="M420 100 M440 100 M440 120 M420 120 L420 100 " fill="none" stroke="black" stroke-width="3"  />
<path d="M440 100 L460 100 L460 120 M440 120 M440 100 " fill="none" stroke="black" stroke-width="3"  />
<path d="M460 100 L480 100 M480 120 M460 120 L460 100 " fill="none" stroke="black" stroke-width="3"  />
<path d="M480 100 M500 100 L500 120 L480 120 M480 100 " fill="none" stroke="black" stroke-width="3"  />
<path d="M500 100 M520 100 L520 120 M500 120 L500 100 " fill="none" stroke="black" stroke-width="3"  />
<path d="M520 100 M540 100 M540 120 L520 120 L520 100 " fill="none" stroke="black" stroke-width="3"  />
<path d="M540 100 L560 100 L560 120 M540 120 M540 100 " fill="none" stroke="black" stroke-width="3"  />
<path d="M560 100 M580 100 L580 120 M560 120 L560 100 " fill="none" stroke="black" stroke-width="3"  />
<path d="M580 100 M600 100 L600 120 M580 120 L580 100 " fill="none" stroke="black" stroke-width="3"  />
<path d="M0 120 M20 120 L20 140 M0 140 L0 120 " fill="none" stroke="black" stroke-width="3"  />
<path d="M20 120 L40 120 M40 140 L20 140 L20 120 " fill="none" stroke="black" stroke-width="3"  />
<path d="M40 120 L60 120 L60 140 M40 140 M40 120 " fill="none" stroke="black" stroke-width="3"  />
<path d="M60 120 M80 120 M80 140 L60 140 L60 120 " fill="none" stroke="black" stroke-width="3"  />
<path d="M80 120 L100 120 M100 140 L80 140 M80 120 " fill="none" stroke="black" stroke-width="3"  />
<path d="M100 120 L120 120 M120 140 L100 140 M100 120 " fill="none" stroke="black" stroke-width="3"  />
<path d="M120 120 L140 120 L140 140 M120 140 M120 120 " fill="none" stroke="black" stroke-width="3"  />
<path d="M140 120 M160 120 L160 140 M140 140 L140 120 " fill="none" stroke="black" stroke-width="3"  />
<path d="M160 120 M180 120 L180 140 M160 140 L160 120 " fill="none" stroke="black" stroke-width="3"  />
<path d="M180 120 M200 120 L200 140 M180 140 L180 120 " fill="none" stroke="black" stroke-width="3"  />
<path d="M200 120 M220 120 M220 140 L200 140 L200 120 " fill="none" stroke="black" stroke-width="3"  />
<path d="M220 120 L240 120 L240 140 M220 140 M220 120 " fill="none" stroke="black" stroke-width="3"  />
<path d="M240 120 M260 120 M260 140 L240 140 L240 120 " fill="none" stroke="black" stroke-width="3"  />
<path d="M260 120 L280 120 M280 140 L260 140 M260 120 " fill="none" stroke="black" stroke-width="3"  />
<path d="M280 120 L300 120 L300 140 M280 140 M280 120 " fill="none" stroke="black" stroke-width="3"  />
<path d="M300 120 M320 120 M320 140 L300 140 L300 120 " fill="none" stroke="black" stroke-width="3"  />
<path d="M320 120 L340 120 M340 140 L320 140 M320 120 " fill="none" stroke="black" stroke-width="3"  />
<path d="M340 120 L360 120 M360 140 M340 140 M340 120 " fill="none" stroke="black" stroke-width="3"  />
<path d="M360 120 L380 120 L380 140 L360 140 M360 120 " fill="none" stroke="black" stroke-width="3"  />
<path d="M380 120 M400 120 L400 140 M380 140 L380 120 " fill="none" stroke="black" stroke-width="3"  />
<path d="M400 120 M420 120 L420 140 M400 140 L400 120 " fill="none" stroke="black" stroke-width="3"  />
<path d="M420 120 M440 120 L440 140 L420 140 L420 120 " fill="none" stroke="black" stroke-width="3"  />
<path d="M440 120 M460 120 L460 140 M440 140 L440 120 " fill="none" stroke="black" stroke-width="3"  />
<path d="M460 120 M480 120 M480 140 L460 140 L460 120 " fill="none" stroke="black" stroke-width="3"  />
<path d="M480 120 L500 120 M500 140 L480 140 M480 120 " fill="none" stroke="black" stroke-width="3"  />
<path d="M500 120 M520 120 L520 140 L500 140 M500 120 " fill="none" stroke="black" stroke-width="3"  />
<path d="M520 120 L540 120 L540 140 M520 140 L520 120 " fill="none" stroke="black" stroke-width="3"  />
<path d="M540 120 M560 120 L560 140 M540 140 L540 120 " fill="none" stroke="black" stroke-width="3"  />
<path d="M560 120 M580 120 L580 140 M560 140 L560 120 " fill="none" stroke="black" stroke-width="3"  />
<path d="M580 120 M600 120 L600 140 L580 140 L580 120 " fill="none" stroke="black" stroke-width="3"  />
<path d="M0 140 M20 140 M20 160 L0 160 L0 140 " fill="none" stroke="black" stroke-width="3"  />
<path d="M20 140 L40 140 L40 160 M20 160 M20 140 " fill="none" stroke="black" stroke-width="3"  />
<path d="M40 140 M60 140 M60 160 M40 160 L40 140 " fill="none" stroke="black" stroke-width="3"  />
<path d="M60 140 L80 140 M80 160 L60 160 M60 140 " fill="none" stroke="black" stroke-width="3"  />
<path d="M80 140 L100 140 M100 160 L80 160 M80 140 " fill="none" stroke="black" stroke-width="3"  />
<path d="M100 140 L120 140 M120 160 L100 160 M100 140 " fill="none" stroke="black" stroke-width="3"  />
<path d="M120 140 M140 140 M140 160 L120 160 M120 140 " fill="none" stroke="black" stroke-width="3"  />
<path d="M140 140 M160 140 L160 160 L140 160 M140 140 " fill="none" stroke="black" stroke-width="3"  />
<path d="M160 140 M180 140 M180 160 L160 160 L160 140 " fill="none" stroke="black" stroke-width="3"  />
<path d="M180 140 M200 140 M200 160 L180 160 M180 140 " fill="none" stroke="black" stroke-width="3"  />
<path d="M200 140 L220 140 L220 160 L200 160 M200 140 " fill="none" stroke="black" stroke-width="3"  />
<path d="M220 140 M240 140 L240 160 M220 160 L220 140 " fill="none" stroke="black" stroke-width="3"  />
<path d="M240 140 L260 140 M260 160 M240 160 L240 140 " fill="none" stroke="black" stroke-width="3"  />
<path d="M260 140 L280 140 L280 160 M260 160 M260 140 " fill="none" stroke="black" stroke-width="3"  />
<path d="M280 140 M300 140 L300 160 M280 160 L280 140 " fill="none" stroke="black" stroke-width="3"  />
<path d="M300 140 L320 140 M320 160 M300 160 L300 140 " fill="none" stroke="black" stroke-width="3"  />
<path d="M320 140 L340 140 M340 160 L320 160 M320 140 " fill="none" stroke="black" stroke-width="3"  />
<path d="M340 140 M360 140 L360 160 M340 160 M340 140 " fill="none" stroke="black" stroke-width="3"  />
<path d="M360 140 L380 140 M380 160 M360 160 L360 140 " fill="none" stroke="black" stroke-width="3"  />
<path d="M380 140 M400 140 L400 160 L380 160 M380 140 " fill="none" stroke="black" stroke-width="3"  />
<path d="M400 140 M420 140 L420 160 M400 160 L400 140 " fill="none" stroke="black" stroke-width="3"  />
<path d="M420 140 L440 140 M440 160 M420 160 L420 140 " fill="none" stroke="black" stroke-width="3"  />
<path d="M440 140 M460 140 L460 160 L440 160 M440 140 " fill="none" stroke="black" stroke-width="3"  />
<path d="M460 140 L480 140 M480 160 M460 160 L460 140 " fill="none" stroke="black" stroke-width="3"  />
<path d="M480 140 L500 140 M500 160 L480 160 M480 140 " fill="none" stroke="black" stroke-width="3"  />
<path d="M500 140 L520 140 M520 160 L500 160 M500 140 " fill="none" stroke="black" stroke-width="3"  />
<path d="M520 140 M540 140 L540 160 M520 160 M520 140 " fill="none" stroke="black" stroke-width="3"  />
<path d="M540 140 M560 140 L560 160 M540 160 L540 140 " fill="none" stroke="black" stroke-width="3"  />
<path d="M560 140 M580 140 M580 160 L560 160 L560 140 " fill="none" stroke="black" stroke-width="3"  />
<path d="M580 140 L600 140 L600 160 M580 160 M580 140 " fill="none" stroke="black" stroke-width="3"  />
<path d="M0 160 L20 160 M20 180 M0 180 L0 160 " fill="none" stroke="black" stroke-width="3"  />
<path d="M20 160 M40 160 L40 180 L20 180 M20 160 " fill="none" stroke="black" stroke-width="3"  />
<path d="M40 160 M60 160 M60 180 L40 180 L40 160 " fill="none" stroke="black" stroke-width="3"  />
<path d="M60 160 L80 160 L80 180 M60 180 M60 160 " fill="none" stroke="black" stroke-width="3"  />
<path d="M80 160 L100 160 M100 180 M80 180 L80 160 " fill="none" stroke="black" stroke-width="3"  />
<path d="M100 160 L120 160 M120 180 M100 180 M100 160 " fill="none" stroke="black" stroke-width="3"  />
<path d="M120 160 L140 160 L140 180 L120 180 M120 160 " fill="none" stroke="black" stroke-width="3"  />
<path d="M140 160 L160 160 M160 180 M140 180 L140 160 " fill="none" stroke="black" stroke-width="3"  />
<path d="M160 160 L180 160 M180 180 L160 180 M160 160 " fill="none" stroke="black" stroke-width="3"  />
<path d="M180 160 L200 160 M200 180 L180 180 M180 160 " fill="none" stroke="black" stroke-width="3"  />
<path d="M200 160 L220 160 M220 180 L200 180 M200 160 " fill="none" stroke="black" stroke-width="3"  />
<path d="M220 160 M240 160 L240 180 L220 180 M220 160 " fill="none" stroke="black" stroke-width="3"  />
<path d="M240 160 M260 160 L260 180 M240 180 L240 160 " fill="none" stroke="black" stroke-width="3"  />
<path d="M260 160 M280 160 L280 180 L260 180 L260 160 " fill="none" stroke="black" stroke-width="3"  />
<path d="M280 160 M300 160 M300 180 L280 180 L280 160 " fill="none" stroke="black" stroke-width="3"  />
<path d="M300 160 M320 160 L320 180 L300 180 M300 160 " fill="none" stroke="black" stroke-width="3"  />
<path d="M320 160 L340 160 M340 180 M320 180 L320 160 " fill="none" stroke="black" stroke-width="3"  />
<path d="M340 160 M360 160 L360 180 L340 180 M340 160 " fill="none" stroke="black" stroke-width="3"  />
<path d="M360 160 M380 160 L380 180 M360 180 L360 160 " fill="none" stroke="black" stroke-width="3"  />
<path d="M380 160 L400 160 M400 180 L380 180 L380 160 " fill="none" stroke="black" stroke-width="3"  />
<path d="M400 160 M420 160 L420 180 M400 180 M400 160 " fill="none" stroke="black" stroke-width="3"  />
<path d="M420 160 M440 160 L440 180 M420 180 L420 160 " fill="none" stroke="black" stroke-width="3"  />
<path d="M440 160 L460 160 M460 180 M440 180 L440 160 " fill="none" stroke="black" stroke-width="3"  />
<path d="M460 160 M480 160 M480 180 L460 180 M460 160 " fill="none" stroke="black" stroke-width="3"  />
<path d="M480 160 L500 160 L500 180 M480 180 M480 160 " fill="none" stroke="black" stroke-width="3"  />
<path d="M500 160 L520 160 L520 180 M500 180 L500 160 " fill="none" stroke="black" stroke-width="3"  />
<path d="M520 160 M540 160 L540 180 M520 180 L520 160 " fill="none" stroke="black" stroke-width="3"  />
<path d="M540 160 M560 160 M560 180 L540 180 L540 160 " fill="none" stroke="black" stroke-width="3"  />
<path d="M560 160 L580 160 M580 180 L560 180 M560 160 " fill="none" stroke="black" stroke-width="3"  />
<path d="M580 160 M600 160 L600 180 M580 180 M580 160 " fill="none" stroke="black" stroke-width="3"  />
<path d="M0 180 M20 180 L20 200 M0 200 L0 180 " fill="none" stroke="black" stroke-width="3"  />
<path d="M20 180 L40 180 M40 200 M20 200 L20 180 " fill="none" stroke="black" stroke-width="3"  />
<path d="M40 180 L60 180 M60 200 L40 200 M40 180 " fill="none" stroke="black" stroke-width="3"  />
<path d="M60 180 M80 180 L80 200 L60 200 M60 180 " fill="none" stroke="black" stroke-width="3"  />
<path d="M80 180 M100 180 L100 200 M80 200 L80 180 " fill="none" stroke="black" stroke-width="3"  />
<path d="M100 180 M120 180 L120 200 M100 200 L100 180 " fill="none" stroke="black" stroke-width="3"  />
<path d="M120 180 L140 180 M140 200 M120 200 L120 180 " fill="none" stroke="black" stroke-width="3"  />
<path d="M140 180 M160 180 L160 200 L140 200 M140 180 " fill="none" stroke="black" stroke-width="3"  />
<path d="M160 180 L180 180 M180 200 L160 200 L160 180 " fill="none" stroke="black" stroke-width="3"  />
<path d="M180 180 L200 180 M200 200 L180 200 M180 180 " fill="none" stroke="black" stroke-width="3"  />
<path d="M200 180 L220 180 M220 200 L200 200 M200 180 " fill="none" stroke="black" stroke-width="3"  />
<path d="M220 180 L240 180 L240 200 M220 200 M220 180 " fill="none" stroke="black" stroke-width="3"  />
<path d="M240 180 M260 180 M260 200 M240 200 L240 180 " fill="none" stroke="black" stroke-width="3"  />
<path d="M260 180 L280 180 M280 200 M260 200 M260 180 " fill="none" stroke="black" stroke-width="3"  />
<path d="M280 180 L300 180 L300 200 L280 200 M280 180 " fill="none" stroke="black" stroke-width="3"  />
<path d="M300 180 L320 180 M320 200 M300 200 L300 180 " fill="none" stroke="black" stroke-width="3"  />
<path d="M320 180 M340 180 M340 200 L320 200 M320 180 " fill="none" stroke="black" stroke-width="3"  />
<path d="M340 180 L360 180 L360 200 L340 200 M340 180 " fill="none" stroke="black" stroke-width="3"  />
<path d="M360 180 M380 180 M380 200 L360 200 L360 180 " fill="none" stroke="black" stroke-width="3"  />
<path d="M380 180 L400 180 L400 200 M380 200 M380 180 " fill="none" stroke="black" stroke-width="3"  />
<path d="M400 180 M420 180 M420 200 L400 200 L400 180 " fill="none" stroke="black" stroke-width="3"  />
<path d="M420 180 M440 180 L440 200 L420 200 M420 180 " fill="none" stroke="black" stroke-width="3"  />
<path d="M440 180 M460 180 L460 200 M440 200 L440 180 " fill="none" stroke="black" stroke-width="3"  />
<path d="M460 180 L480 180 M480 200 M460 200 L460 180 " fill="none" stroke="black" stroke-width="3"  />
<path d="M480 180 M500 180 L500 200 L480 200 M480 180 " fill="none" stroke="black" stroke-width="3"  />
<path d="M500 180 M520 180 M520 200 L500 200 L500 180 " fill="none" stroke="black" stroke-width="3"  />
<path d="M520 180 M540 180 L540 200 L520 200 M520 180 " fill="none" stroke="black" stroke-width="3"  />
<path d="M540 180 L560 180 M560 200 M540 200 L540 180 " fill="none" stroke="black" stroke-width="3"  />
<path d="M560 180 L580 180 M580 200 L560 200 M560 180 " fill="none" stroke="black" stroke-width="3"  />
<path d="M580 180 M600 180 L600 200 L580 200 M580 180 " fill="none" stroke="black" stroke-width="3"  />
<path d="M0 200 M20 200 L20 220 M0 220 L0 200 " fill="none" stroke="black" stroke-width="3"  />
<path d="M20 200 M40 200 M40 220 L20 220 L20 200 " fill="none" stroke="black" stroke-width="3"  />
<path d="M40 200 L60 200 M60 220 L40 220 M40 200 " fill="none" stroke="black" stroke-width="3"  />
<path d="M60 200 L80 200 L80 220 M60 220 M60 200 " fill="none" stroke="black" stroke-width="3"  />
<path d="M80 200 M100 200 L100 220 L80 220 L80 200 " fill="none" stroke="black" stroke-width="3"  />
<path d="M100 200 M120 200 L120 220 M100 220 L100 200 " fill="none" stroke="black" stroke-width="3"  />
<path d="M120 200 M140 200 L140 220 M120 220 L120 200 " fill="none" stroke="black" stroke-width="3"  />
<path d="M140 200 L160 200 M160 220 M140 220 L140 200 " fill="none" stroke="black" stroke-width="3"  />
<path d="M160 200 L180 200 M180 220 L160 220 M160 200 " fill="none" stroke="black" stroke-width="3"  />
<path d="M180 200 L200 200 L200 220 M180 220 M180 200 " fill="none" stroke="black" stroke-width="3"  />
<path d="M200 200 L220 200 M220 220 M200 220 L200 200 " fill="none" stroke="black" stroke-width="3"  />
<path d="M220 200 M240 200 L240 220 L220 220 M220 200 " fill="none" stroke="black" stroke-width="3"  />
<path d="M240 200 M260 200 L260 220 M240 220 L240 200 " fill="none" stroke="black" stroke-width="3"  />
<path d="M260 200 M280 200 L280 220 M260 220 L260 200 " fill="none" stroke="black" stroke-width="3"  />
<path d="M280 200 L300 200 M300 220 M280 220 L280 200 " fill="none" stroke="black" stroke-width="3"  />
<path d="M300 200 M320 200 M320 220 L300 220 M300 200 " fill="none" stroke="black" stroke-width="3"  />
<path d="M320 200 L340 200 L340 220 L320 220 M320 200 " fill="none" stroke="black" stroke-width="3"  />
<path d="M340 200 L360 200 M360 220 M340 220 L340 200 " fill="none" stroke="black" stroke-width="3"  />
<path d="M360 200 L380 200 L380 220 M360 220 M360 200 " fill="none" stroke="black" stroke-width="3"  />
<path d="M380 200 M400 200 L400 220 M380 220 L380 200 " fill="none" stroke="black" stroke-width="3"  />
<path d="M400 200 L420 200 L420 220 M400 220 L400 200 " fill="none" stroke="black" stroke-width="3"  />
<path d="M420 200 L440 200 M440 220 M420 220 L420 200 " fill="none" stroke="black" stroke-width="3"  />
<path d="M440 200 M460 200 L460 220 L440 220 M440 200 " fill="none" stroke="black" stroke-width="3"  />
<path d="M460 200 M480 200 M480 220 L460 220 L460 200 " fill="none" stroke="black" stroke-width="3"  />
<path d="M480 200 L500 200 M500 220 L480 220 M480 200 " fill="none" stroke="black" stroke-width="3"  />
<path d="M500 200 L520 200 L520 220 M500 220 M500 200 " fill="none" stroke="black" stroke-width="3"  />
<path d="M520 200 L540 200 M540 220 M520 220 L520 200 " fill="none" stroke="black" stroke-width="3"  />
<path d="M540 200 M560 200 L560 220 L540 220 M540 200 " fill="none" stroke="black" stroke-width="3"  />
<path d="M560 200 L580 200 M580 220 M560 220 L560 200 " fill="none" stroke="black" stroke-width="3"  />
<path d="M580 200 L600 200 L600 220 M580 220 M580 200 " fill="none" stroke="black" stroke-width="3"  />
<path d="M0 220 M20 220 M20 240 L0 240 L0 220 " fill="none" stroke="black" stroke-width="3"  />
<path d="M20 220 L40 220 L40 240 M20 240 M20 220 " fill="none" stroke="black" stroke-width="3"  />
<path d="M40 220 L60 220 L60 240 M40 240 L40 220 " fill="none" stroke="black" stroke-width="3"  />
<path d="M60 220 M80 220 M80 240 M60 240 L60 220 " fill="none" stroke="black" stroke-width="3"  />
<path d="M80 220 L100 220 M100 240 L80 240 M80 220 " fill="none" stroke="black" stroke-width="3"  />
<path d="M100 220 M120 220 L120 240 L100 240 M100 220 " fill="none" stroke="black" stroke-width="3"  />
<path d="M120 220 M140 220 M140 240 L120 240 L120 220 " fill="none" stroke="black" stroke-width="3"  />
<path d="M140 220 M160 220 L160 240 L140 240 M140 220 " fill="none" stroke="black" stroke-width="3"  />
<path d="M160 220 L180 220 M180 240 M160 240 L160 220 " fill="none" stroke="black" stroke-width="3"  />
<path d="M180 220 M200 220 L200 240 L180 240 M180 220 " fill="none" stroke="black" stroke-width="3"  />
<path d="M200 220 M220 220 M220 240 L200 240 L200 220 " fill="none" stroke="black" stroke-width="3"  />
<path d="M220 220 L240 220 M240 240 L220 240 M220 220 " fill="none" stroke="black" stroke-width="3"  />
<path d="M240 220 M260 220 L260 240 M240 240 M240 220 " fill="none" stroke="black" stroke-width="3"  />
<path d="M260 220 M280 220 M280 240 L260 240 L260 220 " fill="none" stroke="black" stroke-width="3"  />
<path d="M280 220 M300 220 L300 240 L280 240 M280 220 " fill="none" stroke="black" stroke-width="3"  />
<path d="M300 220 L320 220 M320 240 M300 240 L300 220 " fill="none" stroke="black" stroke-width="3"  />
<path d="M320 220 L340 220 M340 240 L320 240 M320 220 " fill="none" stroke="black" stroke-width="3"  />
<path d="M340 220 M360 220 L360 240 L340 240 M340 220 " fill="none" stroke="black" stroke-width="3"  />
<path d="M360 220 M380 220 M380 240 L360 240 L360 220 " fill="none" stroke="black" stroke-width="3"  />
<path d="M380 220 M400 220 L400 240 L380 240 M380 220 " fill="none" stroke="black" stroke-width="3"  />
<path d="M400 220 M420 220 M420 240 M400 240 L400 220 " fill="none" stroke="black" stroke-width="3"  />
<path d="M420 220 M440 220 L440 240 L420 240 M420 220 " fill="none" stroke="black" stroke-width="3"  />
<path d="M440 220 L460 220 L460 240 M440 240 L440 220 " fill="none" stroke="black" stroke-width="3"  />
<path d="M460 220 L480 220 M480 240 M460 240 L460 220 " fill="none" stroke="black" stroke-width="3"  />
<path d="M480 220 L500 220 L500 240 M480 240 M480 220 " fill="none" stroke="black" stroke-width="3"  />
<path d="M500 220 M520 220 M520 240 L500 240 L500 220 " fill="none" stroke="black" stroke-width="3"  />
<path d="M520 220 M540 220 L540 240 L520 240 M520 220 " fill="none" stroke="black" stroke-width="3"  />
<path d="M540 220 L560 220 M560 240 M540 240 L540 220 " fill="none" stroke="black" stroke-width="3"  />
<path d="M560 220 M580 220 L580 240 L560 240 M560 220 " fill="none" stroke="black" stroke-width="3"  />
<path d="M580 220 M600 220 L600 240 L580 240 L580 220 " fill="none" stroke="black" stroke-width="3"  />
<path d="M0 240 L20 240 M20 260 M0 260 L0 240 " fill="none" stroke="black" stroke-width="3"  />
<path d="M20 240 M40 240 L40 260 M20 260 M20 240 " fill="none" stroke="black" stroke-width="3"  />
<path d="M40 240 M60 240 M60 260 L40 260 L40 240 " fill="none" stroke="black" stroke-width="3"  />
<path d="M60 240 M80 240 L80 260 L60 260 M60 240 " fill="none" stroke="black" stroke-width="3"  />
<path d="M80 240 L100 240 M100 260 M80 260 L80 240 " fill="none" stroke="black" stroke-width="3"  />
<path d="M100 240 L120 240 M120 260 L100 260 M100 240 " fill="none" stroke="black" stroke-width="3"  />
<path d="M120 240 L140 240 M140 260 L120 260 M120 240 " fill="none" stroke="black" stroke-width="3"  />
<path d="M140 240 L160 240 M160 260 L140 260 M140 240 " fill="none" stroke="black" stroke-width="3"  />
<path d="M160 240 M180 240 L180 260 L160 260 M160 240 " fill="none" stroke="black" stroke-width="3"  />
<path d="M180 240 L200 240 M200 260 L180 260 L180 240 " fill="none" stroke="black" stroke-width="3"  />
<path d="M200 240 L220 240 M220 260 M200 260 M200 240 " fill="none" stroke="black" stroke-width="3"  />
<path d="M220 240 L240 240 L240 260 M220 260 M220 240 " fill="none" stroke="black" stroke-width="3"  />
<path d="M240 240 M260 240 M260 260 L240 260 L240 240 " fill="none" stroke="black" stroke-width="3"  />
<path d="M260 240 L280 240 L280 260 L260 260 M260 240 " fill="none" stroke="black" stroke-width="3"  />
<path d="M280 240 L300 240 M300 260 M280 260 L280 240 " fill="none" stroke="black" stroke-width="3"  />
<path d="M300 240 M320 240 L320 260 L300 260 M300 240 " fill="none" stroke="black" stroke-width="3"  />
<path d="M320 240 L340 240 M340 260 M320 260 L320 240 " fill="none" stroke="black" stroke-width="3"  />
<path d="M340 240 L360 240 L360 260 M340 260 M340 240 " fill="none" stroke="black" stroke-width="3"  />
<path d="M360 240 L380 240 M380 260 M360 260 L360 240 " fill="none" stroke="black" stroke-width="3"  />
<path d="M380 240 L400 240 M400 260 L380 260 M380 240 " fill="none" stroke="black" stroke-width="3"  />
<path d="M400 240 M420 240 L420 260 L400 260 M400 240 " fill="none" stroke="black" stroke-width="3"  />
<path d="M420 240 L440 240 L440 260 M420 260 L420 240 " fill="none" stroke="black" stroke-width="3"  />
<path d="M440 240 M460 240 M460 260 M440 260 L440 240 " fill="none" stroke="black" stroke-width="3"  />
<path d="M460 240 M480 240 L480 260 L460 260 M460 240 " fill="none" stroke="black" stroke-width="3"  />
<path d="M480 240 M500 240 M500 260 M480 260 L480 240 " fill="none" stroke="black" stroke-width="3"  />
<path d="M500 240 L520 240 L520 260 M500 260 M500 240 " fill="none" stroke="black" stroke-width="3"  />
<path d="M520 240 L540 240 M540 260 L520 260 L520 240 " fill="none" stroke="black" stroke-width="3"  />
<path d="M540 240 M560 240 M560 260 L540 260 M540 240 " fill="none" stroke="black" stroke-width="3"  />
<path d="M560 240 L580 240 M580 260 L560 260 M560 240 " fill="none" stroke="black" stroke-width="3"  />
<path d="M580 240 L600 240 L600 260 M580 260 M580 240 " fill="none" stroke="black" stroke-width="3"  />
<path d="M0 260 M20 260 L20 280 M0 280 L0 260 " fill="none" stroke="black" stroke-width="3"  />
<path d="M20 260 M40 260 L40 280 L20 280 L20 260 " fill="none" stroke="black" stroke-width="3"  />
<path d="M40 260 L60 260 M60 280 M40 280 L40 260 " fill="none" stroke="black" stroke-width="3"  />
<path d="M60 260 L80 260 L80 280 M60 280 M60 260 " fill="none" stroke="black" stroke-width="3"  />
<path d="M80 260 M100 260 M100 280 L80 280 L80 260 " fill="none" stroke="black" stroke-width="3"  />
<path d="M100 260 L120 260 M120 280 L100 280 M100 260 " fill="none" stroke="black" stroke-width="3"  />
<path d="M120 260 L140 260 L140 280 M120 280 M120 260 " fill="none" stroke="black" stroke-width="3"  />
<path d="M140 260 L160 260 M160 280 M140 280 L140 260 " fill="none" stroke="black" stroke-width="3"  />
<path d="M160 260 L180 260 M180 280 M160 280 M160 260 " fill="none" stroke="black" stroke-width="3"  />
<path d="M180 260 L200 260 M200 280 L180 280 M180 260 " fill="none" stroke="black" stroke-width="3"  />
<path d="M200 260 M220 260 L220 280 L200 280 M200 260 " fill="none" stroke="black" stroke-width="3"  />
<path d="M220 260 M240 260 L240 280 M220 280 L220 260 " fill="none" stroke="black" stroke-width="3"  />
<path d="M240 260 L260 260 M260 280 M240 280 L240 260 " fill="none" stroke="black" stroke-width="3"  />
<path d="M260 260 L280 260 M280 280 L260 280 M260 260 " fill="none" stroke="black" stroke-width="3"  />
<path d="M280 260 M300 260 L300 280 L280 280 M280 260 " fill="none" stroke="black" stroke-width="3"  />
<path d="M300 260 L320 260 M320 280 M300 280 L300 260 " fill="none" stroke="black" stroke-width="3"  />
<path d="M320 260 M340 260 L340 280 L320 280 M320 260 " fill="none" stroke="black" stroke-width="3"  />
<path d="M340 260 M360 260 M360 280 L340 280 L340 260 " fill="none" stroke="black" stroke-width="3"  />
<path d="M360 260 M380 260 L380 280 L360 280 M360 260 " fill="none" stroke="black" stroke-width="3"  />
<path d="M380 260 L400 260 M400 280 M380 280 L380 260 " fill="none" stroke="black" stroke-width="3"  />
<path d="M400 260 L420 260 M420 280 M400 280 M400 260 " fill="none" stroke="black" stroke-width="3"  />
<path d="M420 260 M440 260 L440 280 L420 280 M420 260 " fill="none" stroke="black" stroke-width="3"  />
<path d="M440 260 M460 260 L460 280 M440 280 L440 260 " fill="none" stroke="black" stroke-width="3"  />
<path d="M460 260 L480 260 L480 280 M460 280 L460 260 " fill="none" stroke="black" stroke-width="3"  />
<path d="M480 260 M500 260 L500 280 M480 280 L480 260 " fill="none" stroke="black" stroke-width="3"  />
<path d="M500 260 M520 260 M520 280 L500 280 L500 260 " fill="none" stroke="black" stroke-width="3"  />
<path d="M520 260 L540 260 M540 280 L520 280 M520 260 " fill="none" stroke="black" stroke-width="3"  />
<path d="M540 260 L560 260 L560 280 M540 280 M540 260 " fill="none" stroke="black" stroke-width="3"  />
<path d="M560 260 L580 260 M580 280 M560 280 L560 260 " fill="none" stroke="black" stroke-width="3"  />
<path d="M580 260 M600 260 L600 280 L580 280 M580 260 " fill="none" stroke="black" stroke-width="3"  />
<path d="M0 280 M20 280 M20 300 L0 300 L0 280 " fill="none" stroke="black" stroke-width="3"  />
<path d="M20 280 L40 280 M40 300 L20 300 M20 280 " fill="none" stroke="black" stroke-width="3"  />
<path d="M40 280 M60 280 L60 300 L40 300 M40 280 " fill="none" stroke="black" stroke-width="3"  />
<path d="M60 280 M80 280 M80 300 M60 300 L60 280 " fill="none" stroke="black" stroke-width="3"  />
<path d="M80 280 L100 280 L100 300 M80 300 M80 280 " fill="none" stroke="black" stroke-width="3"  />
<path d="M100 280 L120 280 M120 300 M100 300 L100 280 " fill="none" stroke="black" stroke-width="3"  />
<path d="M120 280 M140 280 L140 300 L120 300 M120 280 " fill="none" stroke="black" stroke-width="3"  />
<path d="M140 280 M160 280 L160 300 L140 300 L140 280 " fill="none" stroke="black" stroke-width="3"  />
<path d="M160 280 M180 280 L180 300 M160 300 L160 280 " fill="none" stroke="black" stroke-width="3"  />
<path d="M180 280 L200 280 M200 300 M180 300 L180 280 " fill="none" stroke="black" stroke-width="3"  />
<path d="M200 280 L220 280 L220 300 M200 300 M200 280 " fill="none" stroke="black" stroke-width="3"  />
<path d="M220 280 M240 280 M240 300 L220 300 L220 280 " fill="none" stroke="black" stroke-width="3"  />
<path d="M240 280 M260 280 L260 300 L240 300 M240 280 " fill="none" stroke="black" stroke-width="3"  />
<path d="M260 280 L280 280 M280 300 M260 300 L260 280 " fill="none" stroke="black" stroke-width="3"  />
<path d="M280 280 L300 280 L300 300 L280 300 M280 280 " fill="none" stroke="black" stroke-width="3"  />
<path d="M300 280 M320 280 M320 300 L300 300 L300 280 " fill="none" stroke="black" stroke-width="3"  />
<path d="M320 280 L340 280 L340 300 M320 300 M320 280 " fill="none" stroke="black" stroke-width="3"  />
<path d="M340 280 L360 280 L360 300 M340 300 L340 280 " fill="none" stroke="black" stroke-width="3"  />
<path d="M360 280 L380 280 M380 300 M360 300 L360 280 " fill="none" stroke="black" stroke-width="3"  />
<path d="M380 280 M400 280 L400 300 L380 300 M380 280 " fill="none" stroke="black" stroke-width="3"  />
<path d="M400 280 M420 280 M420 300 L400 300 L400 280 " fill="none" stroke="black" stroke-width="3"  />
<path d="M420 280 L440 280 M440 300 L420 300 M420 280 " fill="none" stroke="black" stroke-width="3"  />
<path d="M440 280 M460 280 M460 300 L440 300 M440 280 " fill="none" stroke="black" stroke-width="3"  />
<path d="M460 280 M480 280 L480 300 L460 300 M460 280 " fill="none" stroke="black" stroke-width="3"  />
<path d="M480 280 M500 280 L500 300 M480 300 L480 280 " fill="none" stroke="black" stroke-width="3"  />
<path d="M500 280 L520 280 M520 300 M500 300 L500 280 " fill="none" stroke="black" stroke-width="3"  />
<path d="M520 280 L540 280 M540 300 L520 300 M520 280 " fill="none" stroke="black" stroke-width="3"  />
<path d="M540 280 M560 280 L560 300 L540 300 M540 280 " fill="none" stroke="black" stroke-width="3"  />
<path d="M560 280 M580 280 M580 300 M560 300 L560 280 " fill="none" stroke="black" stroke-width="3"  />
<path d="M580 280 L600 280 L600 300 M580 300 M580 280 " fill="none" stroke="black" stroke-width="3"  />
<path d="M0 300 L20 300 M20 320 M0 320 L0 300 " fill="none" stroke="black" stroke-width="3"  />
<path d="M20 300 L40 300 M40 320 L20 320 M20 300 " fill="none" stroke="black" stroke-width="3"  />
<path d="M40 300 L60 300 M60 320 L40 320 M40 300 " fill="none" stroke="black" stroke-width="3"  />
<path d="M60 300 M80 300 L80 320 L60 320 M60 300 " fill="none" stroke="black" stroke-width="3"  />
<path d="M80 300 M100 300 L100 320 M80 320 L80 300 " fill="none" stroke="black" stroke-width="3"  />
<path d="M100 300 M120 300 M120 320 L100 320 L100 300 " fill="none" stroke="black" stroke-width="3"  />
<path d="M120 300 L140 300 M140 320 L120 320 M120 300 " fill="none" stroke="black" stroke-width="3"  />
<path d="M140 300 L160 300 L160 320 M140 320 M140 300 " fill="none" stroke="black" stroke-width="3"  />
<path d="M160 300 M180 300 L180 320 M160 320 L160 300 " fill="none" stroke="black" stroke-width="3"  />
<path d="M180 300 M200 300 L200 320 M180 320 L180 300 " fill="none" stroke="black" stroke-width="3"  />
<path d="M200 300 M220 300 M220 320 L200 320 L200 300 " fill="none" stroke="black" stroke-width="3"  />
<path d="M220 300 L240 300 M240 320 L220 320 M220 300 " fill="none" stroke="black" stroke-width="3"  />
<path d="M240 300 L260 300 L260 320 L240 320 M240 300 " fill="none" stroke="black" stroke-width="3"  />
<path d="M260 300 M280 300 M280 320 M260 320 L260 300 " fill="none" stroke="black" stroke-width="3"  />
<path d="M280 300 L300 300 M300 320 L280 320 M280 300 " fill="none" stroke="black" stroke-width="3"  />
<path d="M300 300 L320 300 M320 320 L300 320 M300 300 " fill="none" stroke="black" stroke-width="3"  />
<path d="M320 300 M340 300 L340 320 L320 320 M320 300 " fill="none" stroke="black" stroke-width="3"  />
<path d="M340 300 M360 300 M360 320 L340 320 L340 300 " fill="none" stroke="black" stroke-width="3"  />
<path d="M360 300 M380 300 M380 320 L360 320 M360 300 " fill="none" stroke="black" stroke-width="3"  />
<path d="M380 300 L400 300 M400 320 L380 320 M380 300 " fill="none" stroke="black" stroke-width="3"  />
<path d="M400 300 L420 300 M420 320 L400 320 M400 300 " fill="none" stroke="black" stroke-width="3"  />
<path d="M420 300 L440 300 M440 320 L420 320 M420 300 " fill="none" stroke="black" stroke-width="3"  />
<path d="M440 300 L460 300 L460 320 M440 320 M440 300 " fill="none" stroke="black" stroke-width="3"  />
<path d="M460 300 L480 300 M480 320 M460 320 L460 300 " fill="none" stroke="black" stroke-width="3"  />
<path d="M480 300 M500 300 L500 320 L480 320 M480 300 " fill="none" stroke="black" stroke-width="3"  />
<path d="M500 300 M520 300 L520 320 M500 320 L500 300 " fill="none" stroke="black" stroke-width="3"  />
<path d="M520 300 L540 300 M540 320 L520 320 L520 300 " fill="none" stroke="black" stroke-width="3"  />
<path d="M540 300 L560 300 M560 320 L540 320 M540 300 " fill="none" stroke="black" stroke-width="3"  />
<path d="M560 300 M580 300 L580 320 L560 320 M560 300 " fill="none" stroke="black" stroke-width="3"  />
<path d="M580 300 M600 300 L600 320 M580 320 L580 300 " fill="none" stroke="black" stroke-width="3"  />
<path d="M0 320 M20 320 M20 340 M0 340 L0 320 " fill="none" stroke="black" stroke-width="3"  />
<path d="M20 320 L40 320 L40 340 M20 340 M20 320 " fill="none" stroke="black" stroke-width="3"  />
<path d="M40 320 L60 320 M60 340 L40 340 L40 320 " fill="none" stroke="black" stroke-width="3"  />
<path d="M60 320 L80 320 M80 340 L60 340 M60 320 " fill="none" stroke="black" stroke-width="3"  />
<path d="M80 320 M100 320 M100 340 L80 340 M80 320 " fill="none" stroke="black" stroke-width="3"  />
<path d="M100 320 L120 320 M120 340 L100 340 M100 320 " fill="none" stroke="black" stroke-width="3"  />
<path d="M120 320 L140 320 L140 340 L120 340 M120 320 " fill="none" stroke="black" stroke-width="3"  />
<path d="M140 320 M160 320 M160 340 L140 340 L140 320 " fill="none" stroke="black" stroke-width="3"  />
<path d="M160 320 M180 320 L180 340 L160 340 M160 320 " fill="none" stroke="black" stroke-width="3"  />
<path d="M180 320 M200 320 M200 340 M180 340 L180 320 " fill="none" stroke="black" stroke-width="3"  />
<path d="M200 320 L220 320 M220 340 L200 340 M200 320 " fill="none" stroke="black" stroke-width="3"  />
<path d="M220 320 L240 320 M240 340 L220 340 M220 320 " fill="none" stroke="black" stroke-width="3"  />
<path d="M240 320 L260 320 L260 340 M240 340 M240 320 " fill="none" stroke="black" stroke-width="3"  />
<path d="M260 320 M280 320 M280 340 L260 340 L260 320 " fill="none" stroke="black" stroke-width="3"  />
<path d="M280 320 L300 320 M300 340 L280 340 M280 320 " fill="none" stroke="black" stroke-width="3"  />
<path d="M300 320 L320 320 M320 340 L300 340 M300 320 " fill="none" stroke="black" stroke-width="3"  />
<path d="M320 320 L340 320 M340 340 L320 340 M320 320 " fill="none" stroke="black" stroke-width="3"  />
<path d="M340 320 L360 320 L360 340 M340 340 M340 320 " fill="none" stroke="black" stroke-width="3"  />
<path d="M360 320 L380 320 M380 340 M360 340 L360 320 " fill="none" stroke="black" stroke-width="3"  />
<path d="M380 320 L400 320 L400 340 M380 340 M380 320 " fill="none" stroke="black" stroke-width="3"  />
<path d="M400 320 L420 320 M420 340 M400 340 L400 320 " fill="none" stroke="black" stroke-width="3"  />
<path d="M420 320 L440 320 L440 340 L420 340 M420 320 " fill="none" stroke="black" stroke-width="3"  />
<path d="M440 320 M460 320 L460 340 M440 340 L440 320 " fill="none" stroke="black" stroke-width="3"  />
<path d="M460 320 M480 320 M480 340 L460 340 L460 320 " fill="none" stroke="black" stroke-width="3"  />
<path d="M480 320 L500 320 L500 340 M480 340 M480 320 " fill="none" stroke="black" stroke-width="3"  />
<path d="M500 320 M520 320 M520 340 L500 340 L500 320 " fill="none" stroke="black" stroke-width="3"  />
<path d="M520 320 L540 320 M540 340 L520 340 M520 320 " fill="none" stroke="black" stroke-width="3"  />
<path d="M540 320 L560 320 M560 340 L540 340 M540 320 " fill="none" stroke="black" stroke-width="3"  />
<path d="M560 320 L580 320 L580 340 M560 340 M560 320 " fill="none" stroke="black" stroke-width="3"  />
<path d="M580 320 M600 320 L600 340 M580 340 L580 320 " fill="none" stroke="black" stroke-width="3"  />
<path d="M0 340 M20 340 L20 360 M0 360 L0 340 " fill="none" stroke="black" stroke-width="3"  />
<path d="M20 340 M40 340 M40 360 L20 360 L20 340 " fill="none" stroke="black" stroke-width="3"  />
<path d="M40 340 L60 340 L60 360 M40 360 M40 340 " fill="none" stroke="black" stroke-width="3"  />
<path d="M60 340 L80 340 M80 360 M60 360 L60 340 " fill="none" stroke="black" stroke-width="3"  />
<path d="M80 340 L100 340 M100 360 L80 360 M80 340 " fill="none" stroke="black" stroke-width="3"  />
<path d="M100 340 L120 340 M120 360 L100 360 M100 340 " fill="none" stroke="black" stroke-width="3"  />
<path d="M120 340 L140 340 M140 360 L120 360 M120 340 " fill="none" stroke="black" stroke-width="3"  />
<path d="M140 340 L160 340 M160 360 L140 360 M140 340 " fill="none" stroke="black" stroke-width="3"  />
<path d="M160 340 L180 340 M180 360 L160 360 M160 340 " fill="none" stroke="black" stroke-width="3"  />
<path d="M180 340 M200 340 L200 360 L180 360 M180 340 " fill="none" stroke="black" stroke-width="3"  />
<path d="M200 340 L220 340 M220 360 M200 360 L200 340 " fill="none" stroke="black" stroke-width="3"  />
<path d="M220 340 L240 340 M240 360 L220 360 M220 340 " fill="none" stroke="black" stroke-width="3"  />
<path d="M240 340 M260 340 L260 360 L240 360 M240 340 " fill="none" stroke="black" stroke-width="3"  />
<path d="M260 340 L280 340 M280 360 M260 360 L260 340 " fill="none" stroke="black" stroke-width="3"  />
<path d="M280 340 L300 340 M300 360 L280 360 M280 340 " fill="none" stroke="black" stroke-width="3"  />
<path d="M300 340 L320 340 M320 360 L300 360 M300 340 " fill="none" stroke="black" stroke-width="3"  />
<path d="M320 340 L340 340 L340 360 M320 360 M320 340 " fill="none" stroke="black" stroke-width="3"  />
<path d="M340 340 M360 340 M360 360 L340 360 L340 340 " fill="none" stroke="black" stroke-width="3"  />
<path d="M360 340 M380 340 L380 360 L360 360 M360 340 " fill="none" stroke="black" stroke-width="3"  />
<path d="M380 340 M400 340 L400 360 M380 360 L380 340 " fill="none" stroke="black" stroke-width="3"  />
<path d="M400 340 M420 340 M420 360 M400 360 L400 340 " fill="none" stroke="black" stroke-width="3"  />
<path d="M420 340 L440 340 L440 360 M420 360 M420 340 " fill="none" stroke="black" stroke-width="3"  />
<path d="M440 340 M460 340 L460 360 M440 360 L440 340 " fill="none" stroke="black" stroke-width="3"  />
<path d="M460 340 L480 340 L480 360 M460 360 L460 340 " fill="none" stroke="black" stroke-width="3"  />
<path d="M480 340 M500 340 L500 360 M480 360 L480 340 " fill="none" stroke="black" stroke-width="3"  />
<path d="M500 340 L520 340 M520 360 L500 360 L500 340 " fill="none" stroke="black" stroke-width="3"  />
<path d="M520 340 L540 340 M540 360 L520 360 M520 340 " fill="none" stroke="black" stroke-width="3"  />
<path d="M540 340 L560 340 L560 360 M540 360 M540 340 " fill="none" stroke="black" stroke-width="3"  />
<path d="M560 340 M580 340 M580 360 L560 360 L560 340 " fill="none" stroke="black" stroke-width="3"  />
<path d="M580 340 M600 340 L600 360 M580 360 M580 340 " fill="none" stroke="black" stroke-width="3"  />
<path d="M0 360 M20 360 L20 380 M0 380 L0 360 " fill="none" stroke="black" stroke-width="3"  />
<path d="M20 360 L40 360 L40 380 M20 380 L20 360 " fill="none" stroke="black" stroke-width="3"  />
<path d="M40 360 M60 360 L60 380 M40 380 L40 360 " fill="none" stroke="black" stroke-width="3"  />
<path d="M60 360 M80 360 M80 380 L60 380 L60 360 " fill="none" stroke="black" stroke-width="3"  />
<path d="M80 360 L100 360 M100 380 L80 380 M80 360 " fill="none" stroke="black" stroke-width="3"  />
<path d="M100 360 L120 360 L120 380 M100 380 M100 360 " fill="none" stroke="black" stroke-width="3"  />
<path d="M120 360 L140 360 L140 380 M120 380 L120 360 " fill="none" stroke="black" stroke-width="3"  />
<path d="M140 360 L160 360 M160 380 M140 380 L140 360 " fill="none" stroke="black" stroke-width="3"  />
<path d="M160 360 L180 360 M180 380 L160 380 M160 360 " fill="none" stroke="black" stroke-width="3"  />
<path d="M180 360 L200 360 M200 380 L180 380 M180 360 " fill="none" stroke="black" stroke-width="3"  />
<path d="M200 360 M220 360 L220 380 L200 380 M200 360 " fill="none" stroke="black" stroke-width="3"  />
<path d="M220 360 L240 360 M240 380 M220 380 L220 360 " fill="none" stroke="black" stroke-width="3"  />
<path d="M240 360 L260 360 M260 380 L240 380 M240 360 " fill="none" stroke="black" stroke-width="3"  />
<path d="M260 360 M280 360 L280 380 L260 380 M260 360 " fill="none" stroke="black" stroke-width="3"  />
<path d="M280 360 L300 360 M300 380 M280 380 L280 360 " fill="none" stroke="black" stroke-width="3"  />
<path d="M300 360 L320 360 L320 380 M300 380 M300 360 " fill="none" stroke="black" stroke-width="3"  />
<path d="M320 360 M340 360 M340 380 L320 380 L320 360 " fill="none" stroke="black" stroke-width="3"  />
<path d="M340 360 L360 360 M360 380 L340 380 M340 360 " fill="none" stroke="black" stroke-width="3"  />
<path d="M360 360 L380 360 L380 380 M360 380 M360 360 " fill="none" stroke="black" stroke-width="3"  />
<path d="M380 360 M400 360 L400 380 M380 380 L380 360 " fill="none" stroke="black" stroke-width="3"  />
<path d="M400 360 M420 360 L420 380 M400 380 L400 360 " fill="none" stroke="black" stroke-width="3"  />
<path d="M420 360 M440 360 M440 380 L420 380 L420 360 " fill="none" stroke="black" stroke-width="3"  />
<path d="M440 360 M460 360 M460 380 L440 380 M440 360 " fill="none" stroke="black" stroke-width="3"  />
<path d="M460 360 M480 360 L480 380 L460 380 M460 360 " fill="none" stroke="black" stroke-width="3"  />
<path d="M480 360 M500 360 M500 380 L480 380 L480 360 " fill="none" stroke="black" stroke-width="3"  />
<path d="M500 360 L520 360 M520 380 L500 380 M500 360 " fill="none" stroke="black" stroke-width="3"  />
<path d="M520 360 L540 360 L540 380 M520 380 M520 360 " fill="none" stroke="black" stroke-width="3"  />
<path d="M540 360 M560 360 M560 380 M540 380 L540 360 " fill="none" stroke="black" stroke-width="3"  />
<path d="M560 360 L580 360 L580 380 L560 380 M560 360 " fill="none" stroke="black" stroke-width="3"  />
<path d="M580 360 M600 360 L600 380 M580 380 L580 360 " fill="none" stroke="black" stroke-width="3"  />
<path d="M0 380 M20 380 L20 400 M0 400 L0 380 " fill="none" stroke="black" stroke-width="3"  />
<path d="M20 380 M40 380 L40 400 M20 400 L20 380 " fill="none" stroke="black" stroke-width="3"  />
<path d="M40 380 M60 380 M60 400 L40 400 L40 380 " fill="none" stroke="black" stroke-width="3"  />
<path d="M60 380 L80 380 M80 400 M60 400 M60 380 " fill="none" stroke="black" stroke-width="3"  />
<path d="M80 380 L100 380 L100 400 M80 400 M80 380 " fill="none" stroke="black" stroke-width="3"  />
<path d="M100 380 M120 380 L120 400 M100 400 L100 380 " fill="none" stroke="black" stroke-width="3"  />
<path d="M120 380 M140 380 L140 400 M120 400 L120 380 " fill="none" stroke="black" stroke-width="3"  />
<path d="M140 380 M160 380 M160 400 L140 400 L140 380 " fill="none" stroke="black" stroke-width="3"  />
<path d="M160 380 L180 380 M180 400 L160 400 M160 380 " fill="none" stroke="black" stroke-width="3"  />
<path d="M180 380 L200 380 L200 400 M180 400 M180 380 " fill="none" stroke="black" stroke-width="3"  />
<path d="M200 380 L220 380 M220 400 M200 400 L200 380 " fill="none" stroke="black" stroke-width="3"  />
<path d="M220 380 M240 380 L240 400 L220 400 M220 380 " fill="none" stroke="black" stroke-width="3"  />
<path d="M240 380 L260 380 M260 400 M240 400 L240 380 " fill="none" stroke="black" stroke-width="3"  />
<path d="M260 380 L280 380 L280 400 M260 400 M260 380 " fill="none" stroke="black" stroke-width="3"  />
<path d="M280 380 M300 380 L300 400 M280 400 L280 380 " fill="none" stroke="black" stroke-width="3"  />
<path d="M300 380 M320 380 M320 400 L300 400 L300 380 " fill="none" stroke="black" stroke-width="3"  />
<path d="M320 380 L340 380 M340 400 L320 400 M320 380 " fill="none" stroke="black" stroke-width="3"  />
<path d="M340 380 L360 380 M360 400 L340 400 M340 380 " fill="none" stroke="black" stroke-width="3"  />
<path d="M360 380 M380 380 L380 400 L360 400 M360 380 " fill="none" stroke="black" stroke-width="3"  />
<path d="M380 380 M400 380 L400 400 M380 400 L380 380 " fill="none" stroke="black" stroke-width="3"  />
<path d="M400 380 M420 380 L420 400 M400 400 L400 380 " fill="none" stroke="black" stroke-width="3"  />
<path d="M420 380 L440 380 M440 400 M420 400 L420 380 " fill="none" stroke="black" stroke-width="3"  />
<path d="M440 380 L460 380 L460 400 M440 400 M440 380 " fill="none" stroke="black" stroke-width="3"  />
<path d="M460 380 L480 380 M480 400 M460 400 L460 380 " fill="none" stroke="black" stroke-width="3"  />
<path d="M480 380 L500 380 M500 400 L480 400 M480 380 " fill="none" stroke="black" stroke-width="3"  />
<path d="M500 380 L520 380 M520 400 L500 400 M500 380 " fill="none" stroke="black" stroke-width="3"  />
<path d="M520 380 M540 380 L540 400 L520 400 M520 380 " fill="none" stroke="black" stroke-width="3"  />
<path d="M540 380 M560 380 M560 400 L540 400 L540 380 " fill="none" stroke="black" stroke-width="3"  />
<path d="M560 380 L580 380 M580 400 L560 400 M560 380 " fill="none" stroke="black" stroke-width="3"  />
<path d="M580 380 M600 380 L600 400 M580 400 M580 380 " fill="none" stroke="black" stroke-width="3"  />
<path d="M0 400 M20 400 L20 420 M0 420 L0 400 " fill="none" stroke="black" stroke-width="3"  />
<path d="M20 400 M40 400 M40 420 L20 420 L20 400 " fill="none" stroke="black" stroke-width="3"  />
<path d="M40 400 L60 400 L60 420 M40 420 M40 400 " fill="none" stroke="black" stroke-width="3"  />
<path d="M60 400 M80 400 L80 420 M60 420 L60 400 " fill="none" stroke="black" stroke-width="3"  />
<path d="M80 400 M100 400 L100 420 M80 420 L80 400 " fill="none" stroke="black" stroke-width="3"  />
<path d="M100 400 M120 400 L120 420 M100 420 L100 400 " fill="none" stroke="black" stroke-width="3"  />
<path d="M120 400 M140 400 M140 420 M120 420 L120 400 " fill="none" stroke="black" stroke-width="3"  />
<path d="M140 400 L160 400 M160 420 M140 420 M140 400 " fill="none" stroke="black" stroke-width="3"  />
<path d="M160 400 L180 400 L180 420 L160 420 M160 400 " fill="none" stroke="black" stroke-width="3"  />
<path d="M180 400 M200 400 L200 420 M180 420 L180 400 " fill="none" stroke="black" stroke-width="3"  />
<path d="M200 400 M220 400 L220 420 M200 420 L200 400 " fill="none" stroke="black" stroke-width="3"  />
<path d="M220 400 L240 400 M240 420 M220 420 L220 400 " fill="none" stroke="black" stroke-width="3"  />
<path d="M240 400 M260 400 L260 420 M240 420 M240 400 " fill="none" stroke="black" stroke-width="3"  />
<path d="M260 400 M280 400 L280 420 M260 420 L260 400 " fill="none" stroke="black" stroke-width="3"  />
<path d="M280 400 M300 400 M300 420 L280 420 L280 400 " fill="none" stroke="black" stroke-width="3"  />
<path d="M300 400 L320 400 M320 420 L300 420 M300 400 " fill="none" stroke="black" stroke-width="3"  />
<path d="M320 400 L340 400 M340 420 L320 420 M320 400 " fill="none" stroke="black" stroke-width="3"  />
<path d="M340 400 L360 400 M360 420 L340 420 M340 400 " fill="none" stroke="black" stroke-width="3"  />
<path d="M360 400 L380 400 M380 420 L360 420 M360 400 " fill="none" stroke="black" stroke-width="3"  />
<path d="M380 400 M400 400 L400 420 L380 420 M380 400 " fill="none" stroke="black" stroke-width="3"  />
<path d="M400 400 M420 400 M420 420 L400 420 L400 400 " fill="none" stroke="black" stroke-width="3"  />
<path d="M420 400 M440 400 L440 420 L420 420 M420 400 " fill="none" stroke="black" stroke-width="3"  />
<path d="M440 400 M460 400 L460 420 M440 420 L440 400 " fill="none" stroke="black" stroke-width="3"  />
<path d="M460 400 M480 400 M480 420 L460 420 L460 400 " fill="none" stroke="black" stroke-width="3"  />
<path d="M480 400 L500 400 M500 420 L480 420 M480 400 " fill="none" stroke="black" stroke-width="3"  />
<path d="M500 400 L520 400 M520 420 L500 420 M500 400 " fill="none" stroke="black" stroke-width="3"  />
<path d="M520 400 L540 400 M540 420 L520 420 M520 400 " fill="none" stroke="black" stroke-width="3"  />
<path d="M540 400 L560 400 M560 420 L540 420 M540 400 " fill="none" stroke="black" stroke-width="3"  />
<path d="M560 400 L580 400 L580 420 M560 420 M560 400 " fill="none" stroke="black" stroke-width="3"  />
<path d="M580 400 M600 400 L600 420 M580 420 L580 400 " fill="none" stroke="black" stroke-width="3"  />
<path d="M0 420 M20 420 M20 440 L0 440 L0 420 " fill="none" stroke="black" stroke-width="3"  />
<path d="M20 420 L40 420 L40 440 M20 440 M20 420 " fill="none" stroke="black" stroke-width="3"  />
<path d="M40 420 M60 420 L60 440 M40 440 L40 420 " fill="none" stroke="black" stroke-width="3"  />
<path d="M60 420 M80 420 L80 440 M60 440 L60 420 " fill="none" stroke="black" stroke-width="3"  />
<path d="M80 420 M100 420 L100 440 M80 440 L80 420 " fill="none" stroke="black" stroke-width="3"  />
<path d="M100 420 M120 420 L120 440 M100 440 L100 420 " fill="none" stroke="black" stroke-width="3"  />
<path d="M120 420 M140 420 L140 440 L120 440 L120 420 " fill="none" stroke="black" stroke-width="3"  />
<path d="M140 420 M160 420 M160 440 L140 440 L140 420 " fill="none" stroke="black" stroke-width="3"  />
<path d="M160 420 L180 420 L180 440 M160 440 M160 420 " fill="none" stroke="black" stroke-width="3"  />
<path d="M180 420 M200 420 M200 440 L180 440 L180 420 " fill="none" stroke="black" stroke-width="3"  />
<path d="M200 420 M220 420 L220 440 L200 440 M200 420 " fill="none" stroke="black" stroke-width="3"  />
<path d="M220 420 M240 420 L240 440 L220 440 L220 420 " fill="none" stroke="black" stroke-width="3"  />
<path d="M240 420 M260 420 L260 440 M240 440 L240 420 " fill="none" stroke="black" stroke-width="3"  />
<path d="M260 420 M280 420 L280 440 M260 440 L260 420 " fill="none" stroke="black" stroke-width="3"  />
<path d="M280 420 L300 420 L300 440 M280 440 L280 420 " fill="none" stroke="black" stroke-width="3"  />
<path d="M300 420 L320 420 M320 440 M300 440 L300 420 " fill="none" stroke="black" stroke-width="3"  />
<path d="M320 420 L340 420 M340 440 M320 440 M320 420 " fill="none" stroke="black" stroke-width="3"  />
<path d="M340 420 L360 420 M360 440 L340 440 M340 420 " fill="none" stroke="black" stroke-width="3"  />
<path d="M360 420 L380 420 L380 440 M360 440 M360 420 " fill="none" stroke="black" stroke-width="3"  />
<path d="M380 420 L400 420 M400 440 L380 440 L380 420 " fill="none" stroke="black" stroke-width="3"  />
<path d="M400 420 L420 420 M420 440 M400 440 M400 420 " fill="none" stroke="black" stroke-width="3"  />
<path d="M420 420 L440 420 L440 440 M420 440 M420 420 " fill="none" stroke="black" stroke-width="3"  />
<path d="M440 420 M460 420 M460 440 L440 440 L440 420 " fill="none" stroke="black" stroke-width="3"  />
<path d="M460 420 L480 420 L480 440 M460 440 M460 420 " fill="none" stroke="black" stroke-width="3"  />
<path d="M480 420 L500 420 M500 440 M480 440 L480 420 " fill="none" stroke="black" stroke-width="3"  />
<path d="M500 420 L520 420 M520 440 M500 440 M500 420 " fill="none" stroke="black" stroke-width="3"  />
<path d="M520 420 L540 420 L540 440 L520 440 M520 420 " fill="none" stroke="black" stroke-width="3"  />
<path d="M540 420 L560 420 M560 440 M540 440 L540 420 " fill="none" stroke="black" stroke-width="3"  />
<path d="M560 420 M580 420 L580 440 L560 440 M560 420 " fill="none" stroke="black" stroke-width="3"  />
<path d="M580 420 M600 420 L600 440 L580 440 L580 420 " fill="none" stroke="black" stroke-width="3"  />
<path d="M0 440 L20 440 M20 460 M0 460 L0 440 " fill="none" stroke="black" stroke-width="3"  />
<path d="M20 440 M40 440 L40 460 L20 460 M20 440 " fill="none" stroke="black" stroke-width="3"  />
<path d="M40 440 M60 440 L60 460 M40 460 L40 440 " fill="none" stroke="black" stroke-width="3"  />
<path d="M60 440 M80 440 L80 460 M60 460 L60 440 " fill="none" stroke="black" stroke-width="3"  />
<path d="M80 440 M100 440 L100 460 L80 460 L80 440 " fill="none" stroke="black" stroke-width="3"  />
<path d="M100 440 M120 440 M120 460 L100 460 L100 440 " fill="none" stroke="black" stroke-width="3"  />
<path d="M120 440 L140 440 M140 460 L120 460 M120 440 " fill="none" stroke="black" stroke-width="3"  />
<path d="M140 440 L160 440 M160 460 L140 460 M140 440 " fill="none" stroke="black" stroke-width="3"  />
<path d="M160 440 M180 440 M180 460 L160 460 M160 440 " fill="none" stroke="black" stroke-width="3"  />
<path d="M180 440 L200 440 L200 460 M180 460 M180 440 " fill="none" stroke="black" stroke-width="3"  />
<path d="M200 440 L220 440 M220 460 M200 460 L200 440 " fill="none" stroke="black" stroke-width="3"  />
<path d="M220 440 L240 440 M240 460 L220 460 M220 440 " fill="none" stroke="black" stroke-width="3"  />
<path d="M240 440 M260 440 L260 460 L240 460 M240 440 " fill="none" stroke="black" stroke-width="3"  />
<path d="M260 440 M280 440 L280 460 M260 460 L260 440 " fill="none" stroke="black" stroke-width="3"  />
<path d="M280 440 M300 440 M300 460 M280 460 L280 440 " fill="none" stroke="black" stroke-width="3"  />
<path d="M300 440 M320 440 L320 460 L300 460 M300 440 " fill="none" stroke="black" stroke-width="3"  />
<path d="M320 440 M340 440 L340 460 M320 460 L320 440 " fill="none" stroke="black" stroke-width="3"  />
<path d="M340 440 L360 440 M360 460 L340 460 L340 440 " fill="none" stroke="black" stroke-width="3"  />
<path d="M360 440 M380 440 M380 460 L360 460 M360 440 " fill="none" stroke="black" stroke-width="3"  />
<path d="M380 440 L400 440 M400 460 L380 460 M380 440 " fill="none" stroke="black" stroke-width="3"  />
<path d="M400 440 M420 440 L420 460 L400 460 M400 440 " fill="none" stroke="black" stroke-width="3"  />
<path d="M420 440 M440 440 M440 460 L420 460 L420 440 " fill="none" stroke="black" stroke-width="3"  />
<path d="M440 440 L460 440 L460 460 M440 460 M440 440 " fill="none" stroke="black" stroke-width="3"  />
<path d="M460 440 M480 440 M480 460 L460 460 L460 440 " fill="none" stroke="black" stroke-width="3"  />
<path d="M480 440 M500 440 L500 460 M480 460 M480 440 " fill="none" stroke="black" stroke-width="3"  />
<path d="M500 440 M520 440 L520 460 L500 460 L500 440 " fill="none" stroke="black" stroke-width="3"  />
<path d="M520 440 L540 440 M540 460 M520 460 L520 440 " fill="none" stroke="black" stroke-width="3"  />
<path d="M540 440 M560 440 L560 460 L540 460 M540 440 " fill="none" stroke="black" stroke-width="3"  />
<path d="M560 440 L580 440 M580 460 M560 460 L560 440 " fill="none" stroke="black" stroke-width="3"  />
<path d="M580 440 L600 440 L600 460 M580 460 M580 440 " fill="none" stroke="black" stroke-width="3"  />
<path d="M0 460 M20 460 L20 480 M0 480 L0 460 " fill="none" stroke="black" stroke-width="3"  />
<path d="M20 460 L40 460 M40 480 M20 480 L20 460 " fill="none" stroke="black" stroke-width="3"  />
<path d="M40 460 M60 460 L60 480 L40 480 M40 460 " fill="none" stroke="black" stroke-width="3"  />
<path d="M60 460 M80 460 M80 480 L60 480 L60 460 " fill="none" stroke="black" stroke-width="3"  />
<path d="M80 460 L100 460 M100 480 M80 480 M80 460 " fill="none" stroke="black" stroke-width="3"  />
<path d="M100 460 L120 460 M120 480 L100 480 M100 460 " fill="none" stroke="black" stroke-width="3"  />
<path d="M120 460 L140 460 L140 480 M120 480 M120 460 " fill="none" stroke="black" stroke-width="3"  />
<path d="M140 460 L160 460 M160 480 M140 480 L140 460 " fill="none" stroke="black" stroke-width="3"  />
<path d="M160 460 L180 460 M180 480 L160 480 M160 460 " fill="none" stroke="black" stroke-width="3"  />
<path d="M180 460 M200 460 L200 480 L180 480 M180 460 " fill="none" stroke="black" stroke-width="3"  />
<path d="M200 460 M220 460 M220 480 L200 480 L200 460 " fill="none" stroke="black" stroke-width="3"  />
<path d="M220 460 L240 460 L240 480 M220 480 M220 460 " fill="none" stroke="black" stroke-width="3"  />
<path d="M240 460 L260 460 M260 480 M240 480 L240 460 " fill="none" stroke="black" stroke-width="3"  />
<path d="M260 460 M280 460 L280 480 L260 480 M260 460 " fill="none" stroke="black" stroke-width="3"  />
<path d="M280 460 M300 460 M300 480 L280 480 L280 460 " fill="none" stroke="black" stroke-width="3"  />
<path d="M300 460 L320 460 L320 480 M300 480 M300 460 " fill="none" stroke="black" stroke-width="3"  />
<path d="M320 460 M340 460 M340 480 L320 480 L320 460 " fill="none" stroke="black" stroke-width="3"  />
<path d="M340 460 L360 460 L360 480 M340 480 M340 460 " fill="none" stroke="black" stroke-width="3"  />
<path d="M360 460 L380 460 M380 480 M360 480 L360 460 " fill="none" stroke="black" stroke-width="3"  />
<path d="M380 460 L400 460 M400 480 L380 480 M380 460 " fill="none" stroke="black" stroke-width="3"  />
<path d="M400 460 L420 460 L420 480 M400 480 M400 460 " fill="none" stroke="black" stroke-width="3"  />
<path d="M420 460 L440 460 L440 480 M420 480 L420 460 " fill="none" stroke="black" stroke-width="3"  />
<path d="M440 460 M460 460 M460 480 L440 480 L440 460 " fill="none" stroke="black" stroke-width="3"  />
<path d="M460 460 L480 460 L480 480 M460 480 M460 460 " fill="none" stroke="black" stroke-width="3"  />
<path d="M480 460 M500 460 L500 480 L480 480 L480 460 " fill="none" stroke="black" stroke-width="3"  />
<path d="M500 460 L520 460 M520 480 M500 480 L500 460 " fill="none" stroke="black" stroke-width="3"  />
<path d="M520 460 M540 460 L540 480 L520 480 M520 460 " fill="none" stroke="black" stroke-width="3"  />
<path d="M540 460 L560 460 M560 480 M540 480 L540 460 " fill="none" stroke="black" stroke-width="3"  />
<path d="M560 460 M580 460 L580 480 L560 480 M560 460 " fill="none" stroke="black" stroke-width="3"  />
<path d="M580 460 M600 460 L600 480 M580 480 L580 460 " fill="none" stroke="black" stroke-width="3"  />
<path d="M0 480 M20 480 L20 500 M0 500 L0 480 " fill="none" stroke="black" stroke-width="3"  />
<path d="M20 480 M40 480 M40 500 M20 500 L20 480 " fill="none" stroke="black" stroke-width="3"  />
<path d="M40 480 L60 480 M60 500 M40 500 M40 480 " fill="none" stroke="black" stroke-width="3"  />
<path d="M60 480 L80 480 L80 500 L60 500 M60 480 " fill="none" stroke="black" stroke-width="3"  />
<path d="M80 480 M100 480 M100 500 L80 500 L80 480 " fill="none" stroke="black" stroke-width="3"  />
<path d="M100 480 L120 480 L120 500 M100 500 M100 480 " fill="none" stroke="black" stroke-width="3"  />
<path d="M120 480 M140 480 L140 500 M120 500 L120 480 " fill="none" stroke="black" stroke-width="3"  />
<path d="M140 480 M160 480 L160 500 M140 500 L140 480 " fill="none" stroke="black" stroke-width="3"  />
<path d="M160 480 L180 480 M180 500 L160 500 L160 480 " fill="none" stroke="black" stroke-width="3"  />
<path d="M180 480 L200 480 M200 500 M180 500 M180 480 " fill="none" stroke="black" stroke-width="3"  />
<path d="M200 480 L220 480 M220 500 L200 500 M200 480 " fill="none" stroke="black" stroke-width="3"  />
<path d="M220 480 M240 480 L240 500 L220 500 M220 480 " fill="none" stroke="black" stroke-width="3"  />
<path d="M240 480 M260 480 M260 500 L240 500 L240 480 " fill="none" stroke="black" stroke-width="3"  />
<path d="M260 480 L280 480 M280 500 L260 500 M260 480 " fill="none" stroke="black" stroke-width="3"  />
<path d="M280 480 L300 480 L300 500 M280 500 M280 480 " fill="none" stroke="black" stroke-width="3"  />
<path d="M300 480 M320 480 L320 500 M300 500 L300 480 " fill="none" stroke="black" stroke-width="3"  />
<path d="M320 480 L340 480 M340 500 M320 500 L320 480 " fill="none" stroke="black" stroke-width="3"  />
<path d="M340 480 M360 480 L360 500 L340 500 M340 480 " fill="none" stroke="black" stroke-width="3"  />
<path d="M360 480 M380 480 L380 500 M360 500 L360 480 " fill="none" stroke="black" stroke-width="3"  />
<path d="M380 480 L400 480 L400 500 M380 500 L380 480 " fill="none" stroke="black" stroke-width="3"  />
<path d="M400 480 M420 480 M420 500 L400 500 L400 480 " fill="none" stroke="black" stroke-width="3"  />
<path d="M420 480 M440 480 M440 500 L420 500 M420 480 " fill="none" stroke="black" stroke-width="3"  />
<path d="M440 480 L460 480 L460 500 M440 500 M440 480 " fill="none" stroke="black" stroke-width="3"  />
<path d="M460 480 M480 480 M480 500 L460 500 L460 480 " fill="none" stroke="black" stroke-width="3"  />
<path d="M480 480 L500 480 L500 500 M480 500 M480 480 " fill="none" stroke="black" stroke-width="3"  />
<path d="M500 480 M520 480 M520 500 L500 500 L500 480 " fill="none" stroke="black" stroke-width="3"  />
<path d="M520 480 L540 480 M540 500 L520 500 M520 480 " fill="none" stroke="black" stroke-width="3"  />
<path d="M540 480 M560 480 L560 500 M540 500 M540 480 " fill="none" stroke="black" stroke-width="3"  />
<path d="M560 480 L580 480 M580 500 M560 500 L560 480 " fill="none" stroke="black" stroke-width="3"  />
<path d="M580 480 M600 480 L600 500 L580 500 M580 480 " fill="none" stroke="black" stroke-width="3"  />
<path d="M0 500 M20 500 L20 520 M0 520 L0 500 " fill="none" stroke="black" stroke-width="3"  />
<path d="M20 500 M40 500 L40 520 L20 520 L20 500 " fill="none" stroke="black" stroke-width="3"  />
<path d="M40 500 M60 500 M60 520 L40 520 L40 500 " fill="none" stroke="black" stroke-width="3"  />
<path d="M60 500 L80 500 M80 520 L60 520 M60 500 " fill="none" stroke="black" stroke-width="3"  />
<path d="M80 500 L100 500 L100 520 M80 520 M80 500 " fill="none" stroke="black" stroke-width="3"  />
<path d="M100 500 M120 500 L120 520 M100 520 L100 500 " fill="none" stroke="black" stroke-width="3"  />
<path d="M120 500 M140 500 L140 520 L120 520 L120 500 " fill="none" stroke="black" stroke-width="3"  />
<path d="M140 500 M160 500 M160 520 L140 520 L140 500 " fill="none" stroke="black" stroke-width="3"  />
<path d="M160 500 L180 500 L180 520 M160 520 M160 500 " fill="none" stroke="black" stroke-width="3"  />
<path d="M180 500 M200 500 L200 520 M180 520 L180 500 " fill="none" stroke="black" stroke-width="3"  />
<path d="M200 500 L220 500 M220 520 L200 520 L200 500 " fill="none" stroke="black" stroke-width="3"  />
<path d="M220 500 L240 500 M240 520 L220 520 M220 500 " fill="none" stroke="black" stroke-width="3"  />
<path d="M240 500 L260 500 M260 520 M240 520 M240 500 " fill="none" stroke="black" stroke-width="3"  />
<path d="M260 500 L280 500 M280 520 L260 520 M260 500 " fill="none" stroke="black" stroke-width="3"  />
<path d="M280 500 M300 500 L300 520 L280 520 M280 500 " fill="none" stroke="black" stroke-width="3"  />
<path d="M300 500 M320 500 L320 520 L300 520 L300 500 " fill="none" stroke="black" stroke-width="3"  />
<path d="M320 500 M340 500 M340 520 L320 520 L320 500 " fill="none" stroke="black" stroke-width="3"  />
<path d="M340 500 L360 500 L360 520 M340 520 M340 500 " fill="none" stroke="black" stroke-width="3"  />
<path d="M360 500 M380 500 L380 520 M360 520 L360 500 " fill="none" stroke="black" stroke-width="3"  />
<path d="M380 500 M400 500 M400 520 L380 520 L380 500 " fill="none" stroke="black" stroke-width="3"  />
<path d="M400 500 L420 500 M420 520 M400 520 M400 500 " fill="none" stroke="black" stroke-width="3"  />
<path d="M420 500 L440 500 L440 520 M420 520 M420 500 " fill="none" stroke="black" stroke-width="3"  />
<path d="M440 500 M460 500 L460 520 M440 520 L440 500 " fill="none" stroke="black" stroke-width="3"  />
<path d="M460 500 L480 500 L480 520 M460 520 L460 500 " fill="none" stroke="black" stroke-width="3"  />
<path d="M480 500 M500 500 M500 520 L480 520 L480 500 " fill="none" stroke="black" stroke-width="3"  />
<path d="M500 500 L520 500 M520 520 L500 520 M500 500 " fill="none" stroke="black" stroke-width="3"  />
<path d="M520 500 L540 500 L540 520 M520 520 M520 500 " fill="none" stroke="black" stroke-width="3"  />
<path d="M540 500 M560 500 L560 520 L540 520 L540 500 " fill="none" stroke="black" stroke-width="3"  />
<path d="M560 500 M580 500 M580 520 L560 520 L560 500 " fill="none" stroke="black" stroke-width="3"  />
<path d="M580 500 L600 500 L600 520 M580 520 M580 500 " fill="none" stroke="black" stroke-width="3"  />
<path d="M0 520 M20 520 L20 540 M0 540 L0 520 " fill="none" stroke="black" stroke-width="3"  />
<path d="M20 520 L40 520 M40 540 M20 540 L20 520 " fill="none" stroke="black" stroke-width="3"  />
<path d="M40 520 L60 520 L60 540 M40 540 M40 520 " fill="none" stroke="black" stroke-width="3"  />
<path d="M60 520 L80 520 M80 540 M60 540 L60 520 " fill="none" stroke="black" stroke-width="3"  />
<path d="M80 520 M100 520 L100 540 M80 540 M80 520 " fill="none" stroke="black" stroke-width="3"  />
<path d="M100 520 M120 520 M120 540 L100 540 L100 520 " fill="none" stroke="black" stroke-width="3"  />
<path d="M120 520 L140 520 M140 540 L120 540 M120 520 " fill="none" stroke="black" stroke-width="3"  />
<path d="M140 520 L160 520 M160 540 L140 540 M140 520 " fill="none" stroke="black" stroke-width="3"  />
<path d="M160 520 M180 520 L180 540 L160 540 M160 520 " fill="none" stroke="black" stroke-width="3"  />
<path d="M180 520 M200 520 M200 540 L180 540 L180 520 " fill="none" stroke="black" stroke-width="3"  />
<path d="M200 520 L220 520 M220 540 L200 540 M200 520 " fill="none" stroke="black" stroke-width="3"  />
<path d="M220 520 L240 520 L240 540 M220 540 M220 520 " fill="none" stroke="black" stroke-width="3"  />
<path d="M240 520 M260 520 L260 540 M240 540 L240 520 " fill="none" stroke="black" stroke-width="3"  />
<path d="M260 520 L280 520 M280 540 L260 540 L260 520 " fill="none" stroke="black" stroke-width="3"  />
<path d="M280 520 L300 520 M300 540 M280 540 M280 520 " fill="none" stroke="black" stroke-width="3"  />
<path d="M300 520 L320 520 M320 540 L300 540 M300 520 " fill="none" stroke="black" stroke-width="3"  />
<path d="M320 520 L340 520 M340 540 L320 540 M320 520 " fill="none" stroke="black" stroke-width="3"  />
<path d="M340 520 M360 520 L360 540 L340 540 M340 520 " fill="none" stroke="black" stroke-width="3"  />
<path d="M360 520 M380 520 M380 540 M360 540 L360 520 " fill="none" stroke="black" stroke-width="3"  />
<path d="M380 520 L400 520 L400 540 M380 540 M380 520 " fill="none" stroke="black" stroke-width="3"  />
<path d="M400 520 M420 520 L420 540 L400 540 L400 520 " fill="none" stroke="black" stroke-width="3"  />
<path d="M420 520 M440 520 M440 540 M420 540 L420 520 " fill="none" stroke="black" stroke-width="3"  />
<path d="M440 520 M460 520 M460 540 L440 540 M440 520 " fill="none" stroke="black" stroke-width="3"  />
<path d="M460 520 M480 520 M480 540 L460 540 M460 520 " fill="none" stroke="black" stroke-width="3"  />
<path d="M480 520 L500 520 L500 540 M480 540 M480 520 " fill="none" stroke="black" stroke-width="3"  />
<path d="M500 520 L520 520 L520 540 M500 540 L500 520 " fill="none" stroke="black" stroke-width="3"  />
<path d="M520 520 M540 520 M540 540 L520 540 L520 520 " fill="none" stroke="black" stroke-width="3"  />
<path d="M540 520 L560 520 M560 540 L540 540 M540 520 " fill="none" stroke="black" stroke-width="3"  />
<path d="M560 520 L580 520 M580 540 L560 540 M560 520 " fill="none" stroke="black" stroke-width="3"  />
<path d="M580 520 M600 520 L600 540 M580 540 M580 520 " fill="none" stroke="black" stroke-width="3"  />
<path d="M0 540 M20 540 M20 560 L0 560 L0 540 " fill="none" stroke="black" stroke-width="3"  />
<path d="M20 540 M40 540 L40 560 L20 560 M20 540 " fill="none" stroke="black" stroke-width="3"  />
<path d="M40 540 M60 540 M60 560 L40 560 L40 540 " fill="none" stroke="black" stroke-width="3"  />
<path d="M60 540 M80 540 L80 560 L60 560 M60 540 " fill="none" stroke="black" stroke-width="3"  />
<path d="M80 540 M100 540 M100 560 L80 560 L80 540 " fill="none" stroke="black" stroke-width="3"  />
<path d="M100 540 L120 540 L120 560 M100 560 M100 540 " fill="none" stroke="black" stroke-width="3"  />
<path d="M120 540 L140 540 M140 560 L120 560 L120 540 " fill="none" stroke="black" stroke-width="3"  />
<path d="M140 540 L160 540 L160 560 M140 560 M140 540 " fill="none" stroke="black" stroke-width="3"  />
<path d="M160 540 L180 540 M180 560 M160 560 L160 540 " fill="none" stroke="black" stroke-width="3"  />
<path d="M180 540 L200 540 M200 560 M180 560 M180 540 " fill="none" stroke="black" stroke-width="3"  />
<path d="M200 540 L220 540 L220 560 M200 560 M200 540 " fill="none" stroke="black" stroke-width="3"  />
<path d="M220 540 M240 540 L240 560 M220 560 L220 540 " fill="none" stroke="black" stroke-width="3"  />
<path d="M240 540 M260 540 L260 560 M240 560 L240 540 " fill="none" stroke="black" stroke-width="3"  />
<path d="M260 540 L280 540 M280 560 M260 560 L260 540 " fill="none" stroke="black" stroke-width="3"  />
<path d="M280 540 M300 540 L300 560 L280 560 M280 540 " fill="none" stroke="black" stroke-width="3"  />
<path d="M300 540 L320 540 M320 560 L300 560 L300 540 " fill="none" stroke="black" stroke-width="3"  />
<path d="M320 540 L340 540 M340 560 M320 560 M320 540 " fill="none" stroke="black" stroke-width="3"  />
<path d="M340 540 L360 540 L360 560 M340 560 M340 540 " fill="none" stroke="black" stroke-width="3"  />
<path d="M360 540 M380 540 L380 560 L360 560 L360 540 " fill="none" stroke="black" stroke-width="3"  />
<path d="M380 540 M400 540 M400 560 L380 560 L380 540 " fill="none" stroke="black" stroke-width="3"  />
<path d="M400 540 L420 540 L420 560 M400 560 M400 540 " fill="none" stroke="black" stroke-width="3"  />
<path d="M420 540 M440 540 L440 560 M420 560 L420 540 " fill="none" stroke="black" stroke-width="3"  />
<path d="M440 540 L460 540 M460 560 M440 560 L440 540 " fill="none" stroke="black" stroke-width="3"  />
<path d="M460 540 L480 540 L480 560 M460 560 M460 540 " fill="none" stroke="black" stroke-width="3"  />
<path d="M480 540 M500 540 M500 560 L480 560 L480 540 " fill="none" stroke="black" stroke-width="3"  />
<path d="M500 540 M520 540 M520 560 L500 560 M500 540 " fill="none" stroke="black" stroke-width="3"  />
<path d="M520 540 L540 540 M540 560 M520 560 M520 540 " fill="none" stroke="black" stroke-width="3"  />
<path d="M540 540 L560 540 M560 560 L540 560 M540 540 " fill="none" stroke="black" stroke-width="3"  />
<path d="M560 540 L580 540 L580 560 L560 560 M560 540 " fill="none" stroke="black" stroke-width="3"  />
<path d="M580 540 M600 540 L600 560 M580 560 L580 540 " fill="none" stroke="black" stroke-width="3"  />
<path d="M0 560 L20 560 M20 580 M0 580 L0 560 " fill="none" stroke="black" stroke-width="3"  />
<path d="M20 560 L40 560 M40 580 L20 580 M20 560 " fill="none" stroke="black" stroke-width="3"  />
<path d="M40 560 L60 560 M60 580 M40 580 M40 560 " fill="none" stroke="black" stroke-width="3"  />
<path d="M60 560 L80 560 M80 580 L60 580 M60 560 " fill="none" stroke="black" stroke-width="3"  />
<path d="M80 560 L100 560 L100 580 L80 580 M80 560 " fill="none" stroke="black" stroke-width="3"  />
<path d="M100 560 M120 560 M120 580 L100 580 L100 560 " fill="none" stroke="black" stroke-width="3"  />
<path d="M120 560 L140 560 L140 580 M120 580 M120 560 " fill="none" stroke="black" stroke-width="3"  />
<path d="M140 560 M160 560 M160 580 L140 580 L140 560 " fill="none" stroke="black" stroke-width="3"  />
<path d="M160 560 M180 560 L180 580 L160 580 M160 560 " fill="none" stroke="black" stroke-width="3"  />
<path d="M180 560 M200 560 L200 580 M180 580 L180 560 " fill="none" stroke="black" stroke-width="3"  />
<path d="M200 560 M220 560 L220 580 M200 580 L200 560 " fill="none" stroke="black" stroke-width="3"  />
<path d="M220 560 M240 560 L240 580 M220 580 L220 560 " fill="none" stroke="black" stroke-width="3"  />
<path d="M240 560 M260 560 L260 580 M240 580 L240 560 " fill="none" stroke="black" stroke-width="3"  />
<path d="M260 560 M280 560 M280 580 L260 580 L260 560 " fill="none" stroke="black" stroke-width="3"  />
<path d="M280 560 L300 560 L300 580 M280 580 M280 560 " fill="none" stroke="black" stroke-width="3"  />
<path d="M300 560 L320 560 M320 580 M300 580 L300 560 " fill="none" stroke="black" stroke-width="3"  />
<path d="M320 560 M340 560 L340 580 L320 580 M320 560 " fill="none" stroke="black" stroke-width="3"  />
<path d="M340 560 M360 560 M360 580 L340 580 L340 560 " fill="none" stroke="black" stroke-width="3"  />
<path d="M360 560 L380 560 M380 580 L360 580 M360 560 " fill="none" stroke="black" stroke-width="3"  />
<path d="M380 560 L400 560 M400 580 L380 580 M380 560 " fill="none" stroke="black" stroke-width="3"  />
<path d="M400 560 M420 560 L420 580 L400 580 M400 560 " fill="none" stroke="black" stroke-width="3"  />
<path d="M420 560 M440 560 L440 580 L420 580 L420 560 " fill="none" stroke="black" stroke-width="3"  />
<path d="M440 560 M460 560 L460 580 M440 580 L440 560 " fill="none" stroke="black" stroke-width="3"  />
<path d="M460 560 M480 560 M480 580 L460 580 L460 560 " fill="none" stroke="black" stroke-width="3"  />
<path d="M480 560 L500 560 L500 580 M480 580 M480 560 " fill="none" stroke="black" stroke-width="3"  />
<path d="M500 560 L520 560 M520 580 L500 580 L500 560 " fill="none" stroke="black" stroke-width="3"  />
<path d="M520 560 M540 560 L540 580 L520 580 M520 560 " fill="none" stroke="black" stroke-width="3"  />
<path d="M540 560 L560 560 M560 580 M540 580 L540 560 " fill="none" stroke="black" stroke-width="3"  />
<path d="M560 560 L580 560 L580 580 M560 580 M560 560 " fill="none" stroke="black" stroke-width="3"  />
<path d="M580 560 M600 560 L600 580 M580 580 L580 560 " fill="none" stroke="black" stroke-width="3"  />
<path d="M0 580 M20 580 M20 600 L0 600 L0 580 " fill="none" stroke="black" stroke-width="3"  />
<path d="M20 580 L40 580 L40 600 L20 600 M20 580 " fill="none" stroke="black" stroke-width="3"  />
<path d="M40 580 M60 580 M60 600 L40 600 L40 580 " fill="none" stroke="black" stroke-width="3"  />
<path d="M60 580 L80 580 M80 600 L60 600 M60 580 " fill="none" stroke="black" stroke-width="3"  />
<path d="M80 580 L100 580 M100 600 L80 600 M80 580 " fill="none" stroke="black" stroke-width="3"  />
<path d="M100 580 L120 580 M120 600 L100 600 M100 580 " fill="none" stroke="black" stroke-width="3"  />
<path d="M120 580 M140 580 M140 600 L120 600 M120 580 " fill="none" stroke="black" stroke-width="3"  />
<path d="M140 580 L160 580 M160 600 L140 600 M140 580 " fill="none" stroke="black" stroke-width="3"  />
<path d="M160 580 L180 580 M180 600 L160 600 M160 580 " fill="none" stroke="black" stroke-width="3"  />
<path d="M180 580 M200 580 L200 600 L180 600 M180 580 " fill="none" stroke="black" stroke-width="3"  />
<path d="M200 580 M220 580 M220 600 L200 600 L200 580 " fill="none" stroke="black" stroke-width="3"  />
<path d="M220 580 M240 580 L240 600 L220 600 M220 580 " fill="none" stroke="black" stroke-width="3"  />
<path d="M240 580 M260 580 M260 600 L240 600 L240 580 " fill="none" stroke="black" stroke-width="3"  />
<path d="M260 580 L280 580 M280 600 L260 600 M260 580 " fill="none" stroke="black" stroke-width="3"  />
<path d="M280 580 M300 580 L300 600 L280 600 M280 580 " fill="none" stroke="black" stroke-width="3"  />
<path d="M300 580 M320 580 M320 600 L300 600 L300 580 " fill="none" stroke="black" stroke-width="3"  />
<path d="M320 580 L340 580 M340 600 L320 600 M320 580 " fill="none" stroke="black" stroke-width="3"  />
<path d="M340 580 L360 580 M360 600 L340 600 M340 580 " fill="none" stroke="black" stroke-width="3"  />
<path d="M360 580 L380 580 M380 600 L360 600 M360 580 " fill="none" stroke="black" stroke-width="3"  />
<path d="M380 580 L400 580 M400 600 L380 600 M380 580 " fill="none" stroke="black" stroke-width="3"  />
<path d="M400 580 L420 580 M420 600 L400 600 M400 580 " fill="none" stroke="black" stroke-width="3"  />
<path d="M420 580 L440 580 M440 600 L420 600 M420 580 " fill="none" stroke="black" stroke-width="3"  />
<path d="M440 580 M460 580 M460 600 L440 600 M440 580 " fill="none" stroke="black" stroke-width="3"  />
<path d="M460 580 L480 580 L480 600 L460 600 M460 580 " fill="none" stroke="black" stroke-width="3"  />
<path d="M480 580 M500 580 M500 600 L480 600 L480 580 " fill="none" stroke="black" stroke-width="3"  />
<path d="M500 580 L520 580 M520 600 L500 600 M500 580 " fill="none" stroke="black" stroke-width="3"  />
<path d="M520 580 L540 580 M540 600 L520 600 M520 580 " fill="none" stroke="black" stroke-width="3"  />
<path d="M540 580 M560 580 L560 600 L540 600 M540 580 " fill="none" stroke="black" stroke-width="3"  />
<path d="M560 580 M580 580 M580 600 L560 600 L560 580 " fill="none" stroke="black" stroke-width="3"  />
<path d="M580 580 M600 580 L600 600 L580 600 M580 580 " fill="none" stroke="black" stroke-width="3"  />
</svg>
