<svg width="240" height="240">
<path d="M0 232 l8 0 m0 8 l-8 0 l0 -8 M8 232 m8 0 l0 8 l-8 0 m0 -8 M16 232 m8 0 l0 8 l-8 0 l0 -8 M24 232 m8 0 m0 8 l-8 0 l0 -8 M32 232 m8 0 m0 8 l-8 0 m0 -8 M40 232 l8 0 m0 8 l-8 0 m0 -8 M48 232 m8 0 l0 8 l-8 0 m0 -8 M56 232 l8 0 m0 8 l-8 0 l0 -8 M64 232 m8 0 m0 8 l-8 0 m0 -8 M72 232 l8 0 m0 8 l-8 0 m0 -8 M80 232 l8 0 m0 8 l-8 0 m0 -8 M88 232 m8 0 l0 8 l-8 0 m0 -8 M96 232 m8 0 l0 8 l-8 0 l0 -8 M104 232 m8 0 m0 8 l-8 0 l0 -8 M112 232 l8 0 m0 8 l-8 0 m0 -8 M120 232 m8 0 l0 8 l-8 0 m0 -8 M128 232 m8 0 m0 8 l-8 0 l0 -8 M136 232 l8 0 m0 8 l-8 0 m0 -8 M144 232 m8 0 m0 8 l-8 0 m0 -8 M152 232 l8 0 m0 8 l-8 0 m0 -8 M160 232 l8 0 l0 8 l-8 0 m0 -8 M168 232 m8 0 m0 8 l-8 0 l0 -8 M176 232 m8 0 m0 8 l-8 0 m0 -8 M184 232 l8 0 m0 8 l-8 0 m0 -8 M192 232 l8 0 m0 8 l-8 0 m0 -8 M200 232 m8 0 l0 8 l-8 0 m0 -8 M208 232 l8 0 m0 8 l-8 0 l0 -8 M216 232 l8 0 m0 8 l-8 0 m0 -8 M224 232 m8 0 m0 8 l-8 0 m0 -8 M232 232 m8 0 l0 8 l-8 0 m0 -8 M0 224 m8 0 l0 8 l-8 0 l0 -8 M8 224 m8 0 l0 8 m-8 0 l0 -8 M16 224 m8 0 m0 8 m-8 0 l0 -8 M24 224 l8 0 l0 8 m-8 0 m0 -8 M32 224 m8 0 l0 8 m-8 0 l0 -8 M40 224 m8 0 l0 8 l-8 0 l0 -8 M48 224 l8 0 m0 8 m-8 0 l0 -8 M56 224 l8 0 m0 8 l-8 0 m0 -8 M64 224 l8 0 l0 8 m-8 0 m0 -8 M72 224 l8 0 m0 8 l-8 0 l0 -8 M80 224 m8 0 l0 8 l-8 0 m0 -8 M88 224 m8 0 l0 8 m-8 0 l0 -8 M96 224 m8 0 l0 8 m-8 0 l0 -8 M104 224 l8 0 m0 8 m-8 0 l0 -8 M112 224 m8 0 l0 8 l-8 0 m0 -8 M120 224 m8 0 l0 8 m-8 0 l0 -8 M128 224 m8 0 l0 8 m-8 0 l0 -8 M136 224 m8 0 l0 8 l-8 0 l0 -8 M144 224 m8 0 l0 8 m-8 0 l0 -8 M152 224 m8 0 m0 8 l-8 0 l0 -8 M160 224 l8 0 m0 8 l-8 0 m0 -8 M168 224 l8 0 l0 8 m-8 0 m0 -8 M176 224 l8 0 m0 8 m-8 0 l0 -8 M184 224 l8 0 m0 8 l-8 0 m0 -8 M192 224 m8 0 l0 8 l-8 0 m0 -8 M200 224 l8 0 m0 8 m-8 0 l0 -8 M208 224 m8 0 l0 8 l-8 0 m0 -8 M216 224 m8 0 m0 8 l-8 0 l0 -8 M224 224 l8 0 l0 8 m-8 0 m0 -8 M232 224 m8 0 l0 8 m-8 0 l0 -8 M0 216 m8 0 m0 8 m-8 0 l0 -8 M8 216 l8 0 l0 8 m-8 0 m0 -8 M16 216 l8 0 l0 8 m-8 0 l0 -8 M24 216 m8 0 m0 8 l-8 0 l0 -8 M32 216 l8 0 l0 8 m-8 0 m0 -8 M40 216 m8 0 m0 8 m-8 0 l0 -8 M48 216 l8 0 m0 8 l-8 0 m0 -8 M56 216 l8 0 m0 8 l-8 0 m0 -8 M64 216 l8 0 m0 8 l-8 0 m0 -8 M72 216 m8 0 m0 8 l-8 0 m0 -8 M80 216 m8 0 l0 8 m-8 0 m0 -8 M88 216 m8 0 l0 8 m-8 0 l0 -8 M96 216 l8 0 m0 8 m-8 0 l0 -8 M104 216 m8 0 l0 8 l-8 0 m0 -8 M112 216 m8 0 l0 8 m-8 0 l0 -8 M120 216 l8 0 m0 8 m-8 0 l0 -8 M128 216 l8 0 l0 8 m-8 0 m0 -8 M136 216 m8 0 l0 8 m-8 0 l0 -8 M144 216 m8 0 l0 8 m-8 0 l0 -8 M152 216 l8 0 m0 8 m-8 0 l0 -8 M160 216 l8 0 m0 8 l-8 0 m0 -8 M168 216 l8 0 m0 8 l-8 0 m0 -8 M176 216 m8 0 m0 8 l-8 0 m0 -8 M184 216 l8 0 l0 8 l-8 0 m0 -8 M192 216 l8 0 m0 8 m-8 0 l0 -8 M200 216 m8 0 l0 8 l-8 0 m0 -8 M208 216 m8 0 l0 8 m-8 0 l0 -8 M216 216 l8 0 m0 8 m-8 0 l0 -8 M224 216 m8 0 l0 8 l-8 0 m0 -8 M232 216 m8 0 l0 8 m-8 0 l0 -8 M0 208 m8 0 l0 8 m-8 0 l0 -8 M8 208 m8 0 m0 8 l-8 0 l0 -8 M16 208 l8 0 m0 8 l-8 0 m0 -8 M24 208 l8 0 l0 8 m-8 0 m0 -8 M32 208 m8 0 l0 8 l-8 0 l0 -8 M40 208 m8 0 m0 8 m-8 0 l0 -8 M48 208 l8 0 l0 8 l-8 0 m0 -8 M56 208 m8 0 m0 8 l-8 0 l0 -8 M64 208 m8 0 m0 8 l-8 0 m0 -8 M72 208 l8 0 l0 8 m-8 0 m0 -8 M80 208 l8 0 l0 8 m-8 0 l0 -8 M88 208 l8 0 m0 8 m-8 0 l0 -8 M96 208 m8 0 l0 8 l-8 0 m0 -8 M104 208 m8 0 l0 8 m-8 0 l0 -8 M112 208 m8 0 l0 8 m-8 0 l0 -8 M120 208 l8 0 m0 8 l-8 0 l0 -8 M128 208 m8 0 m0 8 l-8 0 m0 -8 M136 208 m8 0 l0 8 m-8 0 m0 -8 M144 208 l8 0 m0 8 m-8 0 l0 -8 M152 208 l8 0 m0 8 l-8 0 m0 -8 M160 208 l8 0 m0 8 l-8 0 m0 -8 M168 208 m8 0 l0 8 l-8 0 m0 -8 M176 208 m8 0 l0 8 m-8 0 l0 -8 M184 208 m8 0 m0 8 l-8 0 l0 -8 M192 208 l8 0 m0 8 l-8 0 m0 -8 M200 208 l8 0 l0 8 m-8 0 m0 -8 M208 208 l8 0 m0 8 m-8 0 l0 -8 M216 208 l8 0 m0 8 l-8 0 m0 -8 M224 208 l8 0 l0 8 m-8 0 m0 -8 M232 208 m8 0 l0 8 m-8 0 l0 -8 M0 200 m8 0 l0 8 m-8 0 l0 -8 M8 200 m8 0 l0 8 m-8 0 l0 -8 M16 200 m8 0 m0 8 l-8 0 l0 -8 M24 200 m8 0 l0 8 l-8 0 m0 -8 M32 200 m8 0 m0 8 m-8 0 l0 -8 M40 200 l8 0 l0 8 m-8 0 m0 -8 M48 200 m8 0 m0 8 l-8 0 l0 -8 M56 200 l8 0 l0 8 m-8 0 m0 -8 M64 200 l8 0 l0 8 m-8 0 l0 -8 M72 200 m8 0 m0 8 l-8 0 l0 -8 M80 200 m8 0 l0 8 l-8 0 m0 -8 M88 200 m8 0 m0 8 l-8 0 l0 -8 M96 200 l8 0 l0 8 m-8 0 m0 -8 M104 200 m8 0 l0 8 m-8 0 l0 -8 M112 200 l8 0 m0 8 m-8 0 l0 -8 M120 200 l8 0 m0 8 l-8 0 m0 -8 M128 200 l8 0 l0 8 m-8 0 m0 -8 M136 200 l8 0 m0 8 m-8 0 l0 -8 M144 200 m8 0 l0 8 l-8 0 m0 -8 M152 200 m8 0 m0 8 l-8 0 l0 -8 M160 200 l8 0 l0 8 l-8 0 m0 -8 M168 200 l8 0 m0 8 m-8 0 l0 -8 M176 200 l8 0 l0 8 m-8 0 m0 -8 M184 200 l8 0 m0 8 m-8 0 l0 -8 M192 200 l8 0 m0 8 l-8 0 m0 -8 M200 200 l8 0 m0 8 l-8 0 m0 -8 M208 200 m8 0 l0 8 l-8 0 m0 -8 M216 200 m8 0 m0 8 l-8 0 l0 -8 M224 200 l8 0 m0 8 l-8 0 m0 -8 M232 200 l8 0 l0 8 m-8 0 m0 -8 M0 192 l8 0 m0 8 m-8 0 l0 -8 M8 192 l8 0 l0 8 m-8 0 m0 -8 M16 192 m8 0 l0 8 m-8 0 l0 -8 M24 192 m8 0 l0 8 m-8 0 l0 -8 M32 192 m8 0 l0 8 m-8 0 l0 -8 M40 192 m8 0 l0 8 l-8 0 l0 -8 M48 192 l8 0 m0 8 m-8 0 l0 -8 M56 192 l8 0 m0 8 l-8 0 m0 -8 M64 192 l8 0 m0 8 l-8 0 m0 -8 M72 192 l8 0 l0 8 m-8 0 m0 -8 M80 192 l8 0 m0 8 m-8 0 l0 -8 M88 192 l8 0 l0 8 m-8 0 m0 -8 M96 192 m8 0 m0 8 l-8 0 l0 -8 M104 192 m8 0 l0 8 m-8 0 m0 -8 M112 192 l8 0 m0 8 l-8 0 l0 -8 M120 192 m8 0 m0 8 l-8 0 m0 -8 M128 192 m8 0 m0 8 l-8 0 m0 -8 M136 192 m8 0 l0 8 l-8 0 m0 -8 M144 192 l8 0 m0 8 m-8 0 l0 -8 M152 192 m8 0 l0 8 m-8 0 m0 -8 M160 192 m8 0 m0 8 l-8 0 l0 -8 M168 192 m8 0 l0 8 l-8 0 m0 -8 M176 192 m8 0 m0 8 l-8 0 l0 -8 M184 192 l8 0 m0 8 l-8 0 m0 -8 M192 192 l8 0 m0 8 l-8 0 m0 -8 M200 192 l8 0 m0 8 l-8 0 m0 -8 M208 192 l8 0 l0 8 m-8 0 m0 -8 M216 192 m8 0 l0 8 m-8 0 l0 -8 M224 192 m8 0 m0 8 l-8 0 l0 -8 M232 192 m8 0 l0 8 l-8 0 m0 -8 M0 184 m8 0 m0 8 l-8 0 l0 -8 M8 184 l8 0 m0 8 l-8 0 m0 -8 M16 184 l8 0 l0 8 m-8 0 m0 -8 M24 184 m8 0 l0 8 m-8 0 l0 -8 M32 184 l8 0 m0 8 m-8 0 l0 -8 M40 184 m8 0 l0 8 m-8 0 m0 -8 M48 184 l8 0 m0 8 l-8 0 l0 -8 M56 184 m8 0 m0 8 l-8 0 m0 -8 M64 184 l8 0 m0 8 l-8 0 m0 -8 M72 184 l8 0 m0 8 l-8 0 m0 -8 M80 184 m8 0 l0 8 l-8 0 m0 -8 M88 184 m8 0 m0 8 l-8 0 l0 -8 M96 184 l8 0 l0 8 m-8 0 m0 -8 M104 184 l8 0 m0 8 m-8 0 l0 -8 M112 184 m8 0 l0 8 l-8 0 m0 -8 M120 184 l8 0 l0 8 m-8 0 l0 -8 M128 184 m8 0 l0 8 m-8 0 l0 -8 M136 184 l8 0 m0 8 m-8 0 l0 -8 M144 184 l8 0 l0 8 l-8 0 m0 -8 M152 184 m8 0 l0 8 m-8 0 l0 -8 M160 184 m8 0 l0 8 m-8 0 l0 -8 M168 184 m8 0 l0 8 m-8 0 l0 -8 M176 184 m8 0 m0 8 m-8 0 l0 -8 M184 184 l8 0 m0 8 l-8 0 m0 -8 M192 184 l8 0 m0 8 l-8 0 m0 -8 M200 184 m8 0 l0 8 l-8 0 m0 -8 M208 184 m8 0 l0 8 l-8 0 l0 -8 M216 184 m8 0 l0 8 m-8 0 l0 -8 M224 184 l8 0 l0 8 m-8 0 l0 -8 M232 184 m8 0 l0 8 m-8 0 l0 -8 M0 176 l8 0 m0 8 m-8 0 l0 -8 M8 176 l8 0 m0 8 l-8 0 m0 -8 M16 176 m8 0 l0 8 l-8 0 m0 -8 M24 176 l8 0 m0 8 m-8 0 l0 -8 M32 176 m8 0 l0 8 l-8 0 m0 -8 M40 176 l8 0 m0 8 m-8 0 l0 -8 M48 176 l8 0 m0 8 l-8 0 m0 -8 M56 176 l8 0 l0 8 m-8 0 m0 -8 M64 176 m8 0 m0 8 l-8 0 l0 -8 M72 176 m8 0 l0 8 l-8 0 m0 -8 M80 176 m8 0 l0 8 m-8 0 l0 -8 M88 176 m8 0 m0 8 m-8 0 l0 -8 M96 176 l8 0 m0 8 l-8 0 m0 -8 M104 176 m8 0 l0 8 l-8 0 m0 -8 M112 176 l8 0 m0 8 m-8 0 l0 -8 M120 176 l8 0 m0 8 l-8 0 m0 -8 M128 176 l8 0 l0 8 m-8 0 m0 -8 M136 176 m8 0 m0 8 l-8 0 l0 -8 M144 176 l8 0 m0 8 l-8 0 m0 -8 M152 176 l8 0 l0 8 m-8 0 m0 -8 M160 176 m8 0 l0 8 m-8 0 l0 -8 M168 176 m8 0 l0 8 m-8 0 l0 -8 M176 176 l8 0 m0 8 m-8 0 l0 -8 M184 176 l8 0 m0 8 l-8 0 m0 -8 M192 176 m8 0 l0 8 l-8 0 m0 -8 M200 176 m8 0 l0 8 m-8 0 l0 -8 M208 176 l8 0 m0 8 m-8 0 l0 -8 M216 176 l8 0 m0 8 m-8 0 m0 -8 M224 176 l8 0 m0 8 l-8 0 m0 -8 M232 176 m8 0 l0 8 m-8 0 m0 -8 M0 168 m8 0 m0 8 l-8 0 l0 -8 M8 168 l8 0 l0 8 l-8 0 m0 -8 M16 168 l8 0 m0 8 m-8 0 l0 -8 M24 168 m8 0 l0 8 l-8 0 m0 -8 M32 168 l8 0 m0 8 m-8 0 l0 -8 M40 168 l8 0 m0 8 l-8 0 m0 -8 M48 168 m8 0 m0 8 l-8 0 m0 -8 M56 168 l8 0 m0 8 l-8 0 m0 -8 M64 168 l8 0 l0 8 m-8 0 m0 -8 M72 168 m8 0 l0 8 m-8 0 l0 -8 M80 168 m8 0 l0 8 m-8 0 l0 -8 M88 168 l8 0 m0 8 m-8 0 l0 -8 M96 168 m8 0 l0 8 l-8 0 m0 -8 M104 168 l8 0 m0 8 m-8 0 l0 -8 M112 168 l8 0 m0 8 l-8 0 m0 -8 M120 168 l8 0 m0 8 l-8 0 m0 -8 M128 168 l8 0 m0 8 l-8 0 m0 -8 M136 168 m8 0 l0 8 m-8 0 m0 -8 M144 168 m8 0 m0 8 l-8 0 l0 -8 M152 168 m8 0 l0 8 l-8 0 m0 -8 M160 168 m8 0 l0 8 m-8 0 l0 -8 M168 168 m8 0 l0 8 m-8 0 l0 -8 M176 168 l8 0 m0 8 l-8 0 l0 -8 M184 168 m8 0 m0 8 l-8 0 m0 -8 M192 168 l8 0 l0 8 m-8 0 m0 -8 M200 168 l8 0 m0 8 m-8 0 l0 -8 M208 168 l8 0 m0 8 l-8 0 m0 -8 M216 168 m8 0 l0 8 l-8 0 m0 -8 M224 168 l8 0 m0 8 l-8 0 l0 -8 M232 168 l8 0 l0 8 m-8 0 m0 -8 M0 160 m8 0 m0 8 m-8 0 l0 -8 M8 160 m8 0 l0 8 l-8 0 m0 -8 M16 160 m8 0 m0 8 l-8 0 l0 -8 M24 160 l8 0 l0 8 m-8 0 m0 -8 M32 160 m8 0 m0 8 l-8 0 l0 -8 M40 160 m8 0 l0 8 l-8 0 m0 -8 M48 160 l8 0 m0 8 m-8 0 l0 -8 M56 160 l8 0 m0 8 l-8 0 m0 -8 M64 160 m8 0 l0 8 l-8 0 m0 -8 M72 160 m8 0 l0 8 m-8 0 l0 -8 M80 160 m8 0 l0 8 m-8 0 l0 -8 M88 160 l8 0 m0 8 l-8 0 l0 -8 M96 160 l8 0 m0 8 m-8 0 m0 -8 M104 160 m8 0 l0 8 l-8 0 m0 -8 M112 160 m8 0 m0 8 l-8 0 l0 -8 M120 160 l8 0 m0 8 l-8 0 m0 -8 M128 160 m8 0 l0 8 l-8 0 m0 -8 M136 160 m8 0 l0 8 m-8 0 l0 -8 M144 160 m8 0 l0 8 m-8 0 l0 -8 M152 160 l8 0 m0 8 m-8 0 l0 -8 M160 160 l8 0 l0 8 m-8 0 m0 -8 M168 160 l8 0 m0 8 m-8 0 l0 -8 M176 160 m8 0 l0 8 l-8 0 m0 -8 M184 160 l8 0 m0 8 m-8 0 l0 -8 M192 160 l8 0 m0 8 l-8 0 m0 -8 M200 160 m8 0 l0 8 l-8 0 m0 -8 M208 160 m8 0 l0 8 l-8 0 l0 -8 M216 160 l8 0 m0 8 m-8 0 l0 -8 M224 160 l8 0 m0 8 l-8 0 m0 -8 M232 160 m8 0 l0 8 l-8 0 m0 -8 M0 152 m8 0 l0 8 m-8 0 l0 -8 M8 152 m8 0 l0 8 m-8 0 l0 -8 M16 152 l8 0 m0 8 m-8 0 l0 -8 M24 152 m8 0 l0 8 l-8 0 m0 -8 M32 152 m8 0 l0 8 m-8 0 l0 -8 M40 152 l8 0 m0 8 m-8 0 l0 -8 M48 152 m8 0 l0 8 l-8 0 m0 -8 M56 152 l8 0 m0 8 l-8 0 l0 -8 M64 152 l8 0 l0 8 m-8 0 m0 -8 M72 152 m8 0 l0 8 m-8 0 l0 -8 M80 152 l8 0 m0 8 m-8 0 l0 -8 M88 152 m8 0 l0 8 l-8 0 m0 -8 M96 152 l8 0 m0 8 l-8 0 l0 -8 M104 152 l8 0 l0 8 m-8 0 m0 -8 M112 152 m8 0 l0 8 m-8 0 l0 -8 M120 152 m8 0 l0 8 l-8 0 l0 -8 M128 152 m8 0 l0 8 m-8 0 l0 -8 M136 152 l8 0 l0 8 m-8 0 l0 -8 M144 152 m8 0 l0 8 m-8 0 l0 -8 M152 152 m8 0 m0 8 l-8 0 l0 -8 M160 152 m8 0 m0 8 l-8 0 m0 -8 M168 152 l8 0 l0 8 l-8 0 m0 -8 M176 152 l8 0 m0 8 m-8 0 l0 -8 M184 152 l8 0 m0 8 l-8 0 m0 -8 M192 152 m8 0 l0 8 l-8 0 m0 -8 M200 152 l8 0 m0 8 m-8 0 l0 -8 M208 152 m8 0 l0 8 m-8 0 m0 -8 M216 152 l8 0 m0 8 l-8 0 l0 -8 M224 152 m8 0 l0 8 l-8 0 m0 -8 M232 152 m8 0 l0 8 m-8 0 l0 -8 M0 144 m8 0 l0 8 m-8 0 l0 -8 M8 144 l8 0 m0 8 m-8 0 l0 -8 M16 144 l8 0 m0 8 l-8 0 m0 -8 M24 144 l8 0 l0 8 m-8 0 m0 -8 M32 144 m8 0 l0 8 m-8 0 l0 -8 M40 144 l8 0 m0 8 l-8 0 l0 -8 M48 144 l8 0 m0 8 m-8 0 m0 -8 M56 144 l8 0 m0 8 l-8 0 m0 -8 M64 144 m8 0 l0 8 l-8 0 m0 -8 M72 144 l8 0 m0 8 m-8 0 l0 -8 M80 144 m8 0 l0 8 l-8 0 m0 -8 M88 144 l8 0 m0 8 m-8 0 l0 -8 M96 144 l8 0 m0 8 l-8 0 m0 -8 M104 144 m8 0 l0 8 l-8 0 m0 -8 M112 144 m8 0 l0 8 m-8 0 l0 -8 M120 144 m8 0 l0 8 m-8 0 l0 -8 M128 144 l8 0 m0 8 m-8 0 l0 -8 M136 144 l8 0 m0 8 l-8 0 m0 -8 M144 144 l8 0 l0 8 m-8 0 m0 -8 M152 144 m8 0 l0 8 m-8 0 l0 -8 M160 144 l8 0 m0 8 m-8 0 l0 -8 M168 144 l8 0 m0 8 l-8 0 m0 -8 M176 144 m8 0 m0 8 l-8 0 m0 -8 M184 144 l8 0 l0 8 l-8 0 m0 -8 M192 144 m8 0 l0 8 m-8 0 l0 -8 M200 144 m8 0 l0 8 l-8 0 l0 -8 M208 144 l8 0 m0 8 m-8 0 l0 -8 M216 144 l8 0 m0 8 l-8 0 m0 -8 M224 144 m8 0 l0 8 m-8 0 m0 -8 M232 144 m8 0 l0 8 m-8 0 l0 -8 M0 136 m8 0 l0 8 m-8 0 l0 -8 M8 136 l8 0 m0 8 l-8 0 l0 -8 M16 136 m8 0 m0 8 l-8 0 m0 -8 M24 136 l8 0 l0 8 l-8 0 m0 -8 M32 136 m8 0 l0 8 m-8 0 l0 -8 M40 136 m8 0 m0 8 l-8 0 l0 -8 M48 136 m8 0 l0 8 l-8 0 m0 -8 M56 136 m8 0 l0 8 l-8 0 l0 -8 M64 136 l8 0 m0 8 m-8 0 l0 -8 M72 136 m8 0 l0 8 l-8 0 m0 -8 M80 136 m8 0 m0 8 m-8 0 l0 -8 M88 136 m8 0 l0 8 l-8 0 m0 -8 M96 136 m8 0 l0 8 l-8 0 l0 -8 M104 136 l8 0 m0 8 m-8 0 l0 -8 M112 136 l8 0 l0 8 m-8 0 m0 -8 M120 136 m8 0 m0 8 m-8 0 l0 -8 M128 136 l8 0 m0 8 l-8 0 m0 -8 M136 136 l8 0 m0 8 l-8 0 m0 -8 M144 136 l8 0 m0 8 l-8 0 m0 -8 M152 136 l8 0 l0 8 m-8 0 m0 -8 M160 136 m8 0 m0 8 l-8 0 l0 -8 M168 136 l8 0 l0 8 l-8 0 m0 -8 M176 136 l8 0 m0 8 m-8 0 l0 -8 M184 136 l8 0 m0 8 l-8 0 m0 -8 M192 136 l8 0 l0 8 m-8 0 m0 -8 M200 136 l8 0 m0 8 m-8 0 l0 -8 M208 136 m8 0 m0 8 l-8 0 m0 -8 M216 136 l8 0 m0 8 l-8 0 m0 -8 M224 136 l8 0 l0 8 m-8 0 m0 -8 M232 136 m8 0 l0 8 m-8 0 l0 -8 M0 128 l8 0 m0 8 m-8 0 l0 -8 M8 128 l8 0 m0 8 l-8 0 m0 -8 M16 128 m8 0 l0 8 m-8 0 m0 -8 M24 128 m8 0 m0 8 l-8 0 l0 -8 M32 128 l8 0 l0 8 m-8 0 m0 -8 M40 128 m8 0 l0 8 m-8 0 l0 -8 M48 128 m8 0 l0 8 m-8 0 l0 -8 M56 128 m8 0 m0 8 m-8 0 l0 -8 M64 128 m8 0 l0 8 l-8 0 m0 -8 M72 128 m8 0 l0 8 m-8 0 l0 -8 M80 128 m8 0 l0 8 m-8 0 l0 -8 M88 128 l8 0 m0 8 m-8 0 l0 -8 M96 128 l8 0 m0 8 m-8 0 m0 -8 M104 128 m8 0 l0 8 l-8 0 m0 -8 M112 128 m8 0 l0 8 l-8 0 l0 -8 M120 128 l8 0 m0 8 m-8 0 l0 -8 M128 128 l8 0 m0 8 l-8 0 m0 -8 M136 128 l8 0 m0 8 l-8 0 m0 -8 M144 128 l8 0 m0 8 l-8 0 m0 -8 M152 128 m8 0 l0 8 l-8 0 m0 -8 M160 128 l8 0 m0 8 m-8 0 l0 -8 M168 128 m8 0 m0 8 l-8 0 m0 -8 M176 128 l8 0 m0 8 l-8 0 m0 -8 M184 128 l8 0 m0 8 l-8 0 m0 -8 M192 128 m8 0 m0 8 l-8 0 m0 -8 M200 128 m8 0 l0 8 l-8 0 m0 -8 M208 128 l8 0 l0 8 m-8 0 l0 -8 M216 128 m8 0 m0 8 l-8 0 l0 -8 M224 128 m8 0 l0 8 l-8 0 m0 -8 M232 128 m8 0 l0 8 m-8 0 l0 -8 M0 120 l8 0 m0 8 l-8 0 l0 -8 M8 120 l8 0 m0 8 l-8 0 m0 -8 M16 120 l8 0 l0 8 m-8 0 m0 -8 M24 120 m8 0 l0 8 m-8 0 l0 -8 M32 120 m8 0 m0 8 l-8 0 l0 -8 M40 120 l8 0 l0 8 m-8 0 m0 -8 M48 120 m8 0 l0 8 m-8 0 l0 -8 M56 120 l8 0 l0 8 m-8 0 l0 -8 M64 120 m8 0 m0 8 m-8 0 l0 -8 M72 120 l8 0 l0 8 m-8 0 m0 -8 M80 120 m8 0 l0 8 m-8 0 l0 -8 M88 120 m8 0 m0 8 l-8 0 l0 -8 M96 120 m8 0 l0 8 l-8 0 m0 -8 M104 120 l8 0 m0 8 m-8 0 l0 -8 M112 120 m8 0 l0 8 m-8 0 m0 -8 M120 120 m8 0 m0 8 l-8 0 l0 -8 M128 120 m8 0 m0 8 l-8 0 m0 -8 M136 120 m8 0 l0 8 l-8 0 m0 -8 M144 120 m8 0 l0 8 l-8 0 l0 -8 M152 120 l8 0 m0 8 m-8 0 l0 -8 M160 120 m8 0 l0 8 l-8 0 m0 -8 M168 120 l8 0 m0 8 m-8 0 l0 -8 M176 120 l8 0 m0 8 l-8 0 m0 -8 M184 120 l8 0 l0 8 l-8 0 m0 -8 M192 120 m8 0 l0 8 m-8 0 l0 -8 M200 120 l8 0 m0 8 m-8 0 l0 -8 M208 120 l8 0 m0 8 l-8 0 m0 -8 M216 120 l8 0 l0 8 m-8 0 m0 -8 M224 120 l8 0 m0 8 m-8 0 l0 -8 M232 120 m8 0 l0 8 m-8 0 m0 -8 M0 112 m8 0 m0 8 l-8 0 l0 -8 M8 112 l8 0 m0 8 l-8 0 m0 -8 M16 112 m8 0 l0 8 l-8 0 m0 -8 M24 112 m8 0 l0 8 m-8 0 l0 -8 M32 112 l8 0 m0 8 m-8 0 l0 -8 M40 112 m8 0 l0 8 l-8 0 m0 -8 M48 112 l8 0 m0 8 m-8 0 l0 -8 M56 112 m8 0 l0 8 l-8 0 m0 -8 M64 112 m8 0 m0 8 m-8 0 l0 -8 M72 112 l8 0 m0 8 l-8 0 m0 -8 M80 112 l8 0 l0 8 m-8 0 m0 -8 M88 112 m8 0 l0 8 m-8 0 l0 -8 M96 112 m8 0 l0 8 m-8 0 l0 -8 M104 112 m8 0 m0 8 l-8 0 l0 -8 M112 112 l8 0 l0 8 m-8 0 m0 -8 M120 112 m8 0 l0 8 m-8 0 l0 -8 M128 112 m8 0 l0 8 m-8 0 l0 -8 M136 112 l8 0 m0 8 m-8 0 l0 -8 M144 112 l8 0 m0 8 m-8 0 m0 -8 M152 112 m8 0 l0 8 l-8 0 m0 -8 M160 112 m8 0 l0 8 m-8 0 l0 -8 M168 112 m8 0 m0 8 l-8 0 l0 -8 M176 112 l8 0 m0 8 l-8 0 m0 -8 M184 112 l8 0 m0 8 l-8 0 m0 -8 M192 112 l8 0 l0 8 m-8 0 m0 -8 M200 112 l8 0 m0 8 l-8 0 l0 -8 M208 112 m8 0 m0 8 l-8 0 m0 -8 M216 112 m8 0 m0 8 l-8 0 m0 -8 M224 112 l8 0 l0 8 l-8 0 m0 -8 M232 112 m8 0 l0 8 m-8 0 l0 -8 M0 104 m8 0 l0 8 m-8 0 l0 -8 M8 104 m8 0 l0 8 l-8 0 l0 -8 M16 104 m8 0 l0 8 m-8 0 l0 -8 M24 104 m8 0 l0 8 m-8 0 l0 -8 M32 104 m8 0 m0 8 l-8 0 l0 -8 M40 104 l8 0 l0 8 m-8 0 m0 -8 M48 104 m8 0 m0 8 l-8 0 l0 -8 M56 104 l8 0 l0 8 m-8 0 m0 -8 M64 104 m8 0 l0 8 m-8 0 l0 -8 M72 104 m8 0 m0 8 l-8 0 l0 -8 M80 104 l8 0 m0 8 l-8 0 m0 -8 M88 104 l8 0 l0 8 m-8 0 m0 -8 M96 104 m8 0 l0 8 m-8 0 l0 -8 M104 104 l8 0 m0 8 m-8 0 l0 -8 M112 104 l8 0 l0 8 l-8 0 m0 -8 M120 104 m8 0 l0 8 m-8 0 l0 -8 M128 104 l8 0 m0 8 m-8 0 l0 -8 M136 104 m8 0 l0 8 l-8 0 m0 -8 M144 104 m8 0 m0 8 l-8 0 l0 -8 M152 104 l8 0 l0 8 m-8 0 m0 -8 M160 104 l8 0 m0 8 m-8 0 l0 -8 M168 104 l8 0 l0 8 m-8 0 m0 -8 M176 104 l8 0 m0 8 l-8 0 l0 -8 M184 104 m8 0 m0 8 l-8 0 m0 -8 M192 104 l8 0 m0 8 l-8 0 m0 -8 M200 104 m8 0 l0 8 l-8 0 m0 -8 M208 104 l8 0 l0 8 m-8 0 l0 -8 M216 104 m8 0 l0 8 m-8 0 l0 -8 M224 104 m8 0 m0 8 l-8 0 l0 -8 M232 104 l8 0 l0 8 m-8 0 m0 -8 M0 96 m8 0 l0 8 m-8 0 l0 -8 M8 96 l8 0 m0 8 m-8 0 l0 -8 M16 96 l8 0 m0 8 m-8 0 m0 -8 M24 96 l8 0 l0 8 m-8 0 m0 -8 M32 96 l8 0 m0 8 m-8 0 l0 -8 M40 96 m8 0 l0 8 l-8 0 m0 -8 M48 96 m8 0 l0 8 m-8 0 l0 -8 M56 96 m8 0 l0 8 l-8 0 l0 -8 M64 96 m8 0 l0 8 m-8 0 l0 -8 M72 96 m8 0 l0 8 m-8 0 l0 -8 M80 96 l8 0 m0 8 l-8 0 l0 -8 M88 96 m8 0 l0 8 l-8 0 m0 -8 M96 96 m8 0 l0 8 m-8 0 l0 -8 M104 96 m8 0 m0 8 l-8 0 l0 -8 M112 96 l8 0 m0 8 l-8 0 m0 -8 M120 96 l8 0 l0 8 m-8 0 m0 -8 M128 96 m8 0 l0 8 l-8 0 l0 -8 M136 96 m8 0 l0 8 m-8 0 l0 -8 M144 96 m8 0 l0 8 m-8 0 l0 -8 M152 96 l8 0 m0 8 l-8 0 l0 -8 M160 96 m8 0 m0 8 l-8 0 m0 -8 M168 96 l8 0 m0 8 l-8 0 m0 -8 M176 96 m8 0 l0 8 l-8 0 m0 -8 M184 96 l8 0 m0 8 m-8 0 l0 -8 M192 96 m8 0 l0 8 l-8 0 m0 -8 M200 96 l8 0 m0 8 m-8 0 l0 -8 M208 96 m8 0 l0 8 l-8 0 m0 -8 M216 96 m8 0 l0 8 m-8 0 l0 -8 M224 96 l8 0 m0 8 m-8 0 l0 -8 M232 96 m8 0 l0 8 l-8 0 m0 -8 M0 88 m8 0 m0 8 m-8 0 l0 -8 M8 88 l8 0 m0 8 l-8 0 m0 -8 M16 88 l8 0 m0 8 l-8 0 m0 -8 M24 88 l8 0 m0 8 l-8 0 m0 -8 M32 88 m8 0 l0 8 l-8 0 m0 -8 M40 88 m8 0 l0 8 m-8 0 l0 -8 M48 88 m8 0 l0 8 m-8 0 l0 -8 M56 88 l8 0 m0 8 m-8 0 l0 -8 M64 88 l8 0 l0 8 m-8 0 m0 -8 M72 88 l8 0 m0 8 m-8 0 l0 -8 M80 88 l8 0 m0 8 l-8 0 m0 -8 M88 88 m8 0 l0 8 m-8 0 m0 -8 M96 88 l8 0 m0 8 m-8 0 l0 -8 M104 88 l8 0 l0 8 m-8 0 m0 -8 M112 88 l8 0 m0 8 l-8 0 l0 -8 M120 88 m8 0 m0 8 l-8 0 m0 -8 M128 88 m8 0 l0 8 m-8 0 m0 -8 M136 88 m8 0 l0 8 m-8 0 l0 -8 M144 88 l8 0 m0 8 m-8 0 l0 -8 M152 88 l8 0 m0 8 l-8 0 m0 -8 M160 88 l8 0 l0 8 m-8 0 m0 -8 M168 88 m8 0 l0 8 l-8 0 l0 -8 M176 88 l8 0 m0 8 m-8 0 l0 -8 M184 88 m8 0 l0 8 l-8 0 m0 -8 M192 88 m8 0 l0 8 m-8 0 l0 -8 M200 88 m8 0 l0 8 l-8 0 l0 -8 M208 88 l8 0 m0 8 m-8 0 l0 -8 M216 88 l8 0 m0 8 m-8 0 m0 -8 M224 88 m8 0 l0 8 l-8 0 m0 -8 M232 88 m8 0 l0 8 m-8 0 l0 -8 M0 80 l8 0 l0 8 m-8 0 l0 -8 M8 80 m8 0 m0 8 l-8 0 l0 -8 M16 80 l8 0 m0 8 l-8 0 m0 -8 M24 80 l8 0 m0 8 l-8 0 m0 -8 M32 80 l8 0 l0 8 m-8 0 m0 -8 M40 80 m8 0 l0 8 m-8 0 l0 -8 M48 80 l8 0 m0 8 m-8 0 l0 -8 M56 80 l8 0 m0 8 l-8 0 m0 -8 M64 80 l8 0 m0 8 l-8 0 m0 -8 M72 80 l8 0 m0 8 l-8 0 m0 -8 M80 80 l8 0 m0 8 l-8 0 m0 -8 M88 80 l8 0 l0 8 m-8 0 m0 -8 M96 80 m8 0 m0 8 l-8 0 l0 -8 M104 80 m8 0 m0 8 l-8 0 m0 -8 M112 80 m8 0 l0 8 l-8 0 m0 -8 M120 80 l8 0 l0 8 m-8 0 l0 -8 M128 80 m8 0 l0 8 m-8 0 l0 -8 M136 80 m8 0 l0 8 m-8 0 l0 -8 M144 80 l8 0 m0 8 l-8 0 l0 -8 M152 80 l8 0 m0 8 l-8 0 m0 -8 M160 80 l8 0 m0 8 l-8 0 m0 -8 M168 80 m8 0 m0 8 m-8 0 m0 -8 M176 80 l8 0 l0 8 l-8 0 m0 -8 M184 80 m8 0 l0 8 m-8 0 l0 -8 M192 80 m8 0 l0 8 m-8 0 l0 -8 M200 80 m8 0 l0 8 m-8 0 l0 -8 M208 80 m8 0 m0 8 l-8 0 l0 -8 M216 80 m8 0 l0 8 l-8 0 m0 -8 M224 80 m8 0 l0 8 m-8 0 l0 -8 M232 80 m8 0 l0 8 m-8 0 l0 -8 M0 72 m8 0 m0 8 l-8 0 l0 -8 M8 72 m8 0 l0 8 m-8 0 m0 -8 M16 72 m8 0 m0 8 l-8 0 l0 -8 M24 72 l8 0 m0 8 l-8 0 m0 -8 M32 72 m8 0 l0 8 l-8 0 m0 -8 M40 72 m8 0 l0 8 m-8 0 l0 -8 M48 72 m8 0 m0 8 l-8 0 l0 -8 M56 72 l8 0 l0 8 l-8 0 m0 -8 M64 72 m8 0 m0 8 l-8 0 l0 -8 M72 72 m8 0 l0 8 l-8 0 m0 -8 M80 72 m8 0 m0 8 l-8 0 l0 -8 M88 72 l8 0 m0 8 l-8 0 m0 -8 M96 72 l8 0 l0 8 m-8 0 m0 -8 M104 72 m8 0 l0 8 m-8 0 l0 -8 M112 72 m8 0 l0 8 m-8 0 l0 -8 M120 72 m8 0 m0 8 l-8 0 l0 -8 M128 72 l8 0 l0 8 m-8 0 m0 -8 M136 72 l8 0 m0 8 m-8 0 l0 -8 M144 72 l8 0 m0 8 l-8 0 m0 -8 M152 72 l8 0 m0 8 l-8 0 m0 -8 M160 72 m8 0 l0 8 l-8 0 m0 -8 M168 72 l8 0 m0 8 m-8 0 l0 -8 M176 72 m8 0 m0 8 l-8 0 m0 -8 M184 72 l8 0 l0 8 m-8 0 m0 -8 M192 72 m8 0 l0 8 m-8 0 l0 -8 M200 72 m8 0 l0 8 m-8 0 l0 -8 M208 72 m8 0 l0 8 m-8 0 l0 -8 M216 72 l8 0 m0 8 m-8 0 l0 -8 M224 72 l8 0 l0 8 m-8 0 m0 -8 M232 72 m8 0 l0 8 m-8 0 l0 -8 M0 64 m8 0 l0 8 m-8 0 l0 -8 M8 64 l8 0 l0 8 m-8 0 l0 -8 M16 64 m8 0 l0 8 m-8 0 l0 -8 M24 64 m8 0 l0 8 l-8 0 l0 -8 M32 64 l8 0 m0 8 m-8 0 l0 -8 M40 64 l8 0 l0 8 m-8 0 m0 -8 M48 64 m8 0 m0 8 m-8 0 l0 -8 M56 64 l8 0 m0 8 l-8 0 m0 -8 M64 64 l8 0 l0 8 m-8 0 m0 -8 M72 64 m8 0 l0 8 m-8 0 l0 -8 M80 64 m8 0 l0 8 m-8 0 l0 -8 M88 64 m8 0 m0 8 l-8 0 l0 -8 M96 64 l8 0 l0 8 l-8 0 m0 -8 M104 64 m8 0 l0 8 m-8 0 l0 -8 M112 64 m8 0 l0 8 m-8 0 l0 -8 M120 64 m8 0 l0 8 m-8 0 l0 -8 M128 64 m8 0 m0 8 l-8 0 l0 -8 M136 64 m8 0 m0 8 l-8 0 m0 -8 M144 64 l8 0 m0 8 l-8 0 m0 -8 M152 64 m8 0 l0 8 l-8 0 m0 -8 M160 64 l8 0 m0 8 m-8 0 l0 -8 M168 64 m8 0 l0 8 l-8 0 m0 -8 M176 64 l8 0 m0 8 m-8 0 l0 -8 M184 64 m8 0 l0 8 l-8 0 m0 -8 M192 64 m8 0 l0 8 m-8 0 l0 -8 M200 64 m8 0 l0 8 m-8 0 l0 -8 M208 64 l8 0 m0 8 m-8 0 l0 -8 M216 64 m8 0 l0 8 l-8 0 m0 -8 M224 64 m8 0 m0 8 l-8 0 l0 -8 M232 64 l8 0 l0 8 m-8 0 m0 -8 M0 56 l8 0 m0 8 m-8 0 l0 -8 M8 56 m8 0 l0 8 l-8 0 m0 -8 M16 56 l8 0 m0 8 m-8 0 l0 -8 M24 56 l8 0 m0 8 m-8 0 m0 -8 M32 56 l8 0 m0 8 l-8 0 m0 -8 M40 56 m8 0 l0 8 l-8 0 m0 -8 M48 56 m8 0 m0 8 m-8 0 l0 -8 M56 56 l8 0 l0 8 l-8 0 m0 -8 M64 56 m8 0 m0 8 l-8 0 l0 -8 M72 56 m8 0 l0 8 m-8 0 m0 -8 M80 56 m8 0 l0 8 m-8 0 l0 -8 M88 56 l8 0 m0 8 m-8 0 l0 -8 M96 56 m8 0 l0 8 l-8 0 m0 -8 M104 56 m8 0 l0 8 m-8 0 l0 -8 M112 56 m8 0 l0 8 m-8 0 l0 -8 M120 56 l8 0 m0 8 m-8 0 l0 -8 M128 56 l8 0 l0 8 m-8 0 m0 -8 M136 56 m8 0 l0 8 m-8 0 l0 -8 M144 56 m8 0 l0 8 l-8 0 l0 -8 M152 56 l8 0 m0 8 m-8 0 l0 -8 M160 56 m8 0 l0 8 l-8 0 m0 -8 M168 56 m8 0 l0 8 m-8 0 l0 -8 M176 56 m8 0 l0 8 l-8 0 l0 -8 M184 56 l8 0 m0 8 m-8 0 l0 -8 M192 56 l8 0 l0 8 m-8 0 m0 -8 M200 56 m8 0 l0 8 m-8 0 l0 -8 M208 56 m8 0 m0 8 l-8 0 l0 -8 M216 56 l8 0 l0 8 m-8 0 m0 -8 M224 56 l8 0 m0 8 m-8 0 l0 -8 M232 56 m8 0 l0 8 l-8 0 m0 -8 M0 48 m8 0 m0 8 l-8 0 l0 -8 M8 48 l8 0 l0 8 m-8 0 m0 -8 M16 48 m8 0 m0 8 l-8 0 l0 -8 M24 48 l8 0 m0 8 l-8 0 m0 -8 M32 48 l8 0 m0 8 l-8 0 m0 -8 M40 48 l8 0 l0 8 m-8 0 m0 -8 M48 48 l8 0 l0 8 m-8 0 l0 -8 M56 48 m8 0 m0 8 l-8 0 l0 -8 M64 48 l8 0 l0 8 m-8 0 m0 -8 M72 48 m8 0 l0 8 m-8 0 l0 -8 M80 48 m8 0 l0 8 m-8 0 l0 -8 M88 48 m8 0 m0 8 l-8 0 l0 -8 M96 48 l8 0 l0 8 m-8 0 m0 -8 M104 48 m8 0 l0 8 m-8 0 l0 -8 M112 48 l8 0 m0 8 m-8 0 l0 -8 M120 48 l8 0 m0 8 l-8 0 m0 -8 M128 48 l8 0 m0 8 l-8 0 m0 -8 M136 48 l8 0 l0 8 m-8 0 m0 -8 M144 48 m8 0 l0 8 m-8 0 l0 -8 M152 48 m8 0 m0 8 l-8 0 l0 -8 M160 48 l8 0 l0 8 m-8 0 m0 -8 M168 48 m8 0 l0 8 m-8 0 l0 -8 M176 48 l8 0 m0 8 m-8 0 l0 -8 M184 48 m8 0 m0 8 l-8 0 m0 -8 M192 48 m8 0 m0 8 l-8 0 m0 -8 M200 48 m8 0 l0 8 m-8 0 m0 -8 M208 48 m8 0 l0 8 m-8 0 l0 -8 M216 48 l8 0 m0 8 l-8 0 l0 -8 M224 48 m8 0 l0 8 l-8 0 m0 -8 M232 48 m8 0 l0 8 m-8 0 l0 -8 M0 40 m8 0 m0 8 m-8 0 l0 -8 M8 40 l8 0 m0 8 l-8 0 m0 -8 M16 40 l8 0 l0 8 m-8 0 m0 -8 M24 40 m8 0 m0 8 l-8 0 l0 -8 M32 40 l8 0 m0 8 l-8 0 m0 -8 M40 40 l8 0 m0 8 l-8 0 m0 -8 M48 40 m8 0 l0 8 l-8 0 m0 -8 M56 40 m8 0 m0 8 m-8 0 l0 -8 M64 40 m8 0 l0 8 l-8 0 m0 -8 M72 40 l8 0 l0 8 m-8 0 l0 -8 M80 40 l8 0 m0 8 m-8 0 l0 -8 M88 40 m8 0 l0 8 m-8 0 m0 -8 M96 40 m8 0 m0 8 l-8 0 l0 -8 M104 40 l8 0 l0 8 m-8 0 m0 -8 M112 40 l8 0 m0 8 l-8 0 l0 -8 M120 40 m8 0 l0 8 l-8 0 m0 -8 M128 40 m8 0 m0 8 l-8 0 l0 -8 M136 40 l8 0 m0 8 l-8 0 m0 -8 M144 40 l8 0 m0 8 m-8 0 m0 -8 M152 40 l8 0 m0 8 m-8 0 m0 -8 M160 40 l8 0 l0 8 l-8 0 m0 -8 M168 40 l8 0 m0 8 m-8 0 l0 -8 M176 40 m8 0 l0 8 l-8 0 m0 -8 M184 40 m8 0 l0 8 m-8 0 l0 -8 M192 40 m8 0 l0 8 m-8 0 l0 -8 M200 40 l8 0 l0 8 m-8 0 l0 -8 M208 40 l8 0 m0 8 m-8 0 l0 -8 M216 40 m8 0 l0 8 l-8 0 m0 -8 M224 40 m8 0 l0 8 m-8 0 l0 -8 M232 40 m8 0 l0 8 m-8 0 l0 -8 M0 32 l8 0 m0 8 m-8 0 l0 -8 M8 32 l8 0 m0 8 l-8 0 m0 -8 M16 32 l8 0 m0 8 l-8 0 m0 -8 M24 32 l8 0 l0 8 m-8 0 m0 -8 M32 32 m8 0 l0 8 l-8 0 l0 -8 M40 32 m8 0 m0 8 l-8 0 l0 -8 M48 32 l8 0 l0 8 m-8 0 m0 -8 M56 32 m8 0 l0 8 m-8 0 l0 -8 M64 32 l8 0 m0 8 m-8 0 l0 -8 M72 32 l8 0 m0 8 l-8 0 m0 -8 M80 32 m8 0 l0 8 l-8 0 m0 -8 M88 32 m8 0 l0 8 m-8 0 l0 -8 M96 32 m8 0 l0 8 m-8 0 l0 -8 M104 32 m8 0 m0 8 l-8 0 l0 -8 M112 32 m8 0 l0 8 l-8 0 m0 -8 M120 32 l8 0 m0 8 m-8 0 l0 -8 M128 32 l8 0 m0 8 m-8 0 m0 -8 M136 32 m8 0 l0 8 l-8 0 m0 -8 M144 32 m8 0 l0 8 l-8 0 l0 -8 M152 32 m8 0 m0 8 l-8 0 l0 -8 M160 32 l8 0 m0 8 l-8 0 m0 -8 M168 32 l8 0 m0 8 l-8 0 m0 -8 M176 32 l8 0 l0 8 m-8 0 m0 -8 M184 32 m8 0 l0 8 m-8 0 l0 -8 M192 32 l8 0 m0 8 m-8 0 l0 -8 M200 32 l8 0 m0 8 l-8 0 m0 -8 M208 32 l8 0 m0 8 l-8 0 m0 -8 M216 32 l8 0 m0 8 m-8 0 m0 -8 M224 32 l8 0 l0 8 m-8 0 m0 -8 M232 32 m8 0 l0 8 m-8 0 l0 -8 M0 24 m8 0 m0 8 l-8 0 l0 -8 M8 24 l8 0 m0 8 l-8 0 m0 -8 M16 24 l8 0 m0 8 l-8 0 m0 -8 M24 24 l8 0 m0 8 l-8 0 m0 -8 M32 24 l8 0 l0 8 m-8 0 m0 -8 M40 24 l8 0 m0 8 m-8 0 l0 -8 M48 24 m8 0 l0 8 l-8 0 m0 -8 M56 24 m8 0 l0 8 m-8 0 l0 -8 M64 24 m8 0 m0 8 l-8 0 l0 -8 M72 24 l8 0 m0 8 l-8 0 m0 -8 M80 24 m8 0 l0 8 m-8 0 m0 -8 M88 24 m8 0 l0 8 m-8 0 l0 -8 M96 24 l8 0 m0 8 m-8 0 l0 -8 M104 24 l8 0 l0 8 m-8 0 m0 -8 M112 24 l8 0 m0 8 m-8 0 l0 -8 M120 24 m8 0 l0 8 l-8 0 m0 -8 M128 24 m8 0 l0 8 l-8 0 l0 -8 M136 24 m8 0 l0 8 m-8 0 l0 -8 M144 24 m8 0 l0 8 m-8 0 l0 -8 M152 24 l8 0 m0 8 m-8 0 l0 -8 M160 24 m8 0 l0 8 l-8 0 m0 -8 M168 24 l8 0 m0 8 l-8 0 l0 -8 M176 24 l8 0 m0 8 l-8 0 m0 -8 M184 24 m8 0 l0 8 m-8 0 m0 -8 M192 24 m8 0 m0 8 l-8 0 l0 -8 M200 24 m8 0 l0 8 l-8 0 m0 -8 M208 24 m8 0 m0 8 l-8 0 l0 -8 M216 24 l8 0 m0 8 l-8 0 m0 -8 M224 24 l8 0 m0 8 l-8 0 m0 -8 M232 24 l8 0 l0 8 m-8 0 m0 -8 M0 16 m8 0 l0 8 m-8 0 l0 -8 M8 16 m8 0 m0 8 l-8 0 l0 -8 M16 16 l8 0 m0 8 l-8 0 m0 -8 M24 16 m8 0 l0 8 l-8 0 m0 -8 M32 16 m8 0 m0 8 l-8 0 l0 -8 M40 16 l8 0 m0 8 l-8 0 m0 -8 M48 16 l8 0 l0 8 m-8 0 m0 -8 M56 16 m8 0 l0 8 m-8 0 l0 -8 M64 16 m8 0 l0 8 m-8 0 l0 -8 M72 16 l8 0 m0 8 l-8 0 l0 -8 M80 16 l8 0 l0 8 m-8 0 m0 -8 M88 16 m8 0 l0 8 m-8 0 l0 -8 M96 16 m8 0 m0 8 l-8 0 l0 -8 M104 16 l8 0 m0 8 l-8 0 m0 -8 M112 16 l8 0 m0 8 l-8 0 m0 -8 M120 16 l8 0 l0 8 m-8 0 m0 -8 M128 16 m8 0 l0 8 m-8 0 l0 -8 M136 16 l8 0 m0 8 m-8 0 l0 -8 M144 16 m8 0 l0 8 m-8 0 m0 -8 M152 16 m8 0 l0 8 l-8 0 l0 -8 M160 16 l8 0 m0 8 m-8 0 l0 -8 M168 16 l8 0 m0 8 l-8 0 m0 -8 M176 16 m8 0 l0 8 l-8 0 m0 -8 M184 16 l8 0 m0 8 m-8 0 l0 -8 M192 16 l8 0 l0 8 m-8 0 m0 -8 M200 16 l8 0 l0 8 m-8 0 l0 -8 M208 16 l8 0 m0 8 m-8 0 l0 -8 M216 16 l8 0 m0 8 l-8 0 m0 -8 M224 16 l8 0 m0 8 l-8 0 m0 -8 M232 16 m8 0 l0 8 l-8 0 m0 -8 M0 8 m8 0 l0 8 m-8 0 l0 -8 M8 8 m8 0 l0 8 m-8 0 l0 -8 M16 8 m8 0 l0 8 l-8 0 l0 -8 M24 8 m8 0 l0 8 m-8 0 l0 -8 M32 8 l8 0 m0 8 m-8 0 l0 -8 M40 8 l8 0 m0 8 l-8 0 m0 -8 M48 8 m8 0 l0 8 l-8 0 m0 -8 M56 8 l8 0 l0 8 m-8 0 l0 -8 M64 8 l8 0 m0 8 m-8 0 l0 -8 M72 8 l8 0 m0 8 l-8 0 m0 -8 M80 8 l8 0 m0 8 l-8 0 m0 -8 M88 8 l8 0 l0 8 m-8 0 m0 -8 M96 8 m8 0 l0 8 m-8 0 l0 -8 M104 8 m8 0 l0 8 l-8 0 l0 -8 M112 8 m8 0 m0 8 l-8 0 l0 -8 M120 8 l8 0 m0 8 l-8 0 m0 -8 M128 8 m8 0 m0 8 m-8 0 m0 -8 M136 8 l8 0 l0 8 l-8 0 m0 -8 M144 8 m8 0 l0 8 m-8 0 l0 -8 M152 8 l8 0 m0 8 m-8 0 l0 -8 M160 8 l8 0 m0 8 l-8 0 m0 -8 M168 8 m8 0 l0 8 l-8 0 m0 -8 M176 8 l8 0 m0 8 m-8 0 l0 -8 M184 8 m8 0 l0 8 l-8 0 m0 -8 M192 8 m8 0 m0 8 l-8 0 l0 -8 M200 8 l8 0 m0 8 l-8 0 m0 -8 M208 8 l8 0 m0 8 l-8 0 m0 -8 M216 8 m8 0 m0 8 l-8 0 m0 -8 M224 8 l8 0 l0 8 l-8 0 m0 -8 M232 8 m8 0 l0 8 m-8 0 l0 -8 M0 0 l8 0 m0 8 m-8 0 l0 -8 M8 0 l8 0 m0 8 m-8 0 m0 -8 M16 0 l8 0 l0 8 m-8 0 m0 -8 M24 0 l8 0 m0 8 m-8 0 l0 -8 M32 0 l8 0 m0 8 l-8 0 m0 -8 M40 0 l8 0 m0 8 l-8 0 m0 -8 M48 0 l8 0 m0 8 m-8 0 m0 -8 M56 0 l8 0 m0 8 l-8 0 m0 -8 M64 0 l8 0 m0 8 l-8 0 m0 -8 M72 0 l8 0 m0 8 l-8 0 m0 -8 M80 0 l8 0 m0 8 l-8 0 m0 -8 M88 0 l8 0 m0 8 l-8 0 m0 -8 M96 0 l8 0 l0 8 m-8 0 m0 -8 M104 0 l8 0 m0 8 m-8 0 l0 -8 M112 0 l8 0 m0 8 m-8 0 m0 -8 M120 0 l8 0 l0 8 l-8 0 m0 -8 M128 0 l8 0 m0 8 m-8 0 l0 -8 M136 0 l8 0 m0 8 l-8 0 m0 -8 M144 0 l8 0 m0 8 m-8 0 m0 -8 M152 0 l8 0 m0 8 l-8 0 m0 -8 M160 0 l8 0 m0 8 l-8 0 m0 -8 M168 0 l8 0 m0 8 m-8 0 m0 -8 M176 0 l8 0 l0 8 l-8 0 m0 -8 M184 0 l8 0 m0 8 m-8 0 l0 -8 M192 0 l8 0 m0 8 m-8 0 m0 -8 M200 0 l8 0 m0 8 l-8 0 m0 -8 M208 0 l8 0 l0 8 l-8 0 m0 -8 M216 0 l8 0 m0 8 m-8 0 l0 -8 M224 0 l8 0 m0 8 l-8 0 m0 -8 M232 0 l8 0 l0 8 m-8 0 m0 -8 " fill="none" stroke="black" stroke-width="2" />
</svg>
