<svg>
<path d="M0 0 z l8 0 z m0 8 z l-8 0 z l0 -8 z "  stroke="black" />
<path d="M8 0 z l8 0 z l0 8 z m-8 0 z m0 -8 z "  stroke="black" />
<path d="M16 0 z l8 0 z l0 8 z m-8 0 z m0 -8 z "  stroke="black" />
<path d="M24 0 z l8 0 z m0 8 z m-8 0 z m0 -8 z "  stroke="black" />
<path d="M32 0 z l8 0 z m0 8 z m-8 0 z m0 -8 z "  stroke="black" />
<path d="M40 0 z l8 0 z m0 8 z l-8 0 z l0 -8 z "  stroke="black" />
<path d="M48 0 z l8 0 z l0 8 z m-8 0 z m0 -8 z "  stroke="black" />
<path d="M56 0 z l8 0 z m0 8 z l-8 0 z l0 -8 z "  stroke="black" />
<path d="M64 0 z l8 0 z m0 8 z m-8 0 z m0 -8 z "  stroke="black" />
<path d="M72 0 z l8 0 z m0 8 z l-8 0 z l0 -8 z "  stroke="black" />
<path d="M80 0 z l8 0 z m0 8 z l-8 0 z l0 -8 z "  stroke="black" />
<path d="M88 0 z l8 0 z l0 8 z m-8 0 z m0 -8 z "  stroke="black" />
<path d="M96 0 z l8 0 z l0 8 z m-8 0 z m0 -8 z "  stroke="black" />
<path d="M104 0 z l8 0 z m0 8 z m-8 0 z m0 -8 z "  stroke="black" />
<path d="M112 0 z l8 0 z m0 8 z l-8 0 z l0 -8 z "  stroke="black" />
<path d="M120 0 z l8 0 z l0 8 z m-8 0 z m0 -8 z "  stroke="black" />
<path d="M128 0 z l8 0 z m0 8 z m-8 0 z m0 -8 z "  stroke="black" />
<path d="M136 0 z l8 0 z m0 8 z l-8 0 z l0 -8 z "  stroke="black" />
<path d="M144 0 z l8 0 z m0 8 z m-8 0 z m0 -8 z "  stroke="black" />
<path d="M152 0 z l8 0 z m0 8 z l-8 0 z l0 -8 z "  stroke="black" />
<path d="M160 0 z l8 0 z l0 8 z l-8 0 z l0 -8 z "  stroke="black" />
<path d="M168 0 z l8 0 z m0 8 z m-8 0 z m0 -8 z "  stroke="black" />
<path d="M176 0 z l8 0 z m0 8 z m-8 0 z m0 -8 z "  stroke="black" />
<path d="M184 0 z l8 0 z m0 8 z l-8 0 z l0 -8 z "  stroke="black" />
<path d="M192 0 z l8 0 z m0 8 z l-8 0 z l0 -8 z "  stroke="black" />
<path d="M200 0 z l8 0 z l0 8 z m-8 0 z m0 -8 z "  stroke="black" />
<path d="M208 0 z l8 0 z m0 8 z l-8 0 z l0 -8 z "  stroke="black" />
<path d="M216 0 z l8 0 z m0 8 z l-8 0 z l0 -8 z "  stroke="black" />
<path d="M224 0 z l8 0 z m0 8 z m-8 0 z m0 -8 z "  stroke="black" />
<path d="M232 0 z l8 0 z l0 8 z m-8 0 z m0 -8 z "  stroke="black" />
<path d="M0 8 z l8 0 z l0 8 z m-8 0 z m0 -8 z "  stroke="black" />
<path d="M8 8 z m8 0 z l0 8 z m-8 0 z m0 -8 z "  stroke="black" />
<path d="M16 8 z m8 0 z m0 8 z m-8 0 z m0 -8 z "  stroke="black" />
<path d="M24 8 z m8 0 z l0 8 z l-8 0 z l0 -8 z "  stroke="black" />
<path d="M32 8 z m8 0 z l0 8 z m-8 0 z m0 -8 z "  stroke="black" />
<path d="M40 8 z l8 0 z l0 8 z m-8 0 z m0 -8 z "  stroke="black" />
<path d="M48 8 z m8 0 z m0 8 z l-8 0 z l0 -8 z "  stroke="black" />
<path d="M56 8 z l8 0 z m0 8 z l-8 0 z l0 -8 z "  stroke="black" />
<path d="M64 8 z m8 0 z l0 8 z l-8 0 z l0 -8 z "  stroke="black" />
<path d="M72 8 z l8 0 z m0 8 z l-8 0 z l0 -8 z "  stroke="black" />
<path d="M80 8 z l8 0 z l0 8 z m-8 0 z m0 -8 z "  stroke="black" />
<path d="M88 8 z m8 0 z l0 8 z m-8 0 z m0 -8 z "  stroke="black" />
<path d="M96 8 z m8 0 z l0 8 z m-8 0 z m0 -8 z "  stroke="black" />
<path d="M104 8 z m8 0 z m0 8 z l-8 0 z l0 -8 z "  stroke="black" />
<path d="M112 8 z l8 0 z l0 8 z m-8 0 z m0 -8 z "  stroke="black" />
<path d="M120 8 z m8 0 z l0 8 z m-8 0 z m0 -8 z "  stroke="black" />
<path d="M128 8 z m8 0 z l0 8 z m-8 0 z m0 -8 z "  stroke="black" />
<path d="M136 8 z l8 0 z l0 8 z m-8 0 z m0 -8 z "  stroke="black" />
<path d="M144 8 z m8 0 z l0 8 z m-8 0 z m0 -8 z "  stroke="black" />
<path d="M152 8 z l8 0 z m0 8 z m-8 0 z m0 -8 z "  stroke="black" />
<path d="M160 8 z l8 0 z m0 8 z l-8 0 z l0 -8 z "  stroke="black" />
<path d="M168 8 z m8 0 z l0 8 z l-8 0 z l0 -8 z "  stroke="black" />
<path d="M176 8 z m8 0 z m0 8 z l-8 0 z l0 -8 z "  stroke="black" />
<path d="M184 8 z l8 0 z m0 8 z l-8 0 z l0 -8 z "  stroke="black" />
<path d="M192 8 z l8 0 z l0 8 z m-8 0 z m0 -8 z "  stroke="black" />
<path d="M200 8 z m8 0 z m0 8 z l-8 0 z l0 -8 z "  stroke="black" />
<path d="M208 8 z l8 0 z l0 8 z m-8 0 z m0 -8 z "  stroke="black" />
<path d="M216 8 z l8 0 z m0 8 z m-8 0 z m0 -8 z "  stroke="black" />
<path d="M224 8 z m8 0 z l0 8 z l-8 0 z l0 -8 z "  stroke="black" />
<path d="M232 8 z m8 0 z l0 8 z m-8 0 z m0 -8 z "  stroke="black" />
<path d="M0 16 z m8 0 z m0 8 z m-8 0 z m0 -8 z "  stroke="black" />
<path d="M8 16 z m8 0 z l0 8 z l-8 0 z l0 -8 z "  stroke="black" />
<path d="M16 16 z m8 0 z l0 8 z l-8 0 z l0 -8 z "  stroke="black" />
<path d="M24 16 z l8 0 z m0 8 z m-8 0 z m0 -8 z "  stroke="black" />
<path d="M32 16 z m8 0 z l0 8 z l-8 0 z l0 -8 z "  stroke="black" />
<path d="M40 16 z m8 0 z m0 8 z m-8 0 z m0 -8 z "  stroke="black" />
<path d="M48 16 z l8 0 z m0 8 z l-8 0 z l0 -8 z "  stroke="black" />
<path d="M56 16 z l8 0 z m0 8 z l-8 0 z l0 -8 z "  stroke="black" />
<path d="M64 16 z l8 0 z m0 8 z l-8 0 z l0 -8 z "  stroke="black" />
<path d="M72 16 z l8 0 z m0 8 z m-8 0 z m0 -8 z "  stroke="black" />
<path d="M80 16 z m8 0 z l0 8 z m-8 0 z m0 -8 z "  stroke="black" />
<path d="M88 16 z m8 0 z l0 8 z m-8 0 z m0 -8 z "  stroke="black" />
<path d="M96 16 z m8 0 z m0 8 z l-8 0 z l0 -8 z "  stroke="black" />
<path d="M104 16 z l8 0 z l0 8 z m-8 0 z m0 -8 z "  stroke="black" />
<path d="M112 16 z m8 0 z l0 8 z m-8 0 z m0 -8 z "  stroke="black" />
<path d="M120 16 z m8 0 z m0 8 z l-8 0 z l0 -8 z "  stroke="black" />
<path d="M128 16 z m8 0 z l0 8 z l-8 0 z l0 -8 z "  stroke="black" />
<path d="M136 16 z m8 0 z l0 8 z m-8 0 z m0 -8 z "  stroke="black" />
<path d="M144 16 z m8 0 z l0 8 z m-8 0 z m0 -8 z "  stroke="black" />
<path d="M152 16 z m8 0 z m0 8 z l-8 0 z l0 -8 z "  stroke="black" />
<path d="M160 16 z l8 0 z m0 8 z l-8 0 z l0 -8 z "  stroke="black" />
<path d="M168 16 z l8 0 z m0 8 z l-8 0 z l0 -8 z "  stroke="black" />
<path d="M176 16 z l8 0 z m0 8 z m-8 0 z m0 -8 z "  stroke="black" />
<path d="M184 16 z l8 0 z l0 8 z l-8 0 z l0 -8 z "  stroke="black" />
<path d="M192 16 z m8 0 z m0 8 z l-8 0 z l0 -8 z "  stroke="black" />
<path d="M200 16 z l8 0 z l0 8 z m-8 0 z m0 -8 z "  stroke="black" />
<path d="M208 16 z m8 0 z l0 8 z m-8 0 z m0 -8 z "  stroke="black" />
<path d="M216 16 z m8 0 z m0 8 z l-8 0 z l0 -8 z "  stroke="black" />
<path d="M224 16 z l8 0 z l0 8 z m-8 0 z m0 -8 z "  stroke="black" />
<path d="M232 16 z m8 0 z l0 8 z m-8 0 z m0 -8 z "  stroke="black" />
<path d="M0 24 z m8 0 z l0 8 z m-8 0 z m0 -8 z "  stroke="black" />
<path d="M8 24 z l8 0 z m0 8 z m-8 0 z m0 -8 z "  stroke="black" />
<path d="M16 24 z l8 0 z m0 8 z l-8 0 z l0 -8 z "  stroke="black" />
<path d="M24 24 z m8 0 z l0 8 z l-8 0 z l0 -8 z "  stroke="black" />
<path d="M32 24 z l8 0 z l0 8 z m-8 0 z m0 -8 z "  stroke="black" />
<path d="M40 24 z m8 0 z m0 8 z m-8 0 z m0 -8 z "  stroke="black" />
<path d="M48 24 z l8 0 z l0 8 z l-8 0 z l0 -8 z "  stroke="black" />
<path d="M56 24 z l8 0 z m0 8 z m-8 0 z m0 -8 z "  stroke="black" />
<path d="M64 24 z l8 0 z m0 8 z m-8 0 z m0 -8 z "  stroke="black" />
<path d="M72 24 z m8 0 z l0 8 z l-8 0 z l0 -8 z "  stroke="black" />
<path d="M80 24 z m8 0 z l0 8 z l-8 0 z l0 -8 z "  stroke="black" />
<path d="M88 24 z m8 0 z m0 8 z l-8 0 z l0 -8 z "  stroke="black" />
<path d="M96 24 z l8 0 z l0 8 z m-8 0 z m0 -8 z "  stroke="black" />
<path d="M104 24 z m8 0 z l0 8 z m-8 0 z m0 -8 z "  stroke="black" />
<path d="M112 24 z m8 0 z l0 8 z m-8 0 z m0 -8 z "  stroke="black" />
<path d="M120 24 z l8 0 z m0 8 z l-8 0 z l0 -8 z "  stroke="black" />
<path d="M128 24 z l8 0 z m0 8 z m-8 0 z m0 -8 z "  stroke="black" />
<path d="M136 24 z m8 0 z l0 8 z m-8 0 z m0 -8 z "  stroke="black" />
<path d="M144 24 z m8 0 z m0 8 z l-8 0 z l0 -8 z "  stroke="black" />
<path d="M152 24 z l8 0 z m0 8 z l-8 0 z l0 -8 z "  stroke="black" />
<path d="M160 24 z l8 0 z m0 8 z l-8 0 z l0 -8 z "  stroke="black" />
<path d="M168 24 z l8 0 z l0 8 z m-8 0 z m0 -8 z "  stroke="black" />
<path d="M176 24 z m8 0 z l0 8 z m-8 0 z m0 -8 z "  stroke="black" />
<path d="M184 24 z l8 0 z m0 8 z m-8 0 z m0 -8 z "  stroke="black" />
<path d="M192 24 z l8 0 z m0 8 z l-8 0 z l0 -8 z "  stroke="black" />
<path d="M200 24 z m8 0 z l0 8 z l-8 0 z l0 -8 z "  stroke="black" />
<path d="M208 24 z m8 0 z m0 8 z l-8 0 z l0 -8 z "  stroke="black" />
<path d="M216 24 z l8 0 z m0 8 z l-8 0 z l0 -8 z "  stroke="black" />
<path d="M224 24 z m8 0 z l0 8 z l-8 0 z l0 -8 z "  stroke="black" />
<path d="M232 24 z m8 0 z l0 8 z m-8 0 z m0 -8 z "  stroke="black" />
<path d="M0 32 z m8 0 z l0 8 z m-8 0 z m0 -8 z "  stroke="black" />
<path d="M8 32 z m8 0 z l0 8 z m-8 0 z m0 -8 z "  stroke="black" />
<path d="M16 32 z l8 0 z m0 8 z m-8 0 z m0 -8 z "  stroke="black" />
<path d="M24 32 z l8 0 z l0 8 z m-8 0 z m0 -8 z "  stroke="black" />
<path d="M32 32 z m8 0 z m0 8 z m-8 0 z m0 -8 z "  stroke="black" />
<path d="M40 32 z m8 0 z l0 8 z l-8 0 z l0 -8 z "  stroke="black" />
<path d="M48 32 z l8 0 z m0 8 z m-8 0 z m0 -8 z "  stroke="black" />
<path d="M56 32 z m8 0 z l0 8 z l-8 0 z l0 -8 z "  stroke="black" />
<path d="M64 32 z m8 0 z l0 8 z l-8 0 z l0 -8 z "  stroke="black" />
<path d="M72 32 z l8 0 z m0 8 z m-8 0 z m0 -8 z "  stroke="black" />
<path d="M80 32 z l8 0 z l0 8 z m-8 0 z m0 -8 z "  stroke="black" />
<path d="M88 32 z l8 0 z m0 8 z m-8 0 z m0 -8 z "  stroke="black" />
<path d="M96 32 z m8 0 z l0 8 z l-8 0 z l0 -8 z "  stroke="black" />
<path d="M104 32 z m8 0 z l0 8 z m-8 0 z m0 -8 z "  stroke="black" />
<path d="M112 32 z m8 0 z m0 8 z l-8 0 z l0 -8 z "  stroke="black" />
<path d="M120 32 z l8 0 z m0 8 z l-8 0 z l0 -8 z "  stroke="black" />
<path d="M128 32 z m8 0 z l0 8 z l-8 0 z l0 -8 z "  stroke="black" />
<path d="M136 32 z m8 0 z m0 8 z l-8 0 z l0 -8 z "  stroke="black" />
<path d="M144 32 z l8 0 z l0 8 z m-8 0 z m0 -8 z "  stroke="black" />
<path d="M152 32 z l8 0 z m0 8 z m-8 0 z m0 -8 z "  stroke="black" />
<path d="M160 32 z l8 0 z l0 8 z l-8 0 z l0 -8 z "  stroke="black" />
<path d="M168 32 z m8 0 z m0 8 z l-8 0 z l0 -8 z "  stroke="black" />
<path d="M176 32 z m8 0 z l0 8 z l-8 0 z l0 -8 z "  stroke="black" />
<path d="M184 32 z m8 0 z m0 8 z l-8 0 z l0 -8 z "  stroke="black" />
<path d="M192 32 z l8 0 z m0 8 z l-8 0 z l0 -8 z "  stroke="black" />
<path d="M200 32 z l8 0 z m0 8 z l-8 0 z l0 -8 z "  stroke="black" />
<path d="M208 32 z l8 0 z l0 8 z m-8 0 z m0 -8 z "  stroke="black" />
<path d="M216 32 z l8 0 z m0 8 z m-8 0 z m0 -8 z "  stroke="black" />
<path d="M224 32 z l8 0 z m0 8 z l-8 0 z l0 -8 z "  stroke="black" />
<path d="M232 32 z m8 0 z l0 8 z l-8 0 z l0 -8 z "  stroke="black" />
<path d="M0 40 z m8 0 z m0 8 z l-8 0 z l0 -8 z "  stroke="black" />
<path d="M8 40 z m8 0 z l0 8 z l-8 0 z l0 -8 z "  stroke="black" />
<path d="M16 40 z m8 0 z l0 8 z m-8 0 z m0 -8 z "  stroke="black" />
<path d="M24 40 z m8 0 z l0 8 z m-8 0 z m0 -8 z "  stroke="black" />
<path d="M32 40 z m8 0 z l0 8 z m-8 0 z m0 -8 z "  stroke="black" />
<path d="M40 40 z l8 0 z l0 8 z m-8 0 z m0 -8 z "  stroke="black" />
<path d="M48 40 z m8 0 z m0 8 z l-8 0 z l0 -8 z "  stroke="black" />
<path d="M56 40 z l8 0 z m0 8 z l-8 0 z l0 -8 z "  stroke="black" />
<path d="M64 40 z l8 0 z m0 8 z l-8 0 z l0 -8 z "  stroke="black" />
<path d="M72 40 z m8 0 z l0 8 z l-8 0 z l0 -8 z "  stroke="black" />
<path d="M80 40 z m8 0 z m0 8 z l-8 0 z l0 -8 z "  stroke="black" />
<path d="M88 40 z m8 0 z l0 8 z l-8 0 z l0 -8 z "  stroke="black" />
<path d="M96 40 z l8 0 z m0 8 z m-8 0 z m0 -8 z "  stroke="black" />
<path d="M104 40 z m8 0 z l0 8 z m-8 0 z m0 -8 z "  stroke="black" />
<path d="M112 40 z l8 0 z m0 8 z l-8 0 z l0 -8 z "  stroke="black" />
<path d="M120 40 z l8 0 z m0 8 z m-8 0 z m0 -8 z "  stroke="black" />
<path d="M128 40 z l8 0 z m0 8 z m-8 0 z m0 -8 z "  stroke="black" />
<path d="M136 40 z l8 0 z l0 8 z m-8 0 z m0 -8 z "  stroke="black" />
<path d="M144 40 z m8 0 z m0 8 z l-8 0 z l0 -8 z "  stroke="black" />
<path d="M152 40 z m8 0 z l0 8 z m-8 0 z m0 -8 z "  stroke="black" />
<path d="M160 40 z l8 0 z m0 8 z m-8 0 z m0 -8 z "  stroke="black" />
<path d="M168 40 z l8 0 z l0 8 z m-8 0 z m0 -8 z "  stroke="black" />
<path d="M176 40 z l8 0 z m0 8 z m-8 0 z m0 -8 z "  stroke="black" />
<path d="M184 40 z l8 0 z m0 8 z l-8 0 z l0 -8 z "  stroke="black" />
<path d="M192 40 z l8 0 z m0 8 z l-8 0 z l0 -8 z "  stroke="black" />
<path d="M200 40 z l8 0 z m0 8 z l-8 0 z l0 -8 z "  stroke="black" />
<path d="M208 40 z m8 0 z l0 8 z l-8 0 z l0 -8 z "  stroke="black" />
<path d="M216 40 z m8 0 z l0 8 z m-8 0 z m0 -8 z "  stroke="black" />
<path d="M224 40 z l8 0 z m0 8 z m-8 0 z m0 -8 z "  stroke="black" />
<path d="M232 40 z l8 0 z l0 8 z m-8 0 z m0 -8 z "  stroke="black" />
<path d="M0 48 z l8 0 z m0 8 z m-8 0 z m0 -8 z "  stroke="black" />
<path d="M8 48 z l8 0 z m0 8 z l-8 0 z l0 -8 z "  stroke="black" />
<path d="M16 48 z m8 0 z l0 8 z l-8 0 z l0 -8 z "  stroke="black" />
<path d="M24 48 z m8 0 z l0 8 z m-8 0 z m0 -8 z "  stroke="black" />
<path d="M32 48 z m8 0 z m0 8 z l-8 0 z l0 -8 z "  stroke="black" />
<path d="M40 48 z m8 0 z l0 8 z m-8 0 z m0 -8 z "  stroke="black" />
<path d="M48 48 z l8 0 z m0 8 z l-8 0 z l0 -8 z "  stroke="black" />
<path d="M56 48 z l8 0 z m0 8 z m-8 0 z m0 -8 z "  stroke="black" />
<path d="M64 48 z l8 0 z m0 8 z l-8 0 z l0 -8 z "  stroke="black" />
<path d="M72 48 z l8 0 z m0 8 z l-8 0 z l0 -8 z "  stroke="black" />
<path d="M80 48 z l8 0 z l0 8 z m-8 0 z m0 -8 z "  stroke="black" />
<path d="M88 48 z l8 0 z m0 8 z m-8 0 z m0 -8 z "  stroke="black" />
<path d="M96 48 z m8 0 z l0 8 z l-8 0 z l0 -8 z "  stroke="black" />
<path d="M104 48 z m8 0 z m0 8 z l-8 0 z l0 -8 z "  stroke="black" />
<path d="M112 48 z l8 0 z l0 8 z m-8 0 z m0 -8 z "  stroke="black" />
<path d="M120 48 z m8 0 z l0 8 z l-8 0 z l0 -8 z "  stroke="black" />
<path d="M128 48 z m8 0 z l0 8 z m-8 0 z m0 -8 z "  stroke="black" />
<path d="M136 48 z m8 0 z m0 8 z l-8 0 z l0 -8 z "  stroke="black" />
<path d="M144 48 z l8 0 z l0 8 z l-8 0 z l0 -8 z "  stroke="black" />
<path d="M152 48 z m8 0 z l0 8 z m-8 0 z m0 -8 z "  stroke="black" />
<path d="M160 48 z m8 0 z l0 8 z m-8 0 z m0 -8 z "  stroke="black" />
<path d="M168 48 z m8 0 z l0 8 z m-8 0 z m0 -8 z "  stroke="black" />
<path d="M176 48 z m8 0 z m0 8 z m-8 0 z m0 -8 z "  stroke="black" />
<path d="M184 48 z l8 0 z m0 8 z l-8 0 z l0 -8 z "  stroke="black" />
<path d="M192 48 z l8 0 z m0 8 z l-8 0 z l0 -8 z "  stroke="black" />
<path d="M200 48 z l8 0 z l0 8 z m-8 0 z m0 -8 z "  stroke="black" />
<path d="M208 48 z l8 0 z l0 8 z m-8 0 z m0 -8 z "  stroke="black" />
<path d="M216 48 z m8 0 z l0 8 z m-8 0 z m0 -8 z "  stroke="black" />
<path d="M224 48 z m8 0 z l0 8 z l-8 0 z l0 -8 z "  stroke="black" />
<path d="M232 48 z m8 0 z l0 8 z m-8 0 z m0 -8 z "  stroke="black" />
<path d="M0 56 z m8 0 z m0 8 z l-8 0 z l0 -8 z "  stroke="black" />
<path d="M8 56 z l8 0 z m0 8 z l-8 0 z l0 -8 z "  stroke="black" />
<path d="M16 56 z l8 0 z l0 8 z m-8 0 z m0 -8 z "  stroke="black" />
<path d="M24 56 z m8 0 z m0 8 z l-8 0 z l0 -8 z "  stroke="black" />
<path d="M32 56 z l8 0 z l0 8 z m-8 0 z m0 -8 z "  stroke="black" />
<path d="M40 56 z m8 0 z m0 8 z l-8 0 z l0 -8 z "  stroke="black" />
<path d="M48 56 z l8 0 z m0 8 z l-8 0 z l0 -8 z "  stroke="black" />
<path d="M56 56 z m8 0 z l0 8 z l-8 0 z l0 -8 z "  stroke="black" />
<path d="M64 56 z l8 0 z m0 8 z m-8 0 z m0 -8 z "  stroke="black" />
<path d="M72 56 z l8 0 z l0 8 z m-8 0 z m0 -8 z "  stroke="black" />
<path d="M80 56 z m8 0 z l0 8 z m-8 0 z m0 -8 z "  stroke="black" />
<path d="M88 56 z m8 0 z m0 8 z m-8 0 z m0 -8 z "  stroke="black" />
<path d="M96 56 z l8 0 z m0 8 z l-8 0 z l0 -8 z "  stroke="black" />
<path d="M104 56 z l8 0 z l0 8 z m-8 0 z m0 -8 z "  stroke="black" />
<path d="M112 56 z m8 0 z m0 8 z l-8 0 z l0 -8 z "  stroke="black" />
<path d="M120 56 z l8 0 z m0 8 z l-8 0 z l0 -8 z "  stroke="black" />
<path d="M128 56 z m8 0 z l0 8 z l-8 0 z l0 -8 z "  stroke="black" />
<path d="M136 56 z l8 0 z m0 8 z m-8 0 z m0 -8 z "  stroke="black" />
<path d="M144 56 z l8 0 z m0 8 z l-8 0 z l0 -8 z "  stroke="black" />
<path d="M152 56 z m8 0 z l0 8 z l-8 0 z l0 -8 z "  stroke="black" />
<path d="M160 56 z m8 0 z l0 8 z m-8 0 z m0 -8 z "  stroke="black" />
<path d="M168 56 z m8 0 z l0 8 z m-8 0 z m0 -8 z "  stroke="black" />
<path d="M176 56 z m8 0 z m0 8 z l-8 0 z l0 -8 z "  stroke="black" />
<path d="M184 56 z l8 0 z m0 8 z l-8 0 z l0 -8 z "  stroke="black" />
<path d="M192 56 z l8 0 z l0 8 z m-8 0 z m0 -8 z "  stroke="black" />
<path d="M200 56 z m8 0 z l0 8 z m-8 0 z m0 -8 z "  stroke="black" />
<path d="M208 56 z m8 0 z m0 8 z l-8 0 z l0 -8 z "  stroke="black" />
<path d="M216 56 z m8 0 z m0 8 z l-8 0 z l0 -8 z "  stroke="black" />
<path d="M224 56 z l8 0 z m0 8 z l-8 0 z l0 -8 z "  stroke="black" />
<path d="M232 56 z m8 0 z l0 8 z m-8 0 z m0 -8 z "  stroke="black" />
<path d="M0 64 z l8 0 z m0 8 z m-8 0 z m0 -8 z "  stroke="black" />
<path d="M8 64 z l8 0 z l0 8 z l-8 0 z l0 -8 z "  stroke="black" />
<path d="M16 64 z m8 0 z m0 8 z l-8 0 z l0 -8 z "  stroke="black" />
<path d="M24 64 z l8 0 z l0 8 z m-8 0 z m0 -8 z "  stroke="black" />
<path d="M32 64 z m8 0 z m0 8 z l-8 0 z l0 -8 z "  stroke="black" />
<path d="M40 64 z l8 0 z m0 8 z l-8 0 z l0 -8 z "  stroke="black" />
<path d="M48 64 z l8 0 z m0 8 z m-8 0 z m0 -8 z "  stroke="black" />
<path d="M56 64 z l8 0 z m0 8 z l-8 0 z l0 -8 z "  stroke="black" />
<path d="M64 64 z m8 0 z l0 8 z l-8 0 z l0 -8 z "  stroke="black" />
<path d="M72 64 z m8 0 z l0 8 z m-8 0 z m0 -8 z "  stroke="black" />
<path d="M80 64 z m8 0 z l0 8 z m-8 0 z m0 -8 z "  stroke="black" />
<path d="M88 64 z m8 0 z m0 8 z l-8 0 z l0 -8 z "  stroke="black" />
<path d="M96 64 z l8 0 z l0 8 z m-8 0 z m0 -8 z "  stroke="black" />
<path d="M104 64 z m8 0 z m0 8 z l-8 0 z l0 -8 z "  stroke="black" />
<path d="M112 64 z l8 0 z m0 8 z l-8 0 z l0 -8 z "  stroke="black" />
<path d="M120 64 z l8 0 z m0 8 z l-8 0 z l0 -8 z "  stroke="black" />
<path d="M128 64 z l8 0 z m0 8 z l-8 0 z l0 -8 z "  stroke="black" />
<path d="M136 64 z m8 0 z l0 8 z m-8 0 z m0 -8 z "  stroke="black" />
<path d="M144 64 z l8 0 z m0 8 z m-8 0 z m0 -8 z "  stroke="black" />
<path d="M152 64 z l8 0 z l0 8 z m-8 0 z m0 -8 z "  stroke="black" />
<path d="M160 64 z m8 0 z l0 8 z m-8 0 z m0 -8 z "  stroke="black" />
<path d="M168 64 z m8 0 z l0 8 z m-8 0 z m0 -8 z "  stroke="black" />
<path d="M176 64 z l8 0 z m0 8 z l-8 0 z l0 -8 z "  stroke="black" />
<path d="M184 64 z l8 0 z m0 8 z m-8 0 z m0 -8 z "  stroke="black" />
<path d="M192 64 z m8 0 z l0 8 z l-8 0 z l0 -8 z "  stroke="black" />
<path d="M200 64 z m8 0 z m0 8 z l-8 0 z l0 -8 z "  stroke="black" />
<path d="M208 64 z l8 0 z m0 8 z l-8 0 z l0 -8 z "  stroke="black" />
<path d="M216 64 z l8 0 z l0 8 z m-8 0 z m0 -8 z "  stroke="black" />
<path d="M224 64 z l8 0 z m0 8 z l-8 0 z l0 -8 z "  stroke="black" />
<path d="M232 64 z m8 0 z l0 8 z l-8 0 z l0 -8 z "  stroke="black" />
<path d="M0 72 z m8 0 z m0 8 z m-8 0 z m0 -8 z "  stroke="black" />
<path d="M8 72 z l8 0 z l0 8 z m-8 0 z m0 -8 z "  stroke="black" />
<path d="M16 72 z l8 0 z m0 8 z m-8 0 z m0 -8 z "  stroke="black" />
<path d="M24 72 z m8 0 z l0 8 z l-8 0 z l0 -8 z "  stroke="black" />
<path d="M32 72 z l8 0 z m0 8 z m-8 0 z m0 -8 z "  stroke="black" />
<path d="M40 72 z l8 0 z l0 8 z m-8 0 z m0 -8 z "  stroke="black" />
<path d="M48 72 z m8 0 z m0 8 z l-8 0 z l0 -8 z "  stroke="black" />
<path d="M56 72 z l8 0 z m0 8 z l-8 0 z l0 -8 z "  stroke="black" />
<path d="M64 72 z l8 0 z l0 8 z m-8 0 z m0 -8 z "  stroke="black" />
<path d="M72 72 z m8 0 z l0 8 z m-8 0 z m0 -8 z "  stroke="black" />
<path d="M80 72 z m8 0 z l0 8 z m-8 0 z m0 -8 z "  stroke="black" />
<path d="M88 72 z l8 0 z m0 8 z l-8 0 z l0 -8 z "  stroke="black" />
<path d="M96 72 z m8 0 z m0 8 z l-8 0 z l0 -8 z "  stroke="black" />
<path d="M104 72 z l8 0 z l0 8 z m-8 0 z m0 -8 z "  stroke="black" />
<path d="M112 72 z l8 0 z m0 8 z m-8 0 z m0 -8 z "  stroke="black" />
<path d="M120 72 z l8 0 z m0 8 z l-8 0 z l0 -8 z "  stroke="black" />
<path d="M128 72 z l8 0 z l0 8 z m-8 0 z m0 -8 z "  stroke="black" />
<path d="M136 72 z m8 0 z l0 8 z m-8 0 z m0 -8 z "  stroke="black" />
<path d="M144 72 z m8 0 z l0 8 z m-8 0 z m0 -8 z "  stroke="black" />
<path d="M152 72 z m8 0 z m0 8 z l-8 0 z l0 -8 z "  stroke="black" />
<path d="M160 72 z m8 0 z l0 8 z l-8 0 z l0 -8 z "  stroke="black" />
<path d="M168 72 z m8 0 z m0 8 z l-8 0 z l0 -8 z "  stroke="black" />
<path d="M176 72 z l8 0 z l0 8 z m-8 0 z m0 -8 z "  stroke="black" />
<path d="M184 72 z m8 0 z m0 8 z l-8 0 z l0 -8 z "  stroke="black" />
<path d="M192 72 z l8 0 z m0 8 z l-8 0 z l0 -8 z "  stroke="black" />
<path d="M200 72 z l8 0 z l0 8 z m-8 0 z m0 -8 z "  stroke="black" />
<path d="M208 72 z l8 0 z l0 8 z m-8 0 z m0 -8 z "  stroke="black" />
<path d="M216 72 z m8 0 z m0 8 z l-8 0 z l0 -8 z "  stroke="black" />
<path d="M224 72 z l8 0 z m0 8 z l-8 0 z l0 -8 z "  stroke="black" />
<path d="M232 72 z l8 0 z l0 8 z m-8 0 z m0 -8 z "  stroke="black" />
<path d="M0 80 z m8 0 z l0 8 z m-8 0 z m0 -8 z "  stroke="black" />
<path d="M8 80 z m8 0 z l0 8 z m-8 0 z m0 -8 z "  stroke="black" />
<path d="M16 80 z m8 0 z m0 8 z l-8 0 z l0 -8 z "  stroke="black" />
<path d="M24 80 z l8 0 z l0 8 z m-8 0 z m0 -8 z "  stroke="black" />
<path d="M32 80 z m8 0 z l0 8 z m-8 0 z m0 -8 z "  stroke="black" />
<path d="M40 80 z m8 0 z m0 8 z l-8 0 z l0 -8 z "  stroke="black" />
<path d="M48 80 z l8 0 z l0 8 z m-8 0 z m0 -8 z "  stroke="black" />
<path d="M56 80 z l8 0 z m0 8 z l-8 0 z l0 -8 z "  stroke="black" />
<path d="M64 80 z m8 0 z l0 8 z l-8 0 z l0 -8 z "  stroke="black" />
<path d="M72 80 z m8 0 z l0 8 z m-8 0 z m0 -8 z "  stroke="black" />
<path d="M80 80 z m8 0 z m0 8 z l-8 0 z l0 -8 z "  stroke="black" />
<path d="M88 80 z l8 0 z l0 8 z m-8 0 z m0 -8 z "  stroke="black" />
<path d="M96 80 z l8 0 z m0 8 z l-8 0 z l0 -8 z "  stroke="black" />
<path d="M104 80 z m8 0 z l0 8 z l-8 0 z l0 -8 z "  stroke="black" />
<path d="M112 80 z m8 0 z l0 8 z m-8 0 z m0 -8 z "  stroke="black" />
<path d="M120 80 z l8 0 z l0 8 z m-8 0 z m0 -8 z "  stroke="black" />
<path d="M128 80 z m8 0 z l0 8 z m-8 0 z m0 -8 z "  stroke="black" />
<path d="M136 80 z m8 0 z l0 8 z l-8 0 z l0 -8 z "  stroke="black" />
<path d="M144 80 z m8 0 z l0 8 z m-8 0 z m0 -8 z "  stroke="black" />
<path d="M152 80 z l8 0 z m0 8 z m-8 0 z m0 -8 z "  stroke="black" />
<path d="M160 80 z l8 0 z m0 8 z m-8 0 z m0 -8 z "  stroke="black" />
<path d="M168 80 z l8 0 z l0 8 z l-8 0 z l0 -8 z "  stroke="black" />
<path d="M176 80 z m8 0 z m0 8 z l-8 0 z l0 -8 z "  stroke="black" />
<path d="M184 80 z l8 0 z m0 8 z l-8 0 z l0 -8 z "  stroke="black" />
<path d="M192 80 z l8 0 z l0 8 z m-8 0 z m0 -8 z "  stroke="black" />
<path d="M200 80 z m8 0 z m0 8 z l-8 0 z l0 -8 z "  stroke="black" />
<path d="M208 80 z m8 0 z l0 8 z m-8 0 z m0 -8 z "  stroke="black" />
<path d="M216 80 z l8 0 z m0 8 z l-8 0 z l0 -8 z "  stroke="black" />
<path d="M224 80 z l8 0 z l0 8 z m-8 0 z m0 -8 z "  stroke="black" />
<path d="M232 80 z m8 0 z l0 8 z m-8 0 z m0 -8 z "  stroke="black" />
<path d="M0 88 z m8 0 z l0 8 z m-8 0 z m0 -8 z "  stroke="black" />
<path d="M8 88 z m8 0 z m0 8 z l-8 0 z l0 -8 z "  stroke="black" />
<path d="M16 88 z l8 0 z m0 8 z l-8 0 z l0 -8 z "  stroke="black" />
<path d="M24 88 z m8 0 z l0 8 z l-8 0 z l0 -8 z "  stroke="black" />
<path d="M32 88 z m8 0 z l0 8 z m-8 0 z m0 -8 z "  stroke="black" />
<path d="M40 88 z l8 0 z m0 8 z l-8 0 z l0 -8 z "  stroke="black" />
<path d="M48 88 z m8 0 z m0 8 z l-8 0 z l0 -8 z "  stroke="black" />
<path d="M56 88 z l8 0 z m0 8 z l-8 0 z l0 -8 z "  stroke="black" />
<path d="M64 88 z l8 0 z l0 8 z m-8 0 z m0 -8 z "  stroke="black" />
<path d="M72 88 z m8 0 z m0 8 z l-8 0 z l0 -8 z "  stroke="black" />
<path d="M80 88 z l8 0 z l0 8 z m-8 0 z m0 -8 z "  stroke="black" />
<path d="M88 88 z m8 0 z m0 8 z l-8 0 z l0 -8 z "  stroke="black" />
<path d="M96 88 z l8 0 z m0 8 z l-8 0 z l0 -8 z "  stroke="black" />
<path d="M104 88 z l8 0 z l0 8 z m-8 0 z m0 -8 z "  stroke="black" />
<path d="M112 88 z m8 0 z l0 8 z m-8 0 z m0 -8 z "  stroke="black" />
<path d="M120 88 z m8 0 z l0 8 z m-8 0 z m0 -8 z "  stroke="black" />
<path d="M128 88 z m8 0 z m0 8 z l-8 0 z l0 -8 z "  stroke="black" />
<path d="M136 88 z l8 0 z m0 8 z l-8 0 z l0 -8 z "  stroke="black" />
<path d="M144 88 z m8 0 z l0 8 z l-8 0 z l0 -8 z "  stroke="black" />
<path d="M152 88 z m8 0 z l0 8 z m-8 0 z m0 -8 z "  stroke="black" />
<path d="M160 88 z m8 0 z m0 8 z l-8 0 z l0 -8 z "  stroke="black" />
<path d="M168 88 z l8 0 z m0 8 z l-8 0 z l0 -8 z "  stroke="black" />
<path d="M176 88 z l8 0 z m0 8 z m-8 0 z m0 -8 z "  stroke="black" />
<path d="M184 88 z l8 0 z l0 8 z l-8 0 z l0 -8 z "  stroke="black" />
<path d="M192 88 z m8 0 z l0 8 z m-8 0 z m0 -8 z "  stroke="black" />
<path d="M200 88 z l8 0 z l0 8 z m-8 0 z m0 -8 z "  stroke="black" />
<path d="M208 88 z m8 0 z m0 8 z l-8 0 z l0 -8 z "  stroke="black" />
<path d="M216 88 z l8 0 z m0 8 z l-8 0 z l0 -8 z "  stroke="black" />
<path d="M224 88 z m8 0 z l0 8 z m-8 0 z m0 -8 z "  stroke="black" />
<path d="M232 88 z m8 0 z l0 8 z m-8 0 z m0 -8 z "  stroke="black" />
<path d="M0 96 z m8 0 z l0 8 z m-8 0 z m0 -8 z "  stroke="black" />
<path d="M8 96 z l8 0 z m0 8 z l-8 0 z l0 -8 z "  stroke="black" />
<path d="M16 96 z l8 0 z m0 8 z m-8 0 z m0 -8 z "  stroke="black" />
<path d="M24 96 z l8 0 z l0 8 z l-8 0 z l0 -8 z "  stroke="black" />
<path d="M32 96 z m8 0 z l0 8 z m-8 0 z m0 -8 z "  stroke="black" />
<path d="M40 96 z l8 0 z m0 8 z m-8 0 z m0 -8 z "  stroke="black" />
<path d="M48 96 z l8 0 z l0 8 z m-8 0 z m0 -8 z "  stroke="black" />
<path d="M56 96 z l8 0 z l0 8 z m-8 0 z m0 -8 z "  stroke="black" />
<path d="M64 96 z m8 0 z m0 8 z l-8 0 z l0 -8 z "  stroke="black" />
<path d="M72 96 z l8 0 z l0 8 z m-8 0 z m0 -8 z "  stroke="black" />
<path d="M80 96 z m8 0 z m0 8 z m-8 0 z m0 -8 z "  stroke="black" />
<path d="M88 96 z l8 0 z l0 8 z m-8 0 z m0 -8 z "  stroke="black" />
<path d="M96 96 z l8 0 z l0 8 z m-8 0 z m0 -8 z "  stroke="black" />
<path d="M104 96 z m8 0 z m0 8 z l-8 0 z l0 -8 z "  stroke="black" />
<path d="M112 96 z m8 0 z l0 8 z l-8 0 z l0 -8 z "  stroke="black" />
<path d="M120 96 z m8 0 z m0 8 z m-8 0 z m0 -8 z "  stroke="black" />
<path d="M128 96 z l8 0 z m0 8 z l-8 0 z l0 -8 z "  stroke="black" />
<path d="M136 96 z l8 0 z m0 8 z l-8 0 z l0 -8 z "  stroke="black" />
<path d="M144 96 z l8 0 z m0 8 z l-8 0 z l0 -8 z "  stroke="black" />
<path d="M152 96 z m8 0 z l0 8 z l-8 0 z l0 -8 z "  stroke="black" />
<path d="M160 96 z l8 0 z m0 8 z m-8 0 z m0 -8 z "  stroke="black" />
<path d="M168 96 z l8 0 z l0 8 z l-8 0 z l0 -8 z "  stroke="black" />
<path d="M176 96 z m8 0 z m0 8 z l-8 0 z l0 -8 z "  stroke="black" />
<path d="M184 96 z l8 0 z m0 8 z l-8 0 z l0 -8 z "  stroke="black" />
<path d="M192 96 z m8 0 z l0 8 z l-8 0 z l0 -8 z "  stroke="black" />
<path d="M200 96 z m8 0 z m0 8 z l-8 0 z l0 -8 z "  stroke="black" />
<path d="M208 96 z l8 0 z m0 8 z m-8 0 z m0 -8 z "  stroke="black" />
<path d="M216 96 z l8 0 z m0 8 z l-8 0 z l0 -8 z "  stroke="black" />
<path d="M224 96 z m8 0 z l0 8 z l-8 0 z l0 -8 z "  stroke="black" />
<path d="M232 96 z m8 0 z l0 8 z m-8 0 z m0 -8 z "  stroke="black" />
<path d="M0 104 z m8 0 z m0 8 z l-8 0 z l0 -8 z "  stroke="black" />
<path d="M8 104 z l8 0 z m0 8 z l-8 0 z l0 -8 z "  stroke="black" />
<path d="M16 104 z m8 0 z l0 8 z m-8 0 z m0 -8 z "  stroke="black" />
<path d="M24 104 z l8 0 z m0 8 z m-8 0 z m0 -8 z "  stroke="black" />
<path d="M32 104 z m8 0 z l0 8 z l-8 0 z l0 -8 z "  stroke="black" />
<path d="M40 104 z m8 0 z l0 8 z m-8 0 z m0 -8 z "  stroke="black" />
<path d="M48 104 z m8 0 z l0 8 z m-8 0 z m0 -8 z "  stroke="black" />
<path d="M56 104 z m8 0 z m0 8 z m-8 0 z m0 -8 z "  stroke="black" />
<path d="M64 104 z l8 0 z l0 8 z m-8 0 z m0 -8 z "  stroke="black" />
<path d="M72 104 z m8 0 z l0 8 z m-8 0 z m0 -8 z "  stroke="black" />
<path d="M80 104 z m8 0 z l0 8 z m-8 0 z m0 -8 z "  stroke="black" />
<path d="M88 104 z m8 0 z m0 8 z l-8 0 z l0 -8 z "  stroke="black" />
<path d="M96 104 z m8 0 z m0 8 z l-8 0 z l0 -8 z "  stroke="black" />
<path d="M104 104 z l8 0 z l0 8 z m-8 0 z m0 -8 z "  stroke="black" />
<path d="M112 104 z l8 0 z l0 8 z m-8 0 z m0 -8 z "  stroke="black" />
<path d="M120 104 z m8 0 z m0 8 z l-8 0 z l0 -8 z "  stroke="black" />
<path d="M128 104 z l8 0 z m0 8 z l-8 0 z l0 -8 z "  stroke="black" />
<path d="M136 104 z l8 0 z m0 8 z l-8 0 z l0 -8 z "  stroke="black" />
<path d="M144 104 z l8 0 z m0 8 z l-8 0 z l0 -8 z "  stroke="black" />
<path d="M152 104 z l8 0 z l0 8 z m-8 0 z m0 -8 z "  stroke="black" />
<path d="M160 104 z m8 0 z m0 8 z l-8 0 z l0 -8 z "  stroke="black" />
<path d="M168 104 z l8 0 z m0 8 z m-8 0 z m0 -8 z "  stroke="black" />
<path d="M176 104 z l8 0 z m0 8 z l-8 0 z l0 -8 z "  stroke="black" />
<path d="M184 104 z l8 0 z m0 8 z l-8 0 z l0 -8 z "  stroke="black" />
<path d="M192 104 z l8 0 z m0 8 z m-8 0 z m0 -8 z "  stroke="black" />
<path d="M200 104 z l8 0 z l0 8 z m-8 0 z m0 -8 z "  stroke="black" />
<path d="M208 104 z m8 0 z l0 8 z l-8 0 z l0 -8 z "  stroke="black" />
<path d="M216 104 z l8 0 z m0 8 z m-8 0 z m0 -8 z "  stroke="black" />
<path d="M224 104 z l8 0 z l0 8 z m-8 0 z m0 -8 z "  stroke="black" />
<path d="M232 104 z m8 0 z l0 8 z m-8 0 z m0 -8 z "  stroke="black" />
<path d="M0 112 z l8 0 z m0 8 z l-8 0 z l0 -8 z "  stroke="black" />
<path d="M8 112 z l8 0 z m0 8 z l-8 0 z l0 -8 z "  stroke="black" />
<path d="M16 112 z m8 0 z l0 8 z l-8 0 z l0 -8 z "  stroke="black" />
<path d="M24 112 z m8 0 z l0 8 z m-8 0 z m0 -8 z "  stroke="black" />
<path d="M32 112 z l8 0 z m0 8 z m-8 0 z m0 -8 z "  stroke="black" />
<path d="M40 112 z m8 0 z l0 8 z l-8 0 z l0 -8 z "  stroke="black" />
<path d="M48 112 z m8 0 z l0 8 z m-8 0 z m0 -8 z "  stroke="black" />
<path d="M56 112 z m8 0 z l0 8 z l-8 0 z l0 -8 z "  stroke="black" />
<path d="M64 112 z m8 0 z m0 8 z m-8 0 z m0 -8 z "  stroke="black" />
<path d="M72 112 z m8 0 z l0 8 z l-8 0 z l0 -8 z "  stroke="black" />
<path d="M80 112 z m8 0 z l0 8 z m-8 0 z m0 -8 z "  stroke="black" />
<path d="M88 112 z l8 0 z m0 8 z m-8 0 z m0 -8 z "  stroke="black" />
<path d="M96 112 z l8 0 z l0 8 z m-8 0 z m0 -8 z "  stroke="black" />
<path d="M104 112 z m8 0 z m0 8 z l-8 0 z l0 -8 z "  stroke="black" />
<path d="M112 112 z m8 0 z l0 8 z m-8 0 z m0 -8 z "  stroke="black" />
<path d="M120 112 z l8 0 z m0 8 z m-8 0 z m0 -8 z "  stroke="black" />
<path d="M128 112 z l8 0 z m0 8 z m-8 0 z m0 -8 z "  stroke="black" />
<path d="M136 112 z l8 0 z l0 8 z m-8 0 z m0 -8 z "  stroke="black" />
<path d="M144 112 z l8 0 z l0 8 z m-8 0 z m0 -8 z "  stroke="black" />
<path d="M152 112 z m8 0 z m0 8 z l-8 0 z l0 -8 z "  stroke="black" />
<path d="M160 112 z l8 0 z l0 8 z m-8 0 z m0 -8 z "  stroke="black" />
<path d="M168 112 z m8 0 z m0 8 z l-8 0 z l0 -8 z "  stroke="black" />
<path d="M176 112 z l8 0 z m0 8 z l-8 0 z l0 -8 z "  stroke="black" />
<path d="M184 112 z l8 0 z l0 8 z l-8 0 z l0 -8 z "  stroke="black" />
<path d="M192 112 z m8 0 z l0 8 z m-8 0 z m0 -8 z "  stroke="black" />
<path d="M200 112 z m8 0 z m0 8 z l-8 0 z l0 -8 z "  stroke="black" />
<path d="M208 112 z l8 0 z m0 8 z l-8 0 z l0 -8 z "  stroke="black" />
<path d="M216 112 z m8 0 z l0 8 z l-8 0 z l0 -8 z "  stroke="black" />
<path d="M224 112 z m8 0 z m0 8 z l-8 0 z l0 -8 z "  stroke="black" />
<path d="M232 112 z m8 0 z l0 8 z m-8 0 z m0 -8 z "  stroke="black" />
<path d="M0 120 z l8 0 z m0 8 z m-8 0 z m0 -8 z "  stroke="black" />
<path d="M8 120 z l8 0 z m0 8 z l-8 0 z l0 -8 z "  stroke="black" />
<path d="M16 120 z l8 0 z l0 8 z m-8 0 z m0 -8 z "  stroke="black" />
<path d="M24 120 z m8 0 z l0 8 z m-8 0 z m0 -8 z "  stroke="black" />
<path d="M32 120 z m8 0 z m0 8 z l-8 0 z l0 -8 z "  stroke="black" />
<path d="M40 120 z l8 0 z l0 8 z m-8 0 z m0 -8 z "  stroke="black" />
<path d="M48 120 z m8 0 z m0 8 z l-8 0 z l0 -8 z "  stroke="black" />
<path d="M56 120 z l8 0 z l0 8 z m-8 0 z m0 -8 z "  stroke="black" />
<path d="M64 120 z m8 0 z m0 8 z m-8 0 z m0 -8 z "  stroke="black" />
<path d="M72 120 z l8 0 z m0 8 z l-8 0 z l0 -8 z "  stroke="black" />
<path d="M80 120 z m8 0 z l0 8 z l-8 0 z l0 -8 z "  stroke="black" />
<path d="M88 120 z m8 0 z l0 8 z m-8 0 z m0 -8 z "  stroke="black" />
<path d="M96 120 z m8 0 z l0 8 z m-8 0 z m0 -8 z "  stroke="black" />
<path d="M104 120 z l8 0 z m0 8 z m-8 0 z m0 -8 z "  stroke="black" />
<path d="M112 120 z m8 0 z l0 8 z l-8 0 z l0 -8 z "  stroke="black" />
<path d="M120 120 z m8 0 z l0 8 z m-8 0 z m0 -8 z "  stroke="black" />
<path d="M128 120 z m8 0 z l0 8 z m-8 0 z m0 -8 z "  stroke="black" />
<path d="M136 120 z m8 0 z m0 8 z l-8 0 z l0 -8 z "  stroke="black" />
<path d="M144 120 z m8 0 z m0 8 z l-8 0 z l0 -8 z "  stroke="black" />
<path d="M152 120 z l8 0 z l0 8 z m-8 0 z m0 -8 z "  stroke="black" />
<path d="M160 120 z m8 0 z l0 8 z m-8 0 z m0 -8 z "  stroke="black" />
<path d="M168 120 z l8 0 z m0 8 z m-8 0 z m0 -8 z "  stroke="black" />
<path d="M176 120 z l8 0 z m0 8 z l-8 0 z l0 -8 z "  stroke="black" />
<path d="M184 120 z l8 0 z m0 8 z l-8 0 z l0 -8 z "  stroke="black" />
<path d="M192 120 z m8 0 z l0 8 z l-8 0 z l0 -8 z "  stroke="black" />
<path d="M200 120 z l8 0 z m0 8 z l-8 0 z l0 -8 z "  stroke="black" />
<path d="M208 120 z l8 0 z m0 8 z m-8 0 z m0 -8 z "  stroke="black" />
<path d="M216 120 z l8 0 z m0 8 z m-8 0 z m0 -8 z "  stroke="black" />
<path d="M224 120 z l8 0 z l0 8 z l-8 0 z l0 -8 z "  stroke="black" />
<path d="M232 120 z m8 0 z l0 8 z m-8 0 z m0 -8 z "  stroke="black" />
<path d="M0 128 z m8 0 z l0 8 z m-8 0 z m0 -8 z "  stroke="black" />
<path d="M8 128 z l8 0 z l0 8 z m-8 0 z m0 -8 z "  stroke="black" />
<path d="M16 128 z m8 0 z l0 8 z m-8 0 z m0 -8 z "  stroke="black" />
<path d="M24 128 z m8 0 z l0 8 z m-8 0 z m0 -8 z "  stroke="black" />
<path d="M32 128 z l8 0 z m0 8 z m-8 0 z m0 -8 z "  stroke="black" />
<path d="M40 128 z m8 0 z l0 8 z l-8 0 z l0 -8 z "  stroke="black" />
<path d="M48 128 z l8 0 z m0 8 z m-8 0 z m0 -8 z "  stroke="black" />
<path d="M56 128 z m8 0 z l0 8 z l-8 0 z l0 -8 z "  stroke="black" />
<path d="M64 128 z m8 0 z l0 8 z m-8 0 z m0 -8 z "  stroke="black" />
<path d="M72 128 z l8 0 z m0 8 z m-8 0 z m0 -8 z "  stroke="black" />
<path d="M80 128 z l8 0 z m0 8 z l-8 0 z l0 -8 z "  stroke="black" />
<path d="M88 128 z m8 0 z l0 8 z l-8 0 z l0 -8 z "  stroke="black" />
<path d="M96 128 z m8 0 z l0 8 z m-8 0 z m0 -8 z "  stroke="black" />
<path d="M104 128 z m8 0 z m0 8 z l-8 0 z l0 -8 z "  stroke="black" />
<path d="M112 128 z l8 0 z l0 8 z l-8 0 z l0 -8 z "  stroke="black" />
<path d="M120 128 z m8 0 z l0 8 z m-8 0 z m0 -8 z "  stroke="black" />
<path d="M128 128 z m8 0 z m0 8 z l-8 0 z l0 -8 z "  stroke="black" />
<path d="M136 128 z l8 0 z l0 8 z m-8 0 z m0 -8 z "  stroke="black" />
<path d="M144 128 z l8 0 z m0 8 z m-8 0 z m0 -8 z "  stroke="black" />
<path d="M152 128 z m8 0 z l0 8 z l-8 0 z l0 -8 z "  stroke="black" />
<path d="M160 128 z m8 0 z m0 8 z l-8 0 z l0 -8 z "  stroke="black" />
<path d="M168 128 z m8 0 z l0 8 z l-8 0 z l0 -8 z "  stroke="black" />
<path d="M176 128 z l8 0 z m0 8 z l-8 0 z l0 -8 z "  stroke="black" />
<path d="M184 128 z l8 0 z m0 8 z m-8 0 z m0 -8 z "  stroke="black" />
<path d="M192 128 z l8 0 z m0 8 z l-8 0 z l0 -8 z "  stroke="black" />
<path d="M200 128 z l8 0 z l0 8 z m-8 0 z m0 -8 z "  stroke="black" />
<path d="M208 128 z m8 0 z l0 8 z l-8 0 z l0 -8 z "  stroke="black" />
<path d="M216 128 z m8 0 z l0 8 z m-8 0 z m0 -8 z "  stroke="black" />
<path d="M224 128 z l8 0 z m0 8 z m-8 0 z m0 -8 z "  stroke="black" />
<path d="M232 128 z m8 0 z l0 8 z l-8 0 z l0 -8 z "  stroke="black" />
<path d="M0 136 z m8 0 z l0 8 z m-8 0 z m0 -8 z "  stroke="black" />
<path d="M8 136 z m8 0 z m0 8 z l-8 0 z l0 -8 z "  stroke="black" />
<path d="M16 136 z m8 0 z m0 8 z l-8 0 z l0 -8 z "  stroke="black" />
<path d="M24 136 z m8 0 z l0 8 z l-8 0 z l0 -8 z "  stroke="black" />
<path d="M32 136 z m8 0 z m0 8 z l-8 0 z l0 -8 z "  stroke="black" />
<path d="M40 136 z l8 0 z l0 8 z m-8 0 z m0 -8 z "  stroke="black" />
<path d="M48 136 z m8 0 z l0 8 z m-8 0 z m0 -8 z "  stroke="black" />
<path d="M56 136 z l8 0 z l0 8 z m-8 0 z m0 -8 z "  stroke="black" />
<path d="M64 136 z m8 0 z l0 8 z m-8 0 z m0 -8 z "  stroke="black" />
<path d="M72 136 z m8 0 z l0 8 z m-8 0 z m0 -8 z "  stroke="black" />
<path d="M80 136 z l8 0 z m0 8 z l-8 0 z l0 -8 z "  stroke="black" />
<path d="M88 136 z l8 0 z l0 8 z m-8 0 z m0 -8 z "  stroke="black" />
<path d="M96 136 z m8 0 z l0 8 z m-8 0 z m0 -8 z "  stroke="black" />
<path d="M104 136 z l8 0 z m0 8 z m-8 0 z m0 -8 z "  stroke="black" />
<path d="M112 136 z l8 0 z m0 8 z l-8 0 z l0 -8 z "  stroke="black" />
<path d="M120 136 z m8 0 z l0 8 z l-8 0 z l0 -8 z "  stroke="black" />
<path d="M128 136 z l8 0 z l0 8 z m-8 0 z m0 -8 z "  stroke="black" />
<path d="M136 136 z m8 0 z l0 8 z m-8 0 z m0 -8 z "  stroke="black" />
<path d="M144 136 z m8 0 z l0 8 z m-8 0 z m0 -8 z "  stroke="black" />
<path d="M152 136 z l8 0 z m0 8 z l-8 0 z l0 -8 z "  stroke="black" />
<path d="M160 136 z l8 0 z m0 8 z m-8 0 z m0 -8 z "  stroke="black" />
<path d="M168 136 z l8 0 z m0 8 z l-8 0 z l0 -8 z "  stroke="black" />
<path d="M176 136 z l8 0 z l0 8 z m-8 0 z m0 -8 z "  stroke="black" />
<path d="M184 136 z m8 0 z m0 8 z l-8 0 z l0 -8 z "  stroke="black" />
<path d="M192 136 z l8 0 z l0 8 z m-8 0 z m0 -8 z "  stroke="black" />
<path d="M200 136 z m8 0 z m0 8 z l-8 0 z l0 -8 z "  stroke="black" />
<path d="M208 136 z l8 0 z l0 8 z m-8 0 z m0 -8 z "  stroke="black" />
<path d="M216 136 z m8 0 z l0 8 z m-8 0 z m0 -8 z "  stroke="black" />
<path d="M224 136 z m8 0 z m0 8 z l-8 0 z l0 -8 z "  stroke="black" />
<path d="M232 136 z l8 0 z l0 8 z m-8 0 z m0 -8 z "  stroke="black" />
<path d="M0 144 z m8 0 z m0 8 z m-8 0 z m0 -8 z "  stroke="black" />
<path d="M8 144 z l8 0 z m0 8 z l-8 0 z l0 -8 z "  stroke="black" />
<path d="M16 144 z l8 0 z m0 8 z l-8 0 z l0 -8 z "  stroke="black" />
<path d="M24 144 z l8 0 z m0 8 z l-8 0 z l0 -8 z "  stroke="black" />
<path d="M32 144 z l8 0 z l0 8 z m-8 0 z m0 -8 z "  stroke="black" />
<path d="M40 144 z m8 0 z l0 8 z m-8 0 z m0 -8 z "  stroke="black" />
<path d="M48 144 z m8 0 z l0 8 z m-8 0 z m0 -8 z "  stroke="black" />
<path d="M56 144 z m8 0 z m0 8 z l-8 0 z l0 -8 z "  stroke="black" />
<path d="M64 144 z m8 0 z l0 8 z l-8 0 z l0 -8 z "  stroke="black" />
<path d="M72 144 z m8 0 z m0 8 z l-8 0 z l0 -8 z "  stroke="black" />
<path d="M80 144 z l8 0 z m0 8 z l-8 0 z l0 -8 z "  stroke="black" />
<path d="M88 144 z m8 0 z l0 8 z m-8 0 z m0 -8 z "  stroke="black" />
<path d="M96 144 z m8 0 z m0 8 z l-8 0 z l0 -8 z "  stroke="black" />
<path d="M104 144 z m8 0 z l0 8 z l-8 0 z l0 -8 z "  stroke="black" />
<path d="M112 144 z l8 0 z m0 8 z l-8 0 z l0 -8 z "  stroke="black" />
<path d="M120 144 z l8 0 z m0 8 z m-8 0 z m0 -8 z "  stroke="black" />
<path d="M128 144 z m8 0 z l0 8 z m-8 0 z m0 -8 z "  stroke="black" />
<path d="M136 144 z m8 0 z l0 8 z m-8 0 z m0 -8 z "  stroke="black" />
<path d="M144 144 z m8 0 z m0 8 z l-8 0 z l0 -8 z "  stroke="black" />
<path d="M152 144 z l8 0 z m0 8 z l-8 0 z l0 -8 z "  stroke="black" />
<path d="M160 144 z m8 0 z l0 8 z l-8 0 z l0 -8 z "  stroke="black" />
<path d="M168 144 z l8 0 z l0 8 z m-8 0 z m0 -8 z "  stroke="black" />
<path d="M176 144 z m8 0 z m0 8 z l-8 0 z l0 -8 z "  stroke="black" />
<path d="M184 144 z l8 0 z l0 8 z m-8 0 z m0 -8 z "  stroke="black" />
<path d="M192 144 z m8 0 z l0 8 z m-8 0 z m0 -8 z "  stroke="black" />
<path d="M200 144 z l8 0 z l0 8 z m-8 0 z m0 -8 z "  stroke="black" />
<path d="M208 144 z m8 0 z m0 8 z l-8 0 z l0 -8 z "  stroke="black" />
<path d="M216 144 z m8 0 z m0 8 z l-8 0 z l0 -8 z "  stroke="black" />
<path d="M224 144 z l8 0 z l0 8 z m-8 0 z m0 -8 z "  stroke="black" />
<path d="M232 144 z m8 0 z l0 8 z m-8 0 z m0 -8 z "  stroke="black" />
<path d="M0 152 z m8 0 z l0 8 z l-8 0 z l0 -8 z "  stroke="black" />
<path d="M8 152 z l8 0 z m0 8 z m-8 0 z m0 -8 z "  stroke="black" />
<path d="M16 152 z l8 0 z m0 8 z l-8 0 z l0 -8 z "  stroke="black" />
<path d="M24 152 z l8 0 z m0 8 z l-8 0 z l0 -8 z "  stroke="black" />
<path d="M32 152 z m8 0 z l0 8 z l-8 0 z l0 -8 z "  stroke="black" />
<path d="M40 152 z m8 0 z l0 8 z m-8 0 z m0 -8 z "  stroke="black" />
<path d="M48 152 z m8 0 z m0 8 z l-8 0 z l0 -8 z "  stroke="black" />
<path d="M56 152 z l8 0 z m0 8 z l-8 0 z l0 -8 z "  stroke="black" />
<path d="M64 152 z l8 0 z m0 8 z l-8 0 z l0 -8 z "  stroke="black" />
<path d="M72 152 z l8 0 z m0 8 z l-8 0 z l0 -8 z "  stroke="black" />
<path d="M80 152 z l8 0 z m0 8 z l-8 0 z l0 -8 z "  stroke="black" />
<path d="M88 152 z m8 0 z l0 8 z l-8 0 z l0 -8 z "  stroke="black" />
<path d="M96 152 z l8 0 z m0 8 z m-8 0 z m0 -8 z "  stroke="black" />
<path d="M104 152 z l8 0 z m0 8 z m-8 0 z m0 -8 z "  stroke="black" />
<path d="M112 152 z l8 0 z l0 8 z m-8 0 z m0 -8 z "  stroke="black" />
<path d="M120 152 z m8 0 z l0 8 z l-8 0 z l0 -8 z "  stroke="black" />
<path d="M128 152 z m8 0 z l0 8 z m-8 0 z m0 -8 z "  stroke="black" />
<path d="M136 152 z m8 0 z l0 8 z m-8 0 z m0 -8 z "  stroke="black" />
<path d="M144 152 z l8 0 z m0 8 z l-8 0 z l0 -8 z "  stroke="black" />
<path d="M152 152 z l8 0 z m0 8 z l-8 0 z l0 -8 z "  stroke="black" />
<path d="M160 152 z l8 0 z m0 8 z l-8 0 z l0 -8 z "  stroke="black" />
<path d="M168 152 z m8 0 z m0 8 z m-8 0 z m0 -8 z "  stroke="black" />
<path d="M176 152 z l8 0 z l0 8 z l-8 0 z l0 -8 z "  stroke="black" />
<path d="M184 152 z m8 0 z l0 8 z m-8 0 z m0 -8 z "  stroke="black" />
<path d="M192 152 z m8 0 z l0 8 z m-8 0 z m0 -8 z "  stroke="black" />
<path d="M200 152 z m8 0 z l0 8 z m-8 0 z m0 -8 z "  stroke="black" />
<path d="M208 152 z l8 0 z m0 8 z m-8 0 z m0 -8 z "  stroke="black" />
<path d="M216 152 z l8 0 z l0 8 z m-8 0 z m0 -8 z "  stroke="black" />
<path d="M224 152 z m8 0 z l0 8 z m-8 0 z m0 -8 z "  stroke="black" />
<path d="M232 152 z m8 0 z l0 8 z m-8 0 z m0 -8 z "  stroke="black" />
<path d="M0 160 z l8 0 z m0 8 z m-8 0 z m0 -8 z "  stroke="black" />
<path d="M8 160 z m8 0 z l0 8 z m-8 0 z m0 -8 z "  stroke="black" />
<path d="M16 160 z l8 0 z m0 8 z m-8 0 z m0 -8 z "  stroke="black" />
<path d="M24 160 z l8 0 z m0 8 z l-8 0 z l0 -8 z "  stroke="black" />
<path d="M32 160 z l8 0 z l0 8 z m-8 0 z m0 -8 z "  stroke="black" />
<path d="M40 160 z m8 0 z l0 8 z m-8 0 z m0 -8 z "  stroke="black" />
<path d="M48 160 z l8 0 z m0 8 z m-8 0 z m0 -8 z "  stroke="black" />
<path d="M56 160 z l8 0 z l0 8 z l-8 0 z l0 -8 z "  stroke="black" />
<path d="M64 160 z l8 0 z m0 8 z m-8 0 z m0 -8 z "  stroke="black" />
<path d="M72 160 z l8 0 z l0 8 z m-8 0 z m0 -8 z "  stroke="black" />
<path d="M80 160 z l8 0 z m0 8 z m-8 0 z m0 -8 z "  stroke="black" />
<path d="M88 160 z l8 0 z m0 8 z l-8 0 z l0 -8 z "  stroke="black" />
<path d="M96 160 z m8 0 z l0 8 z l-8 0 z l0 -8 z "  stroke="black" />
<path d="M104 160 z m8 0 z l0 8 z m-8 0 z m0 -8 z "  stroke="black" />
<path d="M112 160 z m8 0 z l0 8 z m-8 0 z m0 -8 z "  stroke="black" />
<path d="M120 160 z l8 0 z m0 8 z m-8 0 z m0 -8 z "  stroke="black" />
<path d="M128 160 z m8 0 z l0 8 z l-8 0 z l0 -8 z "  stroke="black" />
<path d="M136 160 z m8 0 z m0 8 z l-8 0 z l0 -8 z "  stroke="black" />
<path d="M144 160 z l8 0 z m0 8 z l-8 0 z l0 -8 z "  stroke="black" />
<path d="M152 160 z l8 0 z m0 8 z l-8 0 z l0 -8 z "  stroke="black" />
<path d="M160 160 z l8 0 z l0 8 z m-8 0 z m0 -8 z "  stroke="black" />
<path d="M168 160 z m8 0 z m0 8 z l-8 0 z l0 -8 z "  stroke="black" />
<path d="M176 160 z l8 0 z m0 8 z m-8 0 z m0 -8 z "  stroke="black" />
<path d="M184 160 z m8 0 z l0 8 z l-8 0 z l0 -8 z "  stroke="black" />
<path d="M192 160 z m8 0 z l0 8 z m-8 0 z m0 -8 z "  stroke="black" />
<path d="M200 160 z m8 0 z l0 8 z m-8 0 z m0 -8 z "  stroke="black" />
<path d="M208 160 z m8 0 z l0 8 z m-8 0 z m0 -8 z "  stroke="black" />
<path d="M216 160 z m8 0 z m0 8 z l-8 0 z l0 -8 z "  stroke="black" />
<path d="M224 160 z m8 0 z l0 8 z l-8 0 z l0 -8 z "  stroke="black" />
<path d="M232 160 z m8 0 z l0 8 z m-8 0 z m0 -8 z "  stroke="black" />
<path d="M0 168 z m8 0 z l0 8 z m-8 0 z m0 -8 z "  stroke="black" />
<path d="M8 168 z m8 0 z l0 8 z l-8 0 z l0 -8 z "  stroke="black" />
<path d="M16 168 z m8 0 z l0 8 z m-8 0 z m0 -8 z "  stroke="black" />
<path d="M24 168 z l8 0 z l0 8 z m-8 0 z m0 -8 z "  stroke="black" />
<path d="M32 168 z m8 0 z m0 8 z l-8 0 z l0 -8 z "  stroke="black" />
<path d="M40 168 z m8 0 z l0 8 z l-8 0 z l0 -8 z "  stroke="black" />
<path d="M48 168 z m8 0 z m0 8 z m-8 0 z m0 -8 z "  stroke="black" />
<path d="M56 168 z l8 0 z m0 8 z l-8 0 z l0 -8 z "  stroke="black" />
<path d="M64 168 z m8 0 z l0 8 z l-8 0 z l0 -8 z "  stroke="black" />
<path d="M72 168 z m8 0 z l0 8 z m-8 0 z m0 -8 z "  stroke="black" />
<path d="M80 168 z m8 0 z l0 8 z m-8 0 z m0 -8 z "  stroke="black" />
<path d="M88 168 z l8 0 z m0 8 z m-8 0 z m0 -8 z "  stroke="black" />
<path d="M96 168 z l8 0 z l0 8 z l-8 0 z l0 -8 z "  stroke="black" />
<path d="M104 168 z m8 0 z l0 8 z m-8 0 z m0 -8 z "  stroke="black" />
<path d="M112 168 z m8 0 z l0 8 z m-8 0 z m0 -8 z "  stroke="black" />
<path d="M120 168 z m8 0 z l0 8 z m-8 0 z m0 -8 z "  stroke="black" />
<path d="M128 168 z l8 0 z m0 8 z m-8 0 z m0 -8 z "  stroke="black" />
<path d="M136 168 z l8 0 z m0 8 z m-8 0 z m0 -8 z "  stroke="black" />
<path d="M144 168 z l8 0 z m0 8 z l-8 0 z l0 -8 z "  stroke="black" />
<path d="M152 168 z l8 0 z l0 8 z m-8 0 z m0 -8 z "  stroke="black" />
<path d="M160 168 z m8 0 z m0 8 z l-8 0 z l0 -8 z "  stroke="black" />
<path d="M168 168 z l8 0 z l0 8 z m-8 0 z m0 -8 z "  stroke="black" />
<path d="M176 168 z m8 0 z m0 8 z l-8 0 z l0 -8 z "  stroke="black" />
<path d="M184 168 z l8 0 z l0 8 z m-8 0 z m0 -8 z "  stroke="black" />
<path d="M192 168 z m8 0 z l0 8 z m-8 0 z m0 -8 z "  stroke="black" />
<path d="M200 168 z m8 0 z l0 8 z m-8 0 z m0 -8 z "  stroke="black" />
<path d="M208 168 z m8 0 z m0 8 z l-8 0 z l0 -8 z "  stroke="black" />
<path d="M216 168 z l8 0 z l0 8 z m-8 0 z m0 -8 z "  stroke="black" />
<path d="M224 168 z l8 0 z m0 8 z m-8 0 z m0 -8 z "  stroke="black" />
<path d="M232 168 z m8 0 z l0 8 z l-8 0 z l0 -8 z "  stroke="black" />
<path d="M0 176 z m8 0 z m0 8 z l-8 0 z l0 -8 z "  stroke="black" />
<path d="M8 176 z l8 0 z l0 8 z m-8 0 z m0 -8 z "  stroke="black" />
<path d="M16 176 z m8 0 z m0 8 z l-8 0 z l0 -8 z "  stroke="black" />
<path d="M24 176 z m8 0 z m0 8 z l-8 0 z l0 -8 z "  stroke="black" />
<path d="M32 176 z l8 0 z m0 8 z l-8 0 z l0 -8 z "  stroke="black" />
<path d="M40 176 z l8 0 z l0 8 z m-8 0 z m0 -8 z "  stroke="black" />
<path d="M48 176 z m8 0 z m0 8 z m-8 0 z m0 -8 z "  stroke="black" />
<path d="M56 176 z l8 0 z l0 8 z l-8 0 z l0 -8 z "  stroke="black" />
<path d="M64 176 z l8 0 z m0 8 z m-8 0 z m0 -8 z "  stroke="black" />
<path d="M72 176 z m8 0 z l0 8 z m-8 0 z m0 -8 z "  stroke="black" />
<path d="M80 176 z m8 0 z l0 8 z m-8 0 z m0 -8 z "  stroke="black" />
<path d="M88 176 z m8 0 z m0 8 z l-8 0 z l0 -8 z "  stroke="black" />
<path d="M96 176 z l8 0 z l0 8 z m-8 0 z m0 -8 z "  stroke="black" />
<path d="M104 176 z m8 0 z l0 8 z m-8 0 z m0 -8 z "  stroke="black" />
<path d="M112 176 z m8 0 z l0 8 z m-8 0 z m0 -8 z "  stroke="black" />
<path d="M120 176 z m8 0 z m0 8 z l-8 0 z l0 -8 z "  stroke="black" />
<path d="M128 176 z m8 0 z l0 8 z l-8 0 z l0 -8 z "  stroke="black" />
<path d="M136 176 z m8 0 z l0 8 z m-8 0 z m0 -8 z "  stroke="black" />
<path d="M144 176 z l8 0 z l0 8 z m-8 0 z m0 -8 z "  stroke="black" />
<path d="M152 176 z m8 0 z m0 8 z l-8 0 z l0 -8 z "  stroke="black" />
<path d="M160 176 z l8 0 z l0 8 z m-8 0 z m0 -8 z "  stroke="black" />
<path d="M168 176 z m8 0 z l0 8 z m-8 0 z m0 -8 z "  stroke="black" />
<path d="M176 176 z l8 0 z l0 8 z m-8 0 z m0 -8 z "  stroke="black" />
<path d="M184 176 z m8 0 z m0 8 z l-8 0 z l0 -8 z "  stroke="black" />
<path d="M192 176 z m8 0 z l0 8 z l-8 0 z l0 -8 z "  stroke="black" />
<path d="M200 176 z m8 0 z l0 8 z m-8 0 z m0 -8 z "  stroke="black" />
<path d="M208 176 z l8 0 z m0 8 z m-8 0 z m0 -8 z "  stroke="black" />
<path d="M216 176 z m8 0 z l0 8 z l-8 0 z l0 -8 z "  stroke="black" />
<path d="M224 176 z m8 0 z m0 8 z l-8 0 z l0 -8 z "  stroke="black" />
<path d="M232 176 z l8 0 z l0 8 z m-8 0 z m0 -8 z "  stroke="black" />
<path d="M0 184 z l8 0 z m0 8 z m-8 0 z m0 -8 z "  stroke="black" />
<path d="M8 184 z m8 0 z l0 8 z l-8 0 z l0 -8 z "  stroke="black" />
<path d="M16 184 z l8 0 z m0 8 z m-8 0 z m0 -8 z "  stroke="black" />
<path d="M24 184 z l8 0 z m0 8 z l-8 0 z l0 -8 z "  stroke="black" />
<path d="M32 184 z l8 0 z m0 8 z l-8 0 z l0 -8 z "  stroke="black" />
<path d="M40 184 z m8 0 z l0 8 z l-8 0 z l0 -8 z "  stroke="black" />
<path d="M48 184 z m8 0 z l0 8 z l-8 0 z l0 -8 z "  stroke="black" />
<path d="M56 184 z l8 0 z m0 8 z m-8 0 z m0 -8 z "  stroke="black" />
<path d="M64 184 z m8 0 z l0 8 z l-8 0 z l0 -8 z "  stroke="black" />
<path d="M72 184 z m8 0 z l0 8 z m-8 0 z m0 -8 z "  stroke="black" />
<path d="M80 184 z m8 0 z l0 8 z m-8 0 z m0 -8 z "  stroke="black" />
<path d="M88 184 z l8 0 z m0 8 z m-8 0 z m0 -8 z "  stroke="black" />
<path d="M96 184 z m8 0 z l0 8 z l-8 0 z l0 -8 z "  stroke="black" />
<path d="M104 184 z m8 0 z l0 8 z m-8 0 z m0 -8 z "  stroke="black" />
<path d="M112 184 z m8 0 z m0 8 z l-8 0 z l0 -8 z "  stroke="black" />
<path d="M120 184 z l8 0 z m0 8 z l-8 0 z l0 -8 z "  stroke="black" />
<path d="M128 184 z l8 0 z m0 8 z l-8 0 z l0 -8 z "  stroke="black" />
<path d="M136 184 z m8 0 z l0 8 z l-8 0 z l0 -8 z "  stroke="black" />
<path d="M144 184 z m8 0 z l0 8 z m-8 0 z m0 -8 z "  stroke="black" />
<path d="M152 184 z l8 0 z m0 8 z m-8 0 z m0 -8 z "  stroke="black" />
<path d="M160 184 z m8 0 z l0 8 z l-8 0 z l0 -8 z "  stroke="black" />
<path d="M168 184 z m8 0 z l0 8 z m-8 0 z m0 -8 z "  stroke="black" />
<path d="M176 184 z m8 0 z m0 8 z l-8 0 z l0 -8 z "  stroke="black" />
<path d="M184 184 z l8 0 z m0 8 z m-8 0 z m0 -8 z "  stroke="black" />
<path d="M192 184 z l8 0 z m0 8 z m-8 0 z m0 -8 z "  stroke="black" />
<path d="M200 184 z m8 0 z l0 8 z m-8 0 z m0 -8 z "  stroke="black" />
<path d="M208 184 z m8 0 z l0 8 z m-8 0 z m0 -8 z "  stroke="black" />
<path d="M216 184 z l8 0 z m0 8 z l-8 0 z l0 -8 z "  stroke="black" />
<path d="M224 184 z l8 0 z l0 8 z m-8 0 z m0 -8 z "  stroke="black" />
<path d="M232 184 z m8 0 z l0 8 z m-8 0 z m0 -8 z "  stroke="black" />
<path d="M0 192 z m8 0 z m0 8 z m-8 0 z m0 -8 z "  stroke="black" />
<path d="M8 192 z l8 0 z m0 8 z l-8 0 z l0 -8 z "  stroke="black" />
<path d="M16 192 z m8 0 z l0 8 z l-8 0 z l0 -8 z "  stroke="black" />
<path d="M24 192 z l8 0 z m0 8 z m-8 0 z m0 -8 z "  stroke="black" />
<path d="M32 192 z l8 0 z m0 8 z l-8 0 z l0 -8 z "  stroke="black" />
<path d="M40 192 z l8 0 z m0 8 z l-8 0 z l0 -8 z "  stroke="black" />
<path d="M48 192 z l8 0 z l0 8 z m-8 0 z m0 -8 z "  stroke="black" />
<path d="M56 192 z m8 0 z m0 8 z m-8 0 z m0 -8 z "  stroke="black" />
<path d="M64 192 z l8 0 z l0 8 z m-8 0 z m0 -8 z "  stroke="black" />
<path d="M72 192 z m8 0 z l0 8 z l-8 0 z l0 -8 z "  stroke="black" />
<path d="M80 192 z m8 0 z m0 8 z l-8 0 z l0 -8 z "  stroke="black" />
<path d="M88 192 z m8 0 z l0 8 z m-8 0 z m0 -8 z "  stroke="black" />
<path d="M96 192 z l8 0 z m0 8 z m-8 0 z m0 -8 z "  stroke="black" />
<path d="M104 192 z m8 0 z l0 8 z l-8 0 z l0 -8 z "  stroke="black" />
<path d="M112 192 z l8 0 z m0 8 z l-8 0 z l0 -8 z "  stroke="black" />
<path d="M120 192 z l8 0 z l0 8 z m-8 0 z m0 -8 z "  stroke="black" />
<path d="M128 192 z l8 0 z m0 8 z m-8 0 z m0 -8 z "  stroke="black" />
<path d="M136 192 z l8 0 z m0 8 z l-8 0 z l0 -8 z "  stroke="black" />
<path d="M144 192 z m8 0 z m0 8 z l-8 0 z l0 -8 z "  stroke="black" />
<path d="M152 192 z m8 0 z m0 8 z l-8 0 z l0 -8 z "  stroke="black" />
<path d="M160 192 z l8 0 z l0 8 z l-8 0 z l0 -8 z "  stroke="black" />
<path d="M168 192 z m8 0 z m0 8 z l-8 0 z l0 -8 z "  stroke="black" />
<path d="M176 192 z l8 0 z l0 8 z m-8 0 z m0 -8 z "  stroke="black" />
<path d="M184 192 z m8 0 z l0 8 z m-8 0 z m0 -8 z "  stroke="black" />
<path d="M192 192 z m8 0 z l0 8 z m-8 0 z m0 -8 z "  stroke="black" />
<path d="M200 192 z m8 0 z l0 8 z l-8 0 z l0 -8 z "  stroke="black" />
<path d="M208 192 z m8 0 z m0 8 z l-8 0 z l0 -8 z "  stroke="black" />
<path d="M216 192 z l8 0 z l0 8 z m-8 0 z m0 -8 z "  stroke="black" />
<path d="M224 192 z m8 0 z l0 8 z m-8 0 z m0 -8 z "  stroke="black" />
<path d="M232 192 z m8 0 z l0 8 z m-8 0 z m0 -8 z "  stroke="black" />
<path d="M0 200 z m8 0 z m0 8 z l-8 0 z l0 -8 z "  stroke="black" />
<path d="M8 200 z l8 0 z m0 8 z l-8 0 z l0 -8 z "  stroke="black" />
<path d="M16 200 z l8 0 z m0 8 z l-8 0 z l0 -8 z "  stroke="black" />
<path d="M24 200 z m8 0 z l0 8 z l-8 0 z l0 -8 z "  stroke="black" />
<path d="M32 200 z l8 0 z l0 8 z m-8 0 z m0 -8 z "  stroke="black" />
<path d="M40 200 z l8 0 z m0 8 z m-8 0 z m0 -8 z "  stroke="black" />
<path d="M48 200 z m8 0 z l0 8 z l-8 0 z l0 -8 z "  stroke="black" />
<path d="M56 200 z m8 0 z l0 8 z m-8 0 z m0 -8 z "  stroke="black" />
<path d="M64 200 z m8 0 z m0 8 z l-8 0 z l0 -8 z "  stroke="black" />
<path d="M72 200 z l8 0 z m0 8 z l-8 0 z l0 -8 z "  stroke="black" />
<path d="M80 200 z l8 0 z l0 8 z m-8 0 z m0 -8 z "  stroke="black" />
<path d="M88 200 z m8 0 z l0 8 z m-8 0 z m0 -8 z "  stroke="black" />
<path d="M96 200 z m8 0 z l0 8 z m-8 0 z m0 -8 z "  stroke="black" />
<path d="M104 200 z l8 0 z m0 8 z m-8 0 z m0 -8 z "  stroke="black" />
<path d="M112 200 z l8 0 z l0 8 z m-8 0 z m0 -8 z "  stroke="black" />
<path d="M120 200 z m8 0 z m0 8 z l-8 0 z l0 -8 z "  stroke="black" />
<path d="M128 200 z m8 0 z m0 8 z l-8 0 z l0 -8 z "  stroke="black" />
<path d="M136 200 z l8 0 z l0 8 z m-8 0 z m0 -8 z "  stroke="black" />
<path d="M144 200 z l8 0 z l0 8 z m-8 0 z m0 -8 z "  stroke="black" />
<path d="M152 200 z l8 0 z m0 8 z m-8 0 z m0 -8 z "  stroke="black" />
<path d="M160 200 z l8 0 z m0 8 z l-8 0 z l0 -8 z "  stroke="black" />
<path d="M168 200 z l8 0 z m0 8 z l-8 0 z l0 -8 z "  stroke="black" />
<path d="M176 200 z m8 0 z l0 8 z l-8 0 z l0 -8 z "  stroke="black" />
<path d="M184 200 z m8 0 z l0 8 z m-8 0 z m0 -8 z "  stroke="black" />
<path d="M192 200 z m8 0 z m0 8 z l-8 0 z l0 -8 z "  stroke="black" />
<path d="M200 200 z l8 0 z m0 8 z l-8 0 z l0 -8 z "  stroke="black" />
<path d="M208 200 z l8 0 z m0 8 z l-8 0 z l0 -8 z "  stroke="black" />
<path d="M216 200 z m8 0 z m0 8 z l-8 0 z l0 -8 z "  stroke="black" />
<path d="M224 200 z m8 0 z l0 8 z l-8 0 z l0 -8 z "  stroke="black" />
<path d="M232 200 z m8 0 z l0 8 z m-8 0 z m0 -8 z "  stroke="black" />
<path d="M0 208 z l8 0 z m0 8 z m-8 0 z m0 -8 z "  stroke="black" />
<path d="M8 208 z l8 0 z m0 8 z l-8 0 z l0 -8 z "  stroke="black" />
<path d="M16 208 z l8 0 z m0 8 z l-8 0 z l0 -8 z "  stroke="black" />
<path d="M24 208 z l8 0 z m0 8 z l-8 0 z l0 -8 z "  stroke="black" />
<path d="M32 208 z m8 0 z l0 8 z l-8 0 z l0 -8 z "  stroke="black" />
<path d="M40 208 z m8 0 z m0 8 z l-8 0 z l0 -8 z "  stroke="black" />
<path d="M48 208 z l8 0 z l0 8 z m-8 0 z m0 -8 z "  stroke="black" />
<path d="M56 208 z m8 0 z l0 8 z m-8 0 z m0 -8 z "  stroke="black" />
<path d="M64 208 z l8 0 z m0 8 z m-8 0 z m0 -8 z "  stroke="black" />
<path d="M72 208 z l8 0 z m0 8 z l-8 0 z l0 -8 z "  stroke="black" />
<path d="M80 208 z m8 0 z l0 8 z m-8 0 z m0 -8 z "  stroke="black" />
<path d="M88 208 z m8 0 z l0 8 z m-8 0 z m0 -8 z "  stroke="black" />
<path d="M96 208 z m8 0 z m0 8 z l-8 0 z l0 -8 z "  stroke="black" />
<path d="M104 208 z m8 0 z l0 8 z l-8 0 z l0 -8 z "  stroke="black" />
<path d="M112 208 z m8 0 z m0 8 z l-8 0 z l0 -8 z "  stroke="black" />
<path d="M120 208 z l8 0 z l0 8 z m-8 0 z m0 -8 z "  stroke="black" />
<path d="M128 208 z l8 0 z l0 8 z m-8 0 z m0 -8 z "  stroke="black" />
<path d="M136 208 z m8 0 z l0 8 z m-8 0 z m0 -8 z "  stroke="black" />
<path d="M144 208 z m8 0 z l0 8 z m-8 0 z m0 -8 z "  stroke="black" />
<path d="M152 208 z m8 0 z m0 8 z l-8 0 z l0 -8 z "  stroke="black" />
<path d="M160 208 z l8 0 z l0 8 z m-8 0 z m0 -8 z "  stroke="black" />
<path d="M168 208 z l8 0 z m0 8 z l-8 0 z l0 -8 z "  stroke="black" />
<path d="M176 208 z l8 0 z m0 8 z l-8 0 z l0 -8 z "  stroke="black" />
<path d="M184 208 z m8 0 z l0 8 z m-8 0 z m0 -8 z "  stroke="black" />
<path d="M192 208 z l8 0 z m0 8 z m-8 0 z m0 -8 z "  stroke="black" />
<path d="M200 208 z l8 0 z l0 8 z m-8 0 z m0 -8 z "  stroke="black" />
<path d="M208 208 z l8 0 z m0 8 z m-8 0 z m0 -8 z "  stroke="black" />
<path d="M216 208 z l8 0 z m0 8 z l-8 0 z l0 -8 z "  stroke="black" />
<path d="M224 208 z l8 0 z m0 8 z l-8 0 z l0 -8 z "  stroke="black" />
<path d="M232 208 z m8 0 z l0 8 z l-8 0 z l0 -8 z "  stroke="black" />
<path d="M0 216 z m8 0 z l0 8 z m-8 0 z m0 -8 z "  stroke="black" />
<path d="M8 216 z l8 0 z m0 8 z m-8 0 z m0 -8 z "  stroke="black" />
<path d="M16 216 z l8 0 z m0 8 z l-8 0 z l0 -8 z "  stroke="black" />
<path d="M24 216 z l8 0 z l0 8 z m-8 0 z m0 -8 z "  stroke="black" />
<path d="M32 216 z l8 0 z m0 8 z m-8 0 z m0 -8 z "  stroke="black" />
<path d="M40 216 z l8 0 z m0 8 z l-8 0 z l0 -8 z "  stroke="black" />
<path d="M48 216 z m8 0 z l0 8 z l-8 0 z l0 -8 z "  stroke="black" />
<path d="M56 216 z m8 0 z l0 8 z m-8 0 z m0 -8 z "  stroke="black" />
<path d="M64 216 z m8 0 z l0 8 z m-8 0 z m0 -8 z "  stroke="black" />
<path d="M72 216 z l8 0 z m0 8 z l-8 0 z l0 -8 z "  stroke="black" />
<path d="M80 216 z m8 0 z l0 8 z l-8 0 z l0 -8 z "  stroke="black" />
<path d="M88 216 z m8 0 z l0 8 z m-8 0 z m0 -8 z "  stroke="black" />
<path d="M96 216 z l8 0 z m0 8 z m-8 0 z m0 -8 z "  stroke="black" />
<path d="M104 216 z l8 0 z m0 8 z l-8 0 z l0 -8 z "  stroke="black" />
<path d="M112 216 z l8 0 z m0 8 z l-8 0 z l0 -8 z "  stroke="black" />
<path d="M120 216 z m8 0 z l0 8 z l-8 0 z l0 -8 z "  stroke="black" />
<path d="M128 216 z m8 0 z l0 8 z m-8 0 z m0 -8 z "  stroke="black" />
<path d="M136 216 z m8 0 z m0 8 z l-8 0 z l0 -8 z "  stroke="black" />
<path d="M144 216 z m8 0 z l0 8 z m-8 0 z m0 -8 z "  stroke="black" />
<path d="M152 216 z l8 0 z l0 8 z m-8 0 z m0 -8 z "  stroke="black" />
<path d="M160 216 z m8 0 z m0 8 z l-8 0 z l0 -8 z "  stroke="black" />
<path d="M168 216 z l8 0 z m0 8 z l-8 0 z l0 -8 z "  stroke="black" />
<path d="M176 216 z l8 0 z l0 8 z m-8 0 z m0 -8 z "  stroke="black" />
<path d="M184 216 z m8 0 z m0 8 z l-8 0 z l0 -8 z "  stroke="black" />
<path d="M192 216 z m8 0 z l0 8 z l-8 0 z l0 -8 z "  stroke="black" />
<path d="M200 216 z m8 0 z l0 8 z l-8 0 z l0 -8 z "  stroke="black" />
<path d="M208 216 z m8 0 z m0 8 z l-8 0 z l0 -8 z "  stroke="black" />
<path d="M216 216 z l8 0 z m0 8 z l-8 0 z l0 -8 z "  stroke="black" />
<path d="M224 216 z l8 0 z m0 8 z l-8 0 z l0 -8 z "  stroke="black" />
<path d="M232 216 z l8 0 z l0 8 z m-8 0 z m0 -8 z "  stroke="black" />
<path d="M0 224 z m8 0 z l0 8 z m-8 0 z m0 -8 z "  stroke="black" />
<path d="M8 224 z m8 0 z l0 8 z m-8 0 z m0 -8 z "  stroke="black" />
<path d="M16 224 z l8 0 z l0 8 z m-8 0 z m0 -8 z "  stroke="black" />
<path d="M24 224 z m8 0 z l0 8 z m-8 0 z m0 -8 z "  stroke="black" />
<path d="M32 224 z m8 0 z m0 8 z l-8 0 z l0 -8 z "  stroke="black" />
<path d="M40 224 z l8 0 z m0 8 z l-8 0 z l0 -8 z "  stroke="black" />
<path d="M48 224 z l8 0 z l0 8 z m-8 0 z m0 -8 z "  stroke="black" />
<path d="M56 224 z m8 0 z l0 8 z l-8 0 z l0 -8 z "  stroke="black" />
<path d="M64 224 z m8 0 z m0 8 z l-8 0 z l0 -8 z "  stroke="black" />
<path d="M72 224 z l8 0 z m0 8 z l-8 0 z l0 -8 z "  stroke="black" />
<path d="M80 224 z l8 0 z m0 8 z l-8 0 z l0 -8 z "  stroke="black" />
<path d="M88 224 z m8 0 z l0 8 z l-8 0 z l0 -8 z "  stroke="black" />
<path d="M96 224 z m8 0 z l0 8 z m-8 0 z m0 -8 z "  stroke="black" />
<path d="M104 224 z l8 0 z l0 8 z m-8 0 z m0 -8 z "  stroke="black" />
<path d="M112 224 z l8 0 z m0 8 z m-8 0 z m0 -8 z "  stroke="black" />
<path d="M120 224 z l8 0 z m0 8 z l-8 0 z l0 -8 z "  stroke="black" />
<path d="M128 224 z m8 0 z m0 8 z m-8 0 z m0 -8 z "  stroke="black" />
<path d="M136 224 z l8 0 z l0 8 z l-8 0 z l0 -8 z "  stroke="black" />
<path d="M144 224 z m8 0 z l0 8 z m-8 0 z m0 -8 z "  stroke="black" />
<path d="M152 224 z m8 0 z m0 8 z l-8 0 z l0 -8 z "  stroke="black" />
<path d="M160 224 z l8 0 z m0 8 z l-8 0 z l0 -8 z "  stroke="black" />
<path d="M168 224 z l8 0 z l0 8 z m-8 0 z m0 -8 z "  stroke="black" />
<path d="M176 224 z m8 0 z m0 8 z l-8 0 z l0 -8 z "  stroke="black" />
<path d="M184 224 z l8 0 z l0 8 z m-8 0 z m0 -8 z "  stroke="black" />
<path d="M192 224 z l8 0 z m0 8 z m-8 0 z m0 -8 z "  stroke="black" />
<path d="M200 224 z l8 0 z m0 8 z l-8 0 z l0 -8 z "  stroke="black" />
<path d="M208 224 z l8 0 z m0 8 z l-8 0 z l0 -8 z "  stroke="black" />
<path d="M216 224 z l8 0 z m0 8 z m-8 0 z m0 -8 z "  stroke="black" />
<path d="M224 224 z l8 0 z l0 8 z l-8 0 z l0 -8 z "  stroke="black" />
<path d="M232 224 z m8 0 z l0 8 z m-8 0 z m0 -8 z "  stroke="black" />
<path d="M0 232 z m8 0 z m0 8 z l-8 0 z l0 -8 z "  stroke="black" />
<path d="M8 232 z m8 0 z m0 8 z l-8 0 z l0 -8 z "  stroke="black" />
<path d="M16 232 z m8 0 z l0 8 z l-8 0 z l0 -8 z "  stroke="black" />
<path d="M24 232 z m8 0 z m0 8 z l-8 0 z l0 -8 z "  stroke="black" />
<path d="M32 232 z l8 0 z m0 8 z l-8 0 z l0 -8 z "  stroke="black" />
<path d="M40 232 z l8 0 z m0 8 z l-8 0 z l0 -8 z "  stroke="black" />
<path d="M48 232 z m8 0 z m0 8 z l-8 0 z l0 -8 z "  stroke="black" />
<path d="M56 232 z l8 0 z m0 8 z l-8 0 z l0 -8 z "  stroke="black" />
<path d="M64 232 z l8 0 z m0 8 z l-8 0 z l0 -8 z "  stroke="black" />
<path d="M72 232 z l8 0 z m0 8 z l-8 0 z l0 -8 z "  stroke="black" />
<path d="M80 232 z l8 0 z m0 8 z l-8 0 z l0 -8 z "  stroke="black" />
<path d="M88 232 z l8 0 z m0 8 z l-8 0 z l0 -8 z "  stroke="black" />
<path d="M96 232 z m8 0 z l0 8 z l-8 0 z l0 -8 z "  stroke="black" />
<path d="M104 232 z m8 0 z m0 8 z l-8 0 z l0 -8 z "  stroke="black" />
<path d="M112 232 z m8 0 z m0 8 z l-8 0 z l0 -8 z "  stroke="black" />
<path d="M120 232 z l8 0 z l0 8 z l-8 0 z l0 -8 z "  stroke="black" />
<path d="M128 232 z m8 0 z m0 8 z l-8 0 z l0 -8 z "  stroke="black" />
<path d="M136 232 z l8 0 z m0 8 z l-8 0 z l0 -8 z "  stroke="black" />
<path d="M144 232 z m8 0 z m0 8 z l-8 0 z l0 -8 z "  stroke="black" />
<path d="M152 232 z l8 0 z m0 8 z l-8 0 z l0 -8 z "  stroke="black" />
<path d="M160 232 z l8 0 z m0 8 z l-8 0 z l0 -8 z "  stroke="black" />
<path d="M168 232 z m8 0 z m0 8 z l-8 0 z l0 -8 z "  stroke="black" />
<path d="M176 232 z l8 0 z l0 8 z l-8 0 z l0 -8 z "  stroke="black" />
<path d="M184 232 z m8 0 z m0 8 z l-8 0 z l0 -8 z "  stroke="black" />
<path d="M192 232 z m8 0 z m0 8 z l-8 0 z l0 -8 z "  stroke="black" />
<path d="M200 232 z l8 0 z m0 8 z l-8 0 z l0 -8 z "  stroke="black" />
<path d="M208 232 z l8 0 z l0 8 z l-8 0 z l0 -8 z "  stroke="black" />
<path d="M216 232 z m8 0 z m0 8 z l-8 0 z l0 -8 z "  stroke="black" />
<path d="M224 232 z l8 0 z m0 8 z l-8 0 z l0 -8 z "  stroke="black" />
<path d="M232 232 z m8 0 z l0 8 z l-8 0 z l0 -8 z "  stroke="black" />
</svg>
